<svg width="300" height="300" viewBox="0 0 22 22" fill="none" xmlns="http://www.w3.org/2000/svg">
  <path d="M11.1844 12.8873C12.8419 12.8873 14.4315 12.2288 15.6036 11.0566C16.7756 9.88465 17.4341 8.29505 17.4341 6.6376C17.4341 4.97997 16.7756 3.39037 15.6036 2.21838C14.4315 1.04639 12.8419 0.387939 11.1844 0.387939C9.52696 0.387939 7.93736 1.04639 6.76519 2.21838C5.5932 3.39037 4.93475 4.97997 4.93475 6.6376C4.93475 8.29505 5.5932 9.88465 6.76519 11.0566C7.93736 12.2288 9.52696 12.8873 11.1844 12.8873ZM11.1844 2.47086C12.2894 2.47086 13.3491 2.90994 14.1305 3.69133C14.9119 4.47254 15.3508 5.53239 15.3508 6.63742C15.3508 7.74245 14.9119 8.80212 14.1305 9.58351C13.3491 10.3649 12.2894 10.8038 11.1844 10.8038C10.0794 10.8038 9.01971 10.3649 8.23832 9.58351C7.45694 8.80212 7.01803 7.74245 7.01803 6.63742C7.01803 5.53239 7.45694 4.47254 8.23832 3.69133C9.01971 2.90994 10.0794 2.47086 11.1844 2.47086Z" fill="currentColor" />
  <path d="M21.3924 19.5534L20.5591 18.3973C19.7543 17.3303 18.7124 16.4652 17.5155 15.8704C16.3187 15.2756 15.0001 14.9675 13.6637 14.9703H8.54924C6.95473 14.9638 5.39004 15.4045 4.03342 16.2422C2.67644 17.0799 1.5815 18.2812 0.872834 19.7097C0.720779 20.0408 0.752688 20.4276 0.957405 20.7293C1.16195 21.0308 1.50947 21.2036 1.87343 21.1847C2.23752 21.1657 2.565 20.9579 2.73731 20.6367C3.27455 19.5561 4.10388 18.6475 5.13115 18.0142C6.15859 17.3809 7.34277 17.0482 8.54944 17.0536H13.6639C15.7107 17.0527 17.6392 18.0132 18.8716 19.6473L19.7362 20.8034C19.9596 21.101 20.3246 21.2571 20.694 21.2124C21.0635 21.168 21.3813 20.9298 21.5274 20.5875C21.6735 20.2454 21.6261 19.8511 21.4027 19.5534L21.3924 19.5534Z" fill="currentColor" />
</svg>
  