<svg width="300" height="300" viewBox="0 0 22 25" fill="none" xmlns="http://www.w3.org/2000/svg">
  <path d="M7.01012 25C6.14602 24.9552 5.33287 24.5945 4.73855 23.9925C4.02753 23.3378 3.39304 22.6109 2.84627 21.8249C1.99217 20.6542 1.31703 19.3729 0.841297 18.0197C0.302886 16.5638 0.0196449 15.0328 0.00302898 13.4885C-0.0387986 11.9732 0.353259 10.4758 1.13675 9.15847C1.71059 8.20894 2.52908 7.41602 3.51413 6.85537C4.48829 6.29711 5.59993 5.99661 6.73528 5.98464C7.59116 6.0331 8.43223 6.22035 9.2226 6.53838C9.85336 6.80407 10.5157 6.99085 11.196 7.09344C11.9463 6.94299 12.6795 6.72273 13.3851 6.43579C14.2201 6.12371 15.1043 5.94894 16.0002 5.91887C16.1198 5.91887 16.2379 5.91887 16.352 5.93202C18.3171 5.98595 20.1448 6.9093 21.2992 8.4311C20.3983 8.89229 19.6486 9.58356 19.1336 10.4281C18.6186 11.2726 18.3583 12.2373 18.3817 13.2149C18.3727 13.9624 18.5294 14.7033 18.8413 15.3886C19.1533 16.074 19.6135 16.6883 20.1915 17.191C20.7178 17.6708 21.3305 18.0554 22 18.3261C21.8626 18.7207 21.7045 19.1022 21.5369 19.4862C21.1562 20.335 20.6866 21.1445 20.1352 21.9025C19.6138 22.6617 19.0069 23.3639 18.3254 23.9964C17.7037 24.5868 16.875 24.9351 16.0002 24.9737C15.2586 24.9422 14.5301 24.7757 13.8537 24.4831C13.1243 24.179 12.3404 24.0124 11.545 23.9925C10.7272 24.0079 9.92013 24.1736 9.16763 24.4805C8.51769 24.7611 7.82331 24.9358 7.11319 24.9974L7.01012 25ZM11.3389 5.91887C11.2358 5.91887 11.1328 5.91887 11.0297 5.90703C11.008 5.75047 10.9965 5.59277 10.9953 5.43484C11.0403 4.12103 11.5767 2.86636 12.507 1.8993C13.0273 1.34352 13.6579 0.892385 14.3621 0.572158C15.0184 0.248796 15.7356 0.0542649 16.4716 0C16.4922 0.172305 16.4922 0.340664 16.4922 0.501131C16.4729 1.7943 15.9652 3.03707 15.063 3.99984C14.6262 4.56045 14.0664 5.02275 13.4231 5.35427C12.7797 5.68579 12.0683 5.8785 11.3389 5.91887Z" fill="currentColor" />
</svg>
  