<svg width="300" height="300" viewBox="0 0 22 22" fill="none" xmlns="http://www.w3.org/2000/svg">
  <path d="M19.5319 5.29207H15.0319V3.96013C15.0319 1.76413 13.2319 0 10.9638 0C8.69576 0 6.89576 1.76406 6.89576 3.96013V5.29207H2.46808L2 20.7361C2 21.2401 2.39601 21.6001 2.9 21.6001H19.1C19.604 21.6001 20 21.2041 20 20.7361L19.5319 5.29207ZM7.83188 3.96013C7.83188 2.26813 9.23589 0.864129 10.9999 0.864129C12.764 0.864129 14.168 2.23219 14.168 3.96013V5.29207H7.83188V3.96013ZM7.18401 8.82C6.82391 8.82 6.49995 8.53197 6.49995 8.17213C6.49995 7.81203 6.78798 7.52426 7.18401 7.52426C7.54412 7.52426 7.86808 7.81229 7.86808 8.17213C7.86808 8.53197 7.54388 8.82 7.18401 8.82ZM14.816 8.82C14.4559 8.82 14.1319 8.53197 14.1319 8.17213C14.1319 7.81203 14.42 7.52426 14.816 7.52426C15.1761 7.52426 15.5001 7.81229 15.5001 8.17213C15.5001 8.53197 15.212 8.82 14.816 8.82Z" fill="currentColor" />
</svg>