<svg width="300" height="300" viewBox="0 0 130 154" fill="none" xmlns="http://www.w3.org/2000/svg">
  <path d="M126.742 49.6678C124.577 47.33 121.51 45.9891 118.323 45.9891H95.9832V30.6891C95.9832 13.8165 82.2561 0.0893555 65.3835 0.0893555C48.5109 0.0893555 34.7837 13.8165 34.7837 30.6891V45.9891H12.4453C9.25877 45.9891 6.18906 47.33 4.02612 49.6662C1.86339 52.0041 0.759192 55.1669 1.00367 58.3438L6.3892 128.369C7.45872 142.23 19.1843 153.089 33.0863 153.089H97.6795C111.584 153.089 123.307 142.23 124.375 128.369L129.76 58.3438C130.007 55.1684 128.906 52.0073 126.741 49.6679L126.742 49.6678ZM42.434 30.6908C42.434 18.0363 52.7285 7.74177 65.3831 7.74177C78.0376 7.74177 88.3321 18.0363 88.3321 30.6908V45.9909L42.4324 45.9893L42.434 30.6908ZM116.861 126.315H92.1573C91.1003 126.315 90.2453 127.171 90.2453 128.227C90.2453 129.282 91.1003 130.139 92.1573 130.139H116.398C114.598 138.882 106.804 145.439 97.6785 145.439L33.0852 145.44C23.961 145.44 16.1654 138.884 14.3655 130.14H76.8588C77.9157 130.14 78.7707 129.284 78.7707 128.228C78.7707 127.173 77.9157 126.316 76.8588 126.316L13.9051 126.315L8.63307 57.7558C8.55104 56.6815 8.90912 55.6546 9.6395 54.8643C10.3683 54.074 11.3668 53.6386 12.4443 53.6386H34.7827V72.7637C34.7827 74.8744 36.4959 76.5891 38.6081 76.5891C40.7188 76.5891 42.4335 74.876 42.4335 72.7637V53.6386H88.3333V72.7637C88.3333 74.8744 90.0465 76.5891 92.1587 76.5891C94.2694 76.5891 95.9841 74.876 95.9841 72.7637L95.9825 53.6386H118.323C119.4 53.6386 120.397 54.0739 121.131 54.8643C121.862 55.6546 122.219 56.6815 122.137 57.7558L116.861 126.315ZM86.4184 128.227C86.4184 129.282 85.5618 130.139 84.5065 130.139C83.4511 130.139 82.5946 129.282 82.5946 128.227C82.5946 127.171 83.4511 126.315 84.5065 126.315C85.5618 126.315 86.4184 127.171 86.4184 128.227Z" fill="currentColor" />
</svg>
  