<svg width="300" height="300" viewBox="0 0 25 24" fill="none" xmlns="http://www.w3.org/2000/svg">
  <path d="M22.3127 6.31692C22.2644 5.78377 21.8132 5.37676 21.2704 5.37676H18.7106C18.6888 2.40157 17.1858 0 13.1952 0C8.83795 0 7.69435 2.40157 7.67987 5.37676H5.11763C4.57719 5.37676 4.12602 5.78377 4.07536 6.31692L2.77734 20.3789C2.77734 22.164 4.24424 23.6111 6.05615 23.6111H20.3343C22.1438 23.6111 23.6107 22.164 23.6107 20.3789L22.3127 6.31692ZM10.4593 2.96329C10.9201 2.41823 11.8393 2.14214 13.1952 2.14214C15.5162 2.14214 16.5199 3.10848 16.5392 5.37676H9.85127C9.85851 4.24381 10.0636 3.43218 10.4593 2.96329ZM20.3343 21.469H6.05615C5.46987 21.469 4.98975 21.0191 4.95115 20.4503L6.14542 7.5189H20.2426L21.4369 20.4503C21.4007 21.0191 20.9181 21.469 20.3343 21.469Z" fill="currentColor" />
  <path d="M8.29744 10.7465C8.92501 10.7465 9.43375 10.2557 9.43375 9.65022C9.43375 9.04477 8.92501 8.55396 8.29744 8.55396C7.66988 8.55396 7.16113 9.04477 7.16113 9.65022C7.16113 10.2557 7.66988 10.7465 8.29744 10.7465Z" fill="currentColor" />
  <path d="M17.7769 10.7465C18.4045 10.7465 18.9132 10.2557 18.9132 9.65022C18.9132 9.04477 18.4045 8.55396 17.7769 8.55396C17.1494 8.55396 16.6406 9.04477 16.6406 9.65022C16.6406 10.2557 17.1494 10.7465 17.7769 10.7465Z" fill="currentColor" />
</svg>