<svg width="22" height="21" viewBox="0 0 22 21" fill="none" xmlns="http://www.w3.org/2000/svg">
  <path d="M19.5556 10.3889C19.5556 14.7682 15.9905 18.3333 11.6112 18.3333C10.3116 18.3333 9.09706 17.9897 8.01434 17.4358L4.92798 18.2966C4.21228 18.4968 3.50492 17.7895 3.70512 17.0721L4.56596 13.9891C4.01042 12.9047 3.66675 11.6902 3.66675 10.3889C3.66675 6.00962 7.2319 2.44446 11.6112 2.44446C15.9905 2.44446 19.5556 6.00962 19.5556 10.3889ZM4.85958 10.3889C4.85958 11.5817 5.16989 12.6978 5.71375 13.6704C5.79049 13.8089 5.80885 13.9707 5.76714 14.1226L4.948 17.0538L7.88087 16.2346C8.03269 16.1929 8.19451 16.2113 8.33131 16.288C9.30393 16.8302 10.4184 17.1405 11.6112 17.1405C15.3465 17.1405 18.3628 14.1242 18.3628 10.3889C18.3628 6.65358 15.3465 3.63729 11.6112 3.63729C7.87587 3.63729 4.85958 6.65358 4.85958 10.3889Z" fill="currentColor" stroke="currentColor" stroke-miterlimit="10" stroke-linejoin="round" />
</svg>