<svg width="26" height="26" viewBox="0 0 26 26" fill="none" xmlns="http://www.w3.org/2000/svg">
  <path fill-rule="evenodd" clip-rule="evenodd" d="M6.75 0.589355C5.0924 0.589355 3.50268 1.24784 2.33058 2.41994C1.15848 3.59204 0.5 5.18175 0.5 6.83935V19.3394C0.5 20.997 1.15848 22.5867 2.33058 23.7588C3.50268 24.9309 5.0924 25.5894 6.75 25.5894H19.25C20.9076 25.5894 22.4973 24.9309 23.6694 23.7588C24.8415 22.5867 25.5 20.997 25.5 19.3394V6.83935C25.5 5.18175 24.8415 3.59204 23.6694 2.41994C22.4973 1.24784 20.9076 0.589355 19.25 0.589355H6.75ZM17.6625 11.4444C17.7748 11.3245 17.8624 11.1838 17.9202 11.0301C17.9781 10.8764 18.0051 10.7128 17.9998 10.5487C17.9945 10.3846 17.9569 10.2231 17.8891 10.0735C17.8214 9.92392 17.7248 9.78913 17.605 9.67686C17.4852 9.56458 17.3444 9.477 17.1907 9.41912C17.037 9.36124 16.8735 9.3342 16.7093 9.33954C16.5452 9.34488 16.3837 9.3825 16.2342 9.45024C16.0846 9.51798 15.9498 9.61452 15.8375 9.73435L11.9837 13.8469L10.08 12.1556C9.83057 11.9483 9.51031 11.846 9.18687 11.8704C8.86343 11.8948 8.56214 12.044 8.34665 12.2864C8.13116 12.5288 8.01834 12.8455 8.03203 13.1696C8.04571 13.4936 8.18483 13.7997 8.42 14.0231L11.2325 16.5231C11.4759 16.7393 11.7939 16.852 12.1191 16.8373C12.4443 16.8226 12.7509 16.6816 12.9737 16.4444L17.6612 11.4444H17.6625Z" fill="currentColor" />
</svg>
  