<svg width="25" height="26" viewBox="0 0 25 26" fill="none" xmlns="http://www.w3.org/2000/svg">
  <path fill-rule="evenodd" clip-rule="evenodd" d="M6.25 2.58936C4.17893 2.58936 2.5 4.26829 2.5 6.33935V18.8394C2.5 20.9104 4.17893 22.5894 6.25 22.5894H18.75C20.8211 22.5894 22.5 20.9104 22.5 18.8394V6.33935C22.5 4.26829 20.8211 2.58936 18.75 2.58936H6.25ZM0 6.33935C0 2.88758 2.79822 0.0893555 6.25 0.0893555H18.75C22.2018 0.0893555 25 2.88758 25 6.33935V18.8394C25 22.2911 22.2018 25.0894 18.75 25.0894H6.25C2.79822 25.0894 0 22.2911 0 18.8394V6.33935Z" fill="currentColor" />
</svg>