<svg width="151" height="151" viewBox="0 0 151 151" fill="none" xmlns="http://www.w3.org/2000/svg">
  <path d="M75.9766 8.96398C112.81 8.96398 142.643 38.7972 142.643 75.6303C142.643 112.463 112.81 142.297 75.9766 142.297C39.1435 142.297 9.31029 112.463 9.31029 75.6303C9.31029 38.7972 39.1435 8.96398 75.9766 8.96398ZM75.9766 0.630249C34.4769 0.630249 0.976562 34.1309 0.976562 75.6303C0.976562 117.13 34.4772 150.63 75.9766 150.63C117.476 150.63 150.977 117.13 150.977 75.6303C150.975 34.127 117.308 0.630249 75.9766 0.630249Z" fill="currentColor" />
  <path fill-rule="evenodd" clip-rule="evenodd" d="M115.143 57.1292L70.6418 102.63C69.6424 103.63 68.1412 104.297 66.4749 104.297C64.8087 104.297 63.4753 103.63 62.3081 102.63L37.1408 76.9627C36.1414 75.9633 35.4746 74.462 35.4746 72.7958C35.4746 69.4621 38.1416 66.795 41.3075 66.795C42.9737 66.795 44.3072 67.4618 45.4744 68.4612L66.4748 89.9621L106.975 48.6278C107.974 47.6284 109.476 46.9616 111.142 46.9616C114.308 46.9616 116.975 49.6286 116.975 52.9624C116.808 54.6299 116.142 56.1298 115.141 57.1292H115.143Z" fill="currentColor" />
</svg>