<svg width="13" height="8" viewBox="0 0 13 8" fill="none" xmlns="http://www.w3.org/2000/svg">
  <path d="M0.166741 7.04799C0.166358 6.96662 0.182167 6.886 0.213241 6.81085C0.244314 6.73569 0.290026 6.66753 0.347693 6.61035L6.10525 0.722864C6.22091 0.606889 6.3777 0.541747 6.54118 0.541747C6.70465 0.541747 6.86144 0.606889 6.97711 0.722864L12.6935 6.50301C12.788 6.61871 12.8376 6.76486 12.8331 6.91441C12.8286 7.06397 12.7703 7.20683 12.669 7.31658C12.5677 7.42634 12.4302 7.49556 12.282 7.51146C12.1338 7.52735 11.9849 7.48885 11.8628 7.40306L6.5823 2.03578L1.21955 7.48563C1.10389 7.6016 0.947096 7.66675 0.783622 7.66675C0.620148 7.66675 0.463358 7.6016 0.347693 7.48563C0.289647 7.42874 0.243686 7.36063 0.212586 7.28541C0.181485 7.21019 0.16589 7.12943 0.166741 7.04799Z" fill="currentColor"/>
  </svg>
  