<svg width="31" height="29" viewBox="0 0 31 29" fill="none" xmlns="http://www.w3.org/2000/svg">
<path d="M5.44155 26.2452C5.05929 26.4532 4.86574 26.8887 4.96251 27.3097C5.05929 27.7306 5.42703 28.0403 5.85767 28.0597C5.90122 28.0597 6.08509 28.0694 6.37542 28.0694C8.18509 28.0694 14.1706 27.7742 17.3351 24.0532C24.6415 23.1774 30.0996 18.0968 30.0996 12.0968C30.0996 5.42419 23.369 0 15.0996 0C6.83025 0 0.0996094 5.42419 0.0996094 12.0968C0.0996094 16.7516 3.35606 20.9323 8.47542 22.9548C7.90929 24.3532 6.89316 25.4564 5.44155 26.2452ZM2.03509 12.0968C2.03509 6.49355 7.89477 1.93548 15.0996 1.93548C22.3044 1.93548 28.1641 6.49355 28.1641 12.0968C28.1641 17.2065 23.2528 21.5371 16.7399 22.1758C16.4738 22.2 16.227 22.3403 16.0625 22.5532C14.3399 24.8129 11.1948 25.6548 8.86735 25.9645C9.69961 25.0065 10.2899 23.879 10.619 22.6113C10.7448 22.1177 10.469 21.6097 9.98509 21.45C5.15606 19.8435 2.03509 16.171 2.03509 12.0968Z" fill="black"/>
</svg>
