<svg width="20" height="19" viewBox="0 0 20 19" fill="none" xmlns="http://www.w3.org/2000/svg">
<path d="M4.1665 11.9974C3.38993 11.9974 3.00165 11.9974 2.69536 11.8705C2.28698 11.7014 1.96253 11.3769 1.79337 10.9685C1.6665 10.6622 1.6665 10.274 1.6665 9.4974V3.83073C1.6665 2.89731 1.6665 2.4306 1.84816 2.07408C2.00795 1.76047 2.26292 1.50551 2.57652 1.34572C2.93304 1.16406 3.39975 1.16406 4.33317 1.16406H9.99984C10.7764 1.16406 11.1647 1.16406 11.471 1.29093C11.8794 1.46009 12.2038 1.78454 12.373 2.19292C12.4998 2.49921 12.4998 2.88749 12.4998 3.66406M10.1665 17.8307H15.6665C16.5999 17.8307 17.0666 17.8307 17.4232 17.6491C17.7368 17.4893 17.9917 17.2343 18.1515 16.9207C18.3332 16.5642 18.3332 16.0975 18.3332 15.1641V9.66406C18.3332 8.73064 18.3332 8.26393 18.1515 7.90741C17.9917 7.59381 17.7368 7.33884 17.4232 7.17905C17.0666 6.9974 16.5999 6.9974 15.6665 6.9974H10.1665C9.23308 6.9974 8.76637 6.9974 8.40985 7.17905C8.09625 7.33884 7.84128 7.59381 7.68149 7.90741C7.49984 8.26393 7.49984 8.73064 7.49984 9.66406V15.1641C7.49984 16.0975 7.49984 16.5642 7.68149 16.9207C7.84128 17.2343 8.09625 17.4893 8.40985 17.6491C8.76637 17.8307 9.23308 17.8307 10.1665 17.8307Z" stroke="#344054" stroke-width="1.66667" stroke-linecap="round" stroke-linejoin="round"/>
</svg>
