<svg width="21" height="16" viewBox="0 0 21 16" fill="none" xmlns="http://www.w3.org/2000/svg">
<path d="M3.24365 15.1602H18.0874C19.5093 15.1602 20.6655 14.0039 20.6655 12.582V2.73828C20.6655 1.31641 19.5093 0.160156 18.0874 0.160156H3.24365C1.82178 0.160156 0.665527 1.31641 0.665527 2.73828V12.582C0.665527 14.0039 1.82178 15.1602 3.24365 15.1602ZM3.24365 1.41016H18.0874C18.3843 1.41016 18.653 1.51016 18.8749 1.67578L10.6655 8.73516L2.45615 1.67578C2.67803 1.51016 2.94678 1.41016 3.24365 1.41016ZM1.91553 2.85703L10.2593 10.032C10.378 10.132 10.5218 10.182 10.6655 10.182C10.8093 10.182 10.9562 10.132 11.0718 10.032L19.4155 2.85703V12.582C19.4155 13.3133 18.8187 13.9102 18.0874 13.9102H3.24365C2.5124 13.9102 1.91553 13.3133 1.91553 12.582V2.85703Z" fill="black"/>
</svg>
