<svg width="300" height="300" viewBox="0 0 30 29" fill="none" xmlns="http://www.w3.org/2000/svg">
  <path d="M14.9831 17.0963C16.4518 17.0963 17.6492 15.9375 17.6492 14.5161C17.6492 13.0946 16.4518 11.9359 14.9831 11.9359C13.5143 11.9359 12.3169 13.0946 12.3169 14.5161C12.3169 15.9375 13.5143 17.0963 14.9831 17.0963ZM14.9831 19.7231C12.0123 19.7231 9.60254 17.3911 9.60254 14.5161C9.60254 11.6411 12.0123 9.30901 14.9831 9.30901C17.9538 9.30901 20.3636 11.6411 20.3636 14.5161C20.3636 17.3911 17.9538 19.7231 14.9831 19.7231Z" fill="currentColor" />
  <path d="M14.9985 21.2554C19.993 21.2554 24.7612 18.5264 26.9991 14.5014C24.7642 10.4765 19.993 7.74742 14.9985 7.74742C10.004 7.74742 5.23575 10.4765 3.0009 14.5014C5.23575 18.5264 10.007 21.2554 14.9985 21.2554ZM14.9985 23.8823C8.10395 23.8823 2.23183 19.7114 0 14.5014C2.23183 9.28852 8.10395 5.12054 14.9985 5.12054C21.893 5.12054 27.7682 9.29144 30 14.5014C27.7682 19.7114 21.896 23.8823 14.9985 23.8823Z" fill="currentColor" />
</svg>
  