<svg width="18" height="18" viewBox="0 0 18 18" fill="none" xmlns="http://www.w3.org/2000/svg">
  <path d="M5.52217 3C4.46029 3 3.56734 3.78583 3.29895 4.83963H2.10141C1.94183 4.83891 1.78853 4.90683 1.6756 5.02804C1.56279 5.14939 1.49971 5.31396 1.50024 5.48542C1.50091 5.65617 1.56453 5.81945 1.67734 5.93964C1.79001 6.05984 1.94264 6.12705 2.10144 6.12633H3.29672C3.56323 7.18299 4.4583 7.97228 5.5222 7.97228C6.57538 7.97228 7.463 7.19836 7.73953 6.1578L15.9024 6.12635C16.0614 6.12606 16.2133 6.05785 16.3254 5.93707C16.4374 5.81615 16.5003 5.6523 16.5 5.48168C16.4996 5.3115 16.4366 5.14836 16.3246 5.02801C16.2125 4.90767 16.0608 4.83988 15.9023 4.8396L7.75581 4.87105C7.49785 3.80104 6.59486 3 5.52217 3ZM5.52217 4.28673C6.14605 4.28673 6.639 4.81521 6.639 5.48542C6.639 6.15577 6.14609 6.68543 5.52217 6.68543C4.89825 6.68543 4.40657 6.15581 4.40657 5.48542C4.40657 4.81503 4.89828 4.28673 5.52217 4.28673ZM10.1544 9.9675C9.07485 9.9675 8.1664 10.7673 7.89842 11.8397H2.10117C1.94212 11.8392 1.78935 11.9065 1.67669 12.0269C1.56389 12.1473 1.5004 12.3111 1.5 12.482C1.49973 12.6531 1.56295 12.8176 1.67589 12.9385C1.78869 13.0596 1.94173 13.1272 2.10119 13.1265H7.89947C8.16824 14.1987 9.07562 15 10.1542 15C11.2328 15 12.1402 14.1987 12.4089 13.1265H15.902C16.0609 13.1262 16.213 13.0581 16.3251 12.9372C16.4371 12.8163 16.4999 12.6526 16.4997 12.482C16.4993 12.3118 16.4363 12.1486 16.3243 12.0283C16.2122 11.9079 16.0605 11.8402 15.902 11.8397H12.4099C12.142 10.7673 11.2339 9.9675 10.1544 9.9675ZM10.1544 11.2542C10.7943 11.2542 11.3005 11.7943 11.3005 12.482C11.3005 13.1696 10.7943 13.7134 10.1544 13.7134C9.51445 13.7134 9.0083 13.1696 9.0083 12.482C9.0083 11.7944 9.51445 11.2542 10.1544 11.2542Z" fill="currentColor" />
</svg>
  