<svg width="60" height="60" viewBox="0 0 60 60" fill="none" xmlns="http://www.w3.org/2000/svg">
  <path fill-rule="evenodd" clip-rule="evenodd" d="M32.0003 0.00012207H28.0003C27.4481 0.00012207 27.0003 0.447837 27.0003 1.00012C27.0003 1.23373 26.9303 1.65421 26.7309 2.05291C26.426 2.66283 25.92 3.00012 25.0003 3.00012C24.3693 3.00012 23.896 3.57745 24.0198 4.19624C24.0367 4.28087 24.0688 4.43402 24.1158 4.646C24.1934 4.99631 24.2848 5.3859 24.3896 5.80516C24.6894 7.00455 25.0375 8.20474 25.4315 9.33047C26.6772 12.8896 28.049 15.0001 30.0003 15.0001C31.9517 15.0001 33.3235 12.8896 34.5692 9.33047C34.9632 8.20474 35.3113 7.00455 35.6111 5.80516C35.7159 5.3859 35.8073 4.99631 35.8849 4.646C35.9318 4.43402 35.964 4.28087 35.9809 4.19624C36.1047 3.57745 35.6314 3.00012 35.0003 3.00012C34.0807 3.00012 33.5747 2.66283 33.2698 2.05291C33.0704 1.65421 33.0003 1.23373 33.0003 1.00012C33.0003 0.447837 32.5526 0.00012207 32.0003 0.00012207ZM31.4809 2.94734C31.9504 3.88621 32.7222 4.56216 33.7861 4.84832C33.7498 5.00041 33.7114 5.15788 33.6708 5.32009C33.3847 6.46444 33.0531 7.608 32.6815 8.66977C31.7397 11.3607 30.674 13.0001 30.0003 13.0001C29.3267 13.0001 28.261 11.3607 27.3192 8.66977C26.9476 7.608 26.6159 6.46444 26.3299 5.32009C26.2893 5.15788 26.2509 5.00041 26.2146 4.84832C27.2785 4.56216 28.0503 3.88621 28.5198 2.94734C28.6823 2.62226 28.7956 2.30155 28.8712 2.00012H31.1295C31.2051 2.30155 31.3184 2.62226 31.4809 2.94734Z" fill="currentColor" />
  <path fill-rule="evenodd" clip-rule="evenodd" d="M36 18.0001C36 16.2115 36.8018 14.7931 38.7489 12.5925C38.7692 12.5696 39.6019 11.6378 39.8347 11.3697C40.2473 10.8947 40.566 10.5004 40.8416 10.1137C41.5988 9.05157 42 8.07501 42 7.03112C42 4.76136 40.4374 3.5484 38.0594 3.14645C37.2003 3.00125 36.4301 2.9731 35.3631 2.99421C35.0312 3.00077 35.0677 3.00012 35 3.00012C34.5233 3.00012 34.1129 3.33658 34.0194 3.804C34.0051 3.87562 33.9757 4.01544 33.9319 4.21361C33.8581 4.5469 33.7707 4.91902 33.6705 5.32008C33.3844 6.46443 33.0528 7.60799 32.6811 8.66977C31.7393 11.3607 30.6737 13.0001 30 13.0001C29.3263 13.0001 28.2607 11.3607 27.3189 8.66977C26.9472 7.60799 26.6156 6.46443 26.3295 5.32008C26.2293 4.91902 26.1419 4.5469 26.0681 4.21361C26.0243 4.01544 25.9949 3.87562 25.9806 3.804C25.8871 3.33658 25.4767 3.00012 25 3.00012C24.9323 3.00012 24.9688 3.00077 24.6369 2.99421C23.5699 2.9731 22.7997 3.00125 21.9406 3.14645C19.5626 3.5484 18 4.76136 18 7.03112C18 8.07501 18.4012 9.05157 19.1584 10.1137C19.434 10.5004 19.7527 10.8947 20.1653 11.3697C20.3981 11.6378 21.2308 12.5696 21.2511 12.5925C23.1982 14.7931 24 16.2115 24 18.0001C24 19.8908 23.6567 21.0697 22.5938 23.5333C21.4086 26.28 21 27.6827 21 29.9381C21 31.8702 21.2685 34.5397 21.8074 38.5467C21.8731 39.0355 21.9432 39.5469 22.025 40.1371C22.9341 46.6977 23.031 47.4664 23.031 48.6561C23.031 49.6814 23.0277 51.2065 23.0218 53.0982C23.0199 53.7012 23.0178 54.3313 23.0155 54.9809C23.0121 55.9379 23.0085 56.8899 23.0049 57.7931C23.0028 58.3009 23.0028 58.3009 23.0013 58.65C23.0003 58.9087 23.0003 58.9087 23 58.9648C22.9976 59.5167 23.4429 59.9662 23.9948 59.9691L29.9948 60.0001L36.0052 59.9691C36.5571 59.9662 37.0024 59.5167 37 58.9648C36.9997 58.9087 36.9997 58.9087 36.9987 58.65C36.9972 58.3009 36.9972 58.3009 36.9951 57.7931C36.9915 56.8899 36.9879 55.9379 36.9845 54.9809C36.9822 54.3313 36.9801 53.7012 36.9782 53.0982C36.9723 51.2065 36.969 49.6814 36.969 48.6561C36.969 47.4664 37.0659 46.6977 37.975 40.1371C38.0568 39.5469 38.1269 39.0355 38.1926 38.5467C38.7315 34.5397 39 31.8702 39 29.9381C39 27.6827 38.5914 26.28 37.4182 23.561C36.3433 21.0697 36 19.8908 36 18.0001ZM29.9948 58.0001L25.0041 57.9743C25.0043 57.9238 25.0046 57.8667 25.0048 57.8012C25.0085 56.8977 25.0121 55.9453 25.0155 54.988C25.0178 54.3381 25.0199 53.7077 25.0218 53.1045C25.0277 51.2108 25.031 49.684 25.031 48.6561C25.031 47.3197 24.9463 46.6477 24.006 39.8626C23.9246 39.2749 23.8549 38.766 23.7896 38.2802C23.2625 34.3614 23 31.7513 23 29.9381C23 28.0247 23.345 26.8406 24.4182 24.3533C25.593 21.6303 26 20.2328 26 18.0001C26 15.5828 24.9962 13.807 22.7489 11.2672C22.7203 11.2349 21.8971 10.3137 21.6753 10.0583C21.3011 9.62742 21.0197 9.27921 20.7869 8.95275C20.2497 8.1991 20 7.59139 20 7.03112C20 5.95412 20.7432 5.37722 22.2739 5.11848C22.874 5.01706 23.4481 4.98432 24.1929 4.98847C24.2519 5.24472 24.3174 5.51798 24.3892 5.80515C24.6891 7.00455 25.0371 8.20474 25.4311 9.33047C26.6768 12.8896 28.0487 15.0001 30 15.0001C31.9513 15.0001 33.3232 12.8896 34.5689 9.33047C34.9629 8.20474 35.3109 7.00455 35.6108 5.80515C35.6826 5.51798 35.7481 5.24472 35.8071 4.98847C36.5519 4.98432 37.126 5.01706 37.7261 5.11848C39.2568 5.37722 40 5.95412 40 7.03112C40 7.59139 39.7503 8.1991 39.2131 8.95275C38.9803 9.27921 38.6989 9.62742 38.3247 10.0583C38.1029 10.3137 37.2797 11.2349 37.2511 11.2672C35.0038 13.807 34 15.5828 34 18.0001C34 20.2328 34.407 21.6303 35.5699 24.3256C36.655 26.8406 37 28.0247 37 29.9381C37 31.7513 36.7375 34.3614 36.2104 38.2802C36.1451 38.766 36.0754 39.2749 35.994 39.8626C35.0537 46.6477 34.969 47.3197 34.969 48.6561C34.969 49.684 34.9723 51.2108 34.9782 53.1045C34.9801 53.7077 34.9822 54.3381 34.9845 54.988C34.9879 55.9453 34.9915 56.8977 34.9952 57.8012C34.9954 57.8667 34.9957 57.9238 34.9959 57.9743L29.9948 58.0001Z" fill="currentColor" />
</svg>
  