<svg width="60" height="60" viewBox="0 0 60 60" fill="none" xmlns="http://www.w3.org/2000/svg">
  <path fill-rule="evenodd" clip-rule="evenodd" d="M20.6174 6.00012H39.3813L40.3813 8.00012H19.6174L20.6174 6.00012ZM17.9993 10.0001H41.9993C42.7427 10.0001 43.2262 9.21781 42.8938 8.55291L40.8938 4.55291C40.7244 4.21412 40.3781 4.00012 39.9993 4.00012H19.9993C19.6206 4.00012 19.2743 4.21412 19.1049 4.55291L17.1049 8.55291C16.7725 9.21781 17.256 10.0001 17.9993 10.0001Z" fill="currentColor" />
  <path fill-rule="evenodd" clip-rule="evenodd" d="M17.0884 8.58905C12.7981 18.1034 12.0102 23.3249 14.0166 34.1819C14.9837 39.4143 15.9407 44.6595 16.845 49.6641C17.1615 51.4156 17.4488 53.012 17.7016 54.4214C17.79 54.9147 17.8679 55.3494 17.9344 55.7214C18.0015 56.0974 18.0015 56.0974 18.0155 56.1756C18.0599 56.425 18.1973 56.6482 18.4 56.8001C18.9669 57.2253 20.011 57.8316 21.5036 58.4286C23.9614 59.4117 26.8053 60.0001 30 60.0001C33.1947 60.0001 36.0385 59.4117 38.4964 58.4286C39.9889 57.8316 41.0331 57.2253 41.6 56.8001C41.8026 56.6482 41.94 56.425 41.9845 56.1756C41.9984 56.0974 41.9984 56.0974 42.0656 55.7214C42.1321 55.3494 42.2099 54.9147 42.2983 54.4214C42.5511 53.012 42.8384 51.4156 43.1549 49.6641C44.0592 44.6595 45.0163 39.4143 45.9833 34.1819C47.9898 23.3249 47.2019 18.1034 42.9116 8.58905C42.7499 8.23058 42.3932 8.00012 42 8.00012H18C17.6067 8.00012 17.25 8.23058 17.0884 8.58905ZM41.3519 10.0001C45.249 18.7819 45.9033 23.6098 44.0166 33.8184C43.049 39.0536 42.0915 44.3014 41.1868 49.3084C40.8701 51.0609 40.5827 52.6581 40.3297 54.0684C40.2412 54.562 40.1633 54.9971 40.0968 55.3695C39.9981 55.4651 39.8892 55.5311 39.7635 55.6041C39.1989 55.9319 38.5276 56.262 37.7536 56.5716C35.5239 57.4635 32.9303 58.0001 30 58.0001C27.0697 58.0001 24.476 57.4635 22.2464 56.5716C21.4723 56.262 20.801 55.9319 20.2365 55.6041C20.1107 55.5311 20.0018 55.4651 19.91 55.4076C19.8366 54.9971 19.7587 54.562 19.6702 54.0684C19.4173 52.6581 19.1298 51.0609 18.8132 49.3084C17.9084 44.3014 16.9509 39.0536 15.9833 33.8184C14.0967 23.6098 14.751 18.7819 18.6481 10.0001H41.3519Z" fill="currentColor" />
  <path fill-rule="evenodd" clip-rule="evenodd" d="M20.7813 4.00012L20.2813 2.00012H39.7197L39.2197 4.00012H20.7813ZM40.0005 6.00012C40.4594 6.00012 40.8593 5.68782 40.9706 5.24266L41.9706 1.24266C42.1284 0.611511 41.6511 0.00012207 41.0005 0.00012207H19.0005C18.3499 0.00012207 17.8726 0.611511 18.0304 1.24266L19.0304 5.24266C19.1416 5.68782 19.5416 6.00012 20.0005 6.00012H40.0005Z" fill="currentColor" />
  <path fill-rule="evenodd" clip-rule="evenodd" d="M17.0545 46.0395C16.5859 46.1991 16.3046 46.6775 16.393 47.1646C16.6269 48.4541 16.8494 49.6865 17.1107 51.1374C17.2185 51.7358 17.8311 52.1004 18.4085 51.9097C25.3814 49.607 36.614 43.1613 45.2349 36.7631C45.4381 36.6123 45.5766 36.39 45.6224 36.141C45.8633 34.8312 45.8859 34.7088 45.9833 34.1819C46.5615 31.0524 46.8823 28.3485 46.9703 25.896C46.9866 25.4419 46.6947 25.0339 46.2596 24.9027C33.9592 21.1934 22.7557 17.0364 16.3235 13.3958C15.783 13.09 15.0974 13.3455 14.8889 13.9304C14.33 15.4989 13.9109 16.9527 13.6106 18.4057C13.521 18.8395 13.7273 19.2805 14.1177 19.4896C20.6493 22.9885 31.5235 26.8966 43.5039 30.4272C35.6036 36.7355 24.0693 43.6506 17.0545 46.0395ZM44.0166 33.8184C43.9296 34.2886 43.9023 34.4371 43.7268 35.3909C35.7503 41.2678 25.5778 47.1558 18.8711 49.6289C18.7473 48.9425 18.6299 48.2928 18.5124 47.6438C25.659 45.0037 36.5223 38.4725 44.2701 32.3721C44.1922 32.8434 44.1077 33.3252 44.0166 33.8184ZM15.7313 18.0785C15.9133 17.307 16.1329 16.5264 16.3941 15.7166C22.9621 19.226 33.4333 23.0935 44.9365 26.5917C44.8987 27.2753 44.8425 27.9813 44.7673 28.7137C33.0422 25.2847 22.3087 21.4751 15.7313 18.0785ZM44.7673 28.7137C44.6492 29.8632 44.4843 31.0776 44.2701 32.3721C44.2767 32.3669 44.2833 32.3617 44.2898 32.3566C44.9686 31.8218 45.6233 31.2905 46.2495 30.7653C46.8628 30.251 46.6534 29.2605 45.8844 29.0384C45.5111 28.9306 45.1387 28.8223 44.7673 28.7137Z" fill="currentColor" />
</svg>
  