<svg width="60" height="60" viewBox="0 0 60 60" fill="none" xmlns="http://www.w3.org/2000/svg">
  <path fill-rule="evenodd" clip-rule="evenodd" d="M30 55.5001C29.448 55.5001 29 55.0531 29 54.5001V11.4861C29 10.9341 29.448 10.4861 30 10.4861C30.552 10.4861 31 10.9341 31 11.4861V54.5001C31 55.0531 30.552 55.5001 30 55.5001Z" fill="currentColor"/>
  <path fill-rule="evenodd" clip-rule="evenodd" d="M28 6.50012C26.897 6.50012 26 7.39712 26 8.50012C26 9.60312 26.897 10.5001 28 10.5001H32C33.103 10.5001 34 9.60312 34 8.50012C34 7.39712 33.103 6.50012 32 6.50012H28ZM32 12.5001H28C25.794 12.5001 24 10.7061 24 8.50012C24 6.29412 25.794 4.50012 28 4.50012H32C34.206 4.50012 36 6.29412 36 8.50012C36 10.7061 34.206 12.5001 32 12.5001Z" fill="currentColor"/>
  <path fill-rule="evenodd" clip-rule="evenodd" d="M18 11.5001C17.448 11.5001 17 11.0531 17 10.5001V6.50012C17 5.94712 17.448 5.50012 18 5.50012H25.778C26.331 5.50012 26.778 5.94712 26.778 6.50012C26.778 7.05312 26.331 7.50012 25.778 7.50012H19V10.5001C19 11.0531 18.552 11.5001 18 11.5001Z" fill="currentColor"/>
  <path fill-rule="evenodd" clip-rule="evenodd" d="M42.0007 11.5001C41.4487 11.5001 41.0007 11.0531 41.0007 10.5001V7.50012H34.2227C33.6697 7.50012 33.2227 7.05312 33.2227 6.50012C33.2227 5.94712 33.6697 5.50012 34.2227 5.50012H42.0007C42.5527 5.50012 43.0007 5.94712 43.0007 6.50012V10.5001C43.0007 11.0531 42.5527 11.5001 42.0007 11.5001Z" fill="currentColor"/>
  <path fill-rule="evenodd" clip-rule="evenodd" d="M30.0003 55.5001C6.59227 55.5001 0.327269 40.5101 0.0712692 39.8711C-0.00173079 39.6871 -0.0197308 39.4841 0.0222692 39.2901C3.21327 24.3971 17.1533 9.93312 17.2933 9.79312C17.4803 9.60512 17.7353 9.50012 18.0003 9.50012H25.7783C26.3313 9.50012 26.7783 9.94712 26.7783 10.5001C26.7783 11.0531 26.3313 11.5001 25.7783 11.5001H18.4323C16.4973 13.5911 4.95027 26.5141 2.04827 39.3921C2.47427 40.2861 4.08727 43.3201 7.61427 46.3151C11.4723 49.5931 18.4883 53.5001 30.0003 53.5001C41.5123 53.5001 48.5283 49.5931 52.3863 46.3151C55.9113 43.3211 57.5253 40.2891 57.9523 39.3921C55.0493 26.5131 43.5033 13.5911 41.5683 11.5001H34.2223C33.6693 11.5001 33.2223 11.0531 33.2223 10.5001C33.2223 9.94712 33.6693 9.50012 34.2223 9.50012H42.0003C42.2653 9.50012 42.5203 9.60512 42.7073 9.79312C42.8473 9.93312 56.7873 24.3971 59.9783 39.2901C60.0203 39.4841 60.0023 39.6871 59.9293 39.8711C59.6733 40.5101 53.4083 55.5001 30.0003 55.5001Z" fill="currentColor"/>
  <path fill-rule="evenodd" clip-rule="evenodd" d="M18.0079 53.8888H17.9989C17.4469 53.8838 17.0029 53.4318 17.0079 52.8798C17.1639 35.2308 23.9949 14.4508 25.7269 10.7348C25.9599 10.2338 26.5549 10.0188 27.0549 10.2498C27.5559 10.4838 27.7729 11.0778 27.5389 11.5778C25.8449 15.2158 19.1609 35.5698 19.0079 52.8978C19.0029 53.4468 18.5559 53.8888 18.0079 53.8888Z" fill="currentColor"/>
  <path fill-rule="evenodd" clip-rule="evenodd" d="M9.04605 49.67C9.03005 49.67 9.01405 49.67 8.99905 49.669C8.44705 49.644 8.02005 49.175 8.04605 48.623C8.89805 30.376 21.438 10.647 22.292 9.79302C22.683 9.40202 23.316 9.40202 23.707 9.79302C24.095 10.182 24.097 10.81 23.713 11.2C22.7211 12.302 10.853 31.38 10.044 48.717C10.019 49.252 9.57705 49.67 9.04605 49.67Z" fill="currentColor"/>
  <path fill-rule="evenodd" clip-rule="evenodd" d="M41.9924 53.8888C41.4444 53.8888 40.9974 53.4478 40.9924 52.8978C40.8394 35.5698 34.1554 15.2158 32.4614 11.5778C32.2274 11.0778 32.4444 10.4838 32.9454 10.2498C33.4454 10.0188 34.0404 10.2338 34.2734 10.7348C36.0054 14.4508 42.8364 35.2308 42.9924 52.8798C42.9974 53.4318 42.5534 53.8838 42.0014 53.8888H41.9924Z" fill="currentColor"/>
  <path fill-rule="evenodd" clip-rule="evenodd" d="M50.9541 49.67C50.4231 49.67 49.9811 49.252 49.9561 48.717C49.1461 31.366 37.2601 12.272 36.2851 11.198C35.9201 10.796 35.9301 10.164 36.3231 9.78902C36.7161 9.41402 37.3241 9.40802 37.7081 9.79302C38.5621 10.647 51.1021 30.376 51.9541 48.623C51.9801 49.175 51.5531 49.644 51.0011 49.669C50.9861 49.67 50.9701 49.67 50.9541 49.67Z" fill="currentColor"/>
  </svg>
  