<svg width="60" height="60" viewBox="0 0 60 60" fill="none" xmlns="http://www.w3.org/2000/svg">
  <path fill-rule="evenodd" clip-rule="evenodd" d="M26 8.00023H34C34.5523 8.00023 35 7.55251 35 7.00023V1.00023C35 0.447944 34.5523 0.000228882 34 0.000228882H26C25.4477 0.000228882 25 0.447944 25 1.00023V7.00023C25 7.55251 25.4477 8.00023 26 8.00023ZM27 2.00023H33V6.00023H27V2.00023Z" fill="currentColor" />
  <path fill-rule="evenodd" clip-rule="evenodd" d="M20 7.00023H26C26.5523 7.00023 27 6.55251 27 6.00023V2.00023C27 1.44794 26.5523 1.00023 26 1.00023H20C19.4477 1.00023 19 1.44794 19 2.00023V6.00023C19 6.55251 19.4477 7.00023 20 7.00023ZM21 5.00023V3.00023H25V5.00023H21Z" fill="currentColor" />
  <path fill-rule="evenodd" clip-rule="evenodd" d="M34 7.00023H40C40.5523 7.00023 41 6.55251 41 6.00023V2.00023C41 1.44794 40.5523 1.00023 40 1.00023H34C33.4477 1.00023 33 1.44794 33 2.00023V6.00023C33 6.55251 33.4477 7.00023 34 7.00023ZM35 3.00023H39V5.00023H35V3.00023Z" fill="currentColor" />
  <path fill-rule="evenodd" clip-rule="evenodd" d="M27 6.00003C27 5.44775 26.5523 5.00003 26 5.00003H20C19.7348 5.00003 19.4804 5.10539 19.2929 5.29292C17.5846 7.00119 15 14.7551 15 20C15 22.4568 15.4294 26.683 16.3472 34.0848C16.3974 34.4899 16.45 34.9125 16.5077 35.3741C17.8052 45.7536 18 47.4422 18 49V56C18 56.3148 18.1482 56.6112 18.4 56.8C18.9669 57.2252 20.011 57.8315 21.5036 58.4285C23.9615 59.4117 26.8053 60 30 60C33.1947 60 36.0385 59.4117 38.4964 58.4285C39.989 57.8315 41.0331 57.2252 41.6 56.8C41.8518 56.6112 42 56.3148 42 56V49C42 47.4422 42.1948 45.7536 43.4923 35.3741C43.55 34.9125 43.6026 34.4899 43.6528 34.0848C44.5706 26.683 45 22.4568 45 20C45 14.7551 42.4154 7.00119 40.7071 5.29292C40.5196 5.10539 40.2652 5.00003 40 5.00003H34C33.4477 5.00003 33 5.44775 33 6.00003H27ZM43 20C43 22.3377 42.5731 26.5392 41.668 33.8387C41.6179 34.2431 41.5653 34.665 41.5077 35.126C40.1802 45.7465 40 47.3079 40 49V55.4632C39.9293 55.5065 39.8504 55.5535 39.7635 55.604C39.199 55.9318 38.5276 56.262 37.7536 56.5716C35.524 57.4634 32.9303 58 30 58C27.0697 58 24.476 57.4634 22.2464 56.5716C21.4724 56.262 20.801 55.9318 20.2365 55.604C20.1496 55.5535 20.0707 55.5065 20 55.4632V49C20 47.3079 19.8198 45.7465 18.4923 35.126C18.4347 34.665 18.3821 34.2431 18.332 33.8387C17.4269 26.5392 17 22.3377 17 20C17 15.5286 19.1358 8.8544 20.4647 7.00003H25C25 7.55232 25.4477 8.00003 26 8.00003H34C34.5523 8.00003 35 7.55232 35 7.00003H39.5353C40.8642 8.8544 43 15.5286 43 20Z" fill="currentColor" />
  <path fill-rule="evenodd" clip-rule="evenodd" d="M37.8951 57.8434L35.9961 37.9054C35.8812 36.6985 34.1201 36.6985 34.0052 37.9054L32.0242 58.7064C31.9633 59.3454 32.5116 59.8754 33.1481 59.7929C34.5996 59.6049 35.9577 59.296 37.2088 58.8892C37.6543 58.7444 37.9396 58.3097 37.8951 57.8434ZM34.1375 57.6115L35.0007 48.5475L35.8265 57.2178C35.2842 57.3693 34.7208 57.5012 34.1375 57.6115Z" fill="currentColor" />
  <path fill-rule="evenodd" clip-rule="evenodd" d="M27.9771 58.7061L25.9961 37.9051C25.8812 36.6982 24.1201 36.6982 24.0051 37.9051L22.1061 57.8431C22.0617 58.3094 22.3469 58.7441 22.7924 58.8889C24.0436 59.2957 25.4016 59.6046 26.8531 59.7926C27.4897 59.8751 28.0379 59.3451 27.9771 58.7061ZM24.1747 57.2175L25.0005 48.5472L25.8638 57.6112C25.2805 57.5009 24.7171 57.369 24.1747 57.2175Z" fill="currentColor" />
</svg>
  