<svg width="60" height="60" viewBox="0 0 60 60" fill="none" xmlns="http://www.w3.org/2000/svg">
  <path fill-rule="evenodd" clip-rule="evenodd" d="M34 4.00012C34 1.79084 32.2093 0.00012207 30 0.00012207C27.7907 0.00012207 26 1.79084 26 4.00012C26 6.20941 27.7907 8.00012 30 8.00012C32.2093 8.00012 34 6.20941 34 4.00012ZM32 4.00012C32 5.10484 31.1047 6.00012 30 6.00012C28.8953 6.00012 28 5.10484 28 4.00012C28 2.89541 28.8953 2.00012 30 2.00012C31.1047 2.00012 32 2.89541 32 4.00012Z" fill="currentColor"/>
  <path fill-rule="evenodd" clip-rule="evenodd" d="M31.9997 4.00012C31.9997 4.49298 31.8138 4.9576 31.4776 5.331C30.8982 5.97448 31.3548 7.00012 32.2207 7.00012H41.9997C42.7431 7.00012 43.2266 6.21781 42.8941 5.55291L40.8941 1.55291C40.7247 1.21412 40.3785 1.00012 39.9997 1.00012H32.2207C31.3548 1.00012 30.8982 2.02577 31.4776 2.66924C31.8138 3.04265 31.9997 3.50726 31.9997 4.00012ZM39.3817 3.00012L40.3817 5.00012H33.8708C33.9555 4.6777 33.9997 4.34241 33.9997 4.00012C33.9997 3.65783 33.9555 3.32254 33.8708 3.00012H39.3817Z" fill="currentColor"/>
  <path fill-rule="evenodd" clip-rule="evenodd" d="M27.9993 4.00012C27.9993 3.50726 28.1853 3.04265 28.5215 2.66924C29.1009 2.02577 28.6442 1.00012 27.7783 1.00012H19.9993C19.6206 1.00012 19.2743 1.21412 19.1049 1.55291L17.1049 5.55291C16.7725 6.21781 17.256 7.00012 17.9993 7.00012H27.7783C28.6442 7.00012 29.1009 5.97448 28.5215 5.331C28.1853 4.9576 27.9993 4.49298 27.9993 4.00012ZM19.6174 5.00012L20.6174 3.00012H26.1283C26.0435 3.32254 25.9993 3.65783 25.9993 4.00012C25.9993 4.34241 26.0435 4.6777 26.1283 5.00012H19.6174Z" fill="currentColor"/>
  <path fill-rule="evenodd" clip-rule="evenodd" d="M42 5.00012H32.221C31.9378 5.00012 31.6678 5.1202 31.4782 5.33055C31.0945 5.75621 30.567 6.00012 30 6.00012C29.4329 6.00012 28.9054 5.75621 28.5217 5.33055C28.3321 5.1202 28.0622 5.00012 27.779 5.00012H18C17.6067 5.00012 17.25 5.23058 17.0884 5.58905C12.7981 15.1034 12.0102 20.3249 14.0166 31.1819C14.1813 32.0727 14.3465 32.9856 14.5123 33.9189C15.3751 38.7779 16.2158 43.9858 17.0006 49.1941C17.2753 51.0172 17.5234 52.71 17.7406 54.229C17.8166 54.7605 17.8833 55.2323 17.9401 55.6388C17.9742 55.8824 17.9974 56.05 18.0093 56.1361C18.0456 56.4007 18.1863 56.6398 18.4 56.8001C18.9669 57.2253 20.011 57.8316 21.5036 58.4286C23.9614 59.4117 26.8053 60.0001 30 60.0001C33.1947 60.0001 36.0385 59.4117 38.4964 58.4286C39.9889 57.8316 41.0331 57.2253 41.6 56.8001C41.8137 56.6398 41.9544 56.4007 41.9907 56.1361C42.0025 56.05 42.0257 55.8824 42.0598 55.6388C42.1167 55.2323 42.1834 54.7605 42.2594 54.229C42.4766 52.71 42.7246 51.0172 42.9993 49.1941C43.7841 43.9858 44.6248 38.7779 45.4877 33.9189C45.6534 32.9856 45.8187 32.0727 45.9833 31.1819C47.9898 20.3249 47.2019 15.1034 42.9116 5.58905C42.7499 5.23058 42.3932 5.00012 42 5.00012ZM44.0166 30.8184C43.8511 31.7139 43.685 32.6314 43.5185 33.5693C42.6522 38.4474 41.8088 43.6719 41.0217 48.8961C40.7462 50.7244 40.4974 52.4221 40.2795 53.9459C40.2032 54.4795 40.1362 54.9532 40.0791 55.3617C39.9832 55.4741 39.8807 55.536 39.7635 55.6041C39.1989 55.9319 38.5276 56.262 37.7536 56.5716C35.5239 57.4635 32.9303 58.0001 30 58.0001C27.0697 58.0001 24.476 57.4635 22.2464 56.5716C21.4723 56.262 20.801 55.9319 20.2365 55.6041C20.1193 55.536 20.0167 55.4741 19.9289 55.4194C19.8637 54.9532 19.7967 54.4795 19.7204 53.9459C19.5025 52.4221 19.2538 50.7244 18.9783 48.8961C18.1911 43.6719 17.3477 38.4474 16.4815 33.5693C16.3149 32.6314 16.1488 31.7139 15.9833 30.8184C14.0967 20.6098 14.751 15.7819 18.6481 7.00012H27.37C28.0906 7.63608 29.0152 8.00012 30 8.00012C30.9847 8.00012 31.9093 7.63608 32.6299 7.00012H41.3519C45.249 15.7819 45.9033 20.6098 44.0166 30.8184Z" fill="currentColor"/>
  <path fill-rule="evenodd" clip-rule="evenodd" d="M39.4645 57.1821L35.9855 36.8321C35.792 35.7 34.1546 35.7338 34.008 36.873L31.19 58.767C31.1083 59.4021 31.6362 59.9493 32.2738 59.8904C34.7508 59.6616 36.9594 59.0826 38.8698 58.271C39.2965 58.0897 39.5427 57.639 39.4645 57.1821ZM33.3376 57.7483L35.1393 43.7506L37.3568 56.7218C36.1412 57.1762 34.7988 57.5296 33.3376 57.7483Z" fill="currentColor"/>
  </svg>
  