<svg width="60" height="60" viewBox="0 0 60 60" fill="none" xmlns="http://www.w3.org/2000/svg">
  <path fill-rule="evenodd" clip-rule="evenodd" d="M32.0003 -3.05176e-05H28.0003C27.5414 -3.05176e-05 27.1414 0.312267 27.0301 0.757434C26.9984 0.884266 26.9224 1.1326 26.7975 1.4603C26.5874 2.0119 26.3197 2.56316 25.9929 3.07146C25.3583 4.0586 24.5879 4.75 23.684 5.05129C23.1649 5.22431 22.8813 5.7824 23.0475 6.30371C23.2784 7.02796 23.7602 8.06254 24.5516 9.10475C25.912 10.8961 27.723 12 30.0003 12C32.2775 12 34.0885 10.8961 35.4489 9.10475C36.2403 8.06254 36.7221 7.02796 36.953 6.30371C37.1192 5.7824 36.8356 5.22431 36.3165 5.05129C35.4126 4.75 34.6422 4.0586 34.0076 3.07146C33.6809 2.56316 33.4131 2.0119 33.203 1.4603C33.0781 1.1326 33.0021 0.884266 32.9704 0.757434C32.8591 0.312267 32.4591 -3.05176e-05 32.0003 -3.05176e-05ZM32.3253 4.15297C32.9735 5.16128 33.7603 5.97287 34.7036 6.51046C34.4718 6.98477 34.1895 7.45618 33.8561 7.89519C32.8433 9.22883 31.5782 9.99997 30.0003 9.99997C28.4223 9.99997 27.1572 9.22883 26.1444 7.89519C25.811 7.45618 25.5287 6.98477 25.2969 6.51046C26.2402 5.97287 27.0271 5.16128 27.6753 4.15297C28.1633 3.39381 28.5101 2.64063 28.7387 1.99997H31.2618C31.4904 2.64063 31.8372 3.39381 32.3253 4.15297Z" fill="currentColor"/>
  <path fill-rule="evenodd" clip-rule="evenodd" d="M29 28V24H31V28H29ZM31 30C32.1043 30 33 29.1043 33 28V24C33 22.8957 32.1043 22 31 22H29C27.8957 22 27 22.8957 27 24V28C27 29.1043 27.8957 30 29 30H31Z" fill="currentColor"/>
  <path fill-rule="evenodd" clip-rule="evenodd" d="M37 24.8617C38.1138 24.5346 38.9141 23.6492 39.4291 22.4312C39.789 21.5797 39.9501 20.7497 39.9968 20.1627L40 19.8413C40 18.8228 39.9686 18.0131 39.8748 16.1929C39.8638 15.9803 39.8638 15.9803 39.853 15.7682C39.7063 12.8832 39.7058 11.3317 39.9275 9.64563C40.2371 7.28586 38.9268 6.00655 36.3437 5.06118C35.8095 4.86567 35.22 5.15455 35.0472 5.69652C35.0097 5.81444 34.9202 6.04878 34.7756 6.35937C34.5311 6.88443 34.2247 7.40978 33.8559 7.89548C32.8431 9.22912 31.578 10.0003 30 10.0003C28.422 10.0003 27.1569 9.22912 26.1441 7.89548C25.7753 7.40978 25.4689 6.88443 25.2244 6.35937C25.0798 6.04878 24.9903 5.81444 24.9528 5.69652C24.78 5.15455 24.1905 4.86567 23.6563 5.06118C21.0732 6.00655 19.7629 7.28586 20.0725 9.64536C20.2942 11.3317 20.2937 12.8832 20.147 15.7682C20.1362 15.9803 20.1362 15.9803 20.1252 16.1929C20.0314 18.0131 20 18.8228 20 19.8413V20.0833C20.0501 20.7499 20.2113 21.5799 20.5714 22.4313C21.0864 23.6492 21.8866 24.5345 23 24.8617V27.5593C22.853 27.7117 22.6891 27.9014 22.5121 28.1322C21.9347 28.8851 21.3693 29.8912 20.85 31.1853C20.0374 33.2105 19.4033 35.78 19.0077 38.9598C18.516 42.9114 18.0361 46.5674 17.5874 49.8381C17.4304 50.9825 17.2886 51.997 17.1643 52.8701C17.0898 53.3935 17.0377 53.7532 17.0106 53.938C16.9792 54.1518 17.0179 54.3701 17.121 54.56C17.5274 55.3093 18.4246 56.3541 19.9432 57.3723C22.4022 59.021 25.7213 60.0003 30 60.0003C34.2787 60.0003 37.5978 59.021 40.0568 57.3723C41.5754 56.3541 42.4726 55.3093 42.879 54.56C42.9821 54.3701 43.0208 54.1518 42.9894 53.938C42.9623 53.7532 42.9102 53.3935 42.8357 52.8701C42.7114 51.997 42.5696 50.9825 42.4126 49.8381C41.9639 46.5674 41.484 42.9114 40.9923 38.9598C40.5967 35.78 39.9626 33.2105 39.15 31.1853C38.6307 29.8912 38.0653 28.8851 37.4879 28.1322C37.3109 27.9014 37.147 27.7117 37 27.5593V24.8617ZM40.6788 54.2C40.2415 54.7093 39.6681 55.225 38.943 55.7112C36.8185 57.1356 33.8877 58.0003 30 58.0003C26.1123 58.0003 23.1815 57.1356 21.057 55.7112C20.3319 55.225 19.7585 54.7093 19.3212 54.2C19.2067 54.0667 19.1147 53.9502 19.0437 53.8541C19.0732 53.6498 19.1068 53.4154 19.1443 53.152C19.2691 52.2755 19.4114 51.2578 19.5688 50.1099C20.0186 46.8312 20.4996 43.1669 20.9923 39.2067C21.3675 36.1912 21.9606 33.7884 22.7062 31.9301C23.159 30.8014 23.6351 29.9544 24.0992 29.3492C24.2513 29.1509 24.3873 28.9983 24.5033 28.8865C24.5583 28.8334 24.5849 28.8114 24.5789 28.8157C24.8431 28.6281 25 28.3242 25 28.0003V24.0003C25 23.448 24.5523 23.0003 24 23.0003C23.2962 23.0003 22.7907 22.5444 22.4134 21.6523C22.2619 21.2941 22.1494 20.9001 22.0725 20.5046C22.0267 20.2687 22.0038 20.0909 21.9968 20.0036L22 19.8413C22 18.8687 22.0305 18.0817 22.1226 16.2959C22.1335 16.0831 22.1335 16.0831 22.1444 15.8697C22.297 12.8694 22.2976 11.226 22.0555 9.38489C21.9311 8.43709 22.327 7.8509 23.4516 7.30919C23.7159 7.862 24.0783 8.48216 24.5514 9.10504C25.9117 10.8964 27.7227 12.0003 30 12.0003C32.2773 12.0003 34.0883 10.8964 35.4486 9.10504C35.9217 8.48216 36.2841 7.862 36.5484 7.30919C37.673 7.85091 38.0689 8.43714 37.9445 9.38515C37.7024 11.226 37.703 12.8694 37.8556 15.8697C37.8665 16.0831 37.8665 16.0831 37.8774 16.2959C37.9695 18.0817 38 18.8687 38 19.8413V20.0833C37.9962 20.0911 37.9733 20.2689 37.9276 20.5048C37.8508 20.9002 37.7383 21.2942 37.5869 21.6524C37.2098 22.5445 36.7043 23.0003 36 23.0003C35.4477 23.0003 35 23.448 35 24.0003V28.0003C35 28.3242 35.157 28.6281 35.4211 28.8157C35.4151 28.8114 35.4417 28.8334 35.4967 28.8865C35.6127 28.9983 35.7487 29.1509 35.9008 29.3492C36.3649 29.9544 36.841 30.8014 37.2938 31.9301C38.0394 33.7884 38.6325 36.1912 39.0077 39.2067C39.5004 43.1669 39.9814 46.8312 40.4312 50.1099C40.5886 51.2578 40.7309 52.2755 40.8557 53.152C40.8932 53.4154 40.9268 53.6498 40.9563 53.8541C40.8853 53.9502 40.7933 54.0667 40.6788 54.2Z" fill="currentColor"/>
  <path fill-rule="evenodd" clip-rule="evenodd" d="M24 29.0002H28C28.5523 29.0002 29 28.5525 29 28.0002V24.0002C29 23.4479 28.5523 23.0002 28 23.0002H24C23.4477 23.0002 23 23.4479 23 24.0002V28.0002C23 28.5525 23.4477 29.0002 24 29.0002ZM25 27.0002V25.0002H27V27.0002H25Z" fill="currentColor"/>
  <path fill-rule="evenodd" clip-rule="evenodd" d="M32 29.0002H36C36.5523 29.0002 37 28.5525 37 28.0002V24.0002C37 23.4479 36.5523 23.0002 36 23.0002H32C31.4477 23.0002 31 23.4479 31 24.0002V28.0002C31 28.5525 31.4477 29.0002 32 29.0002ZM33 25.0002H35V27.0002H33V25.0002Z" fill="currentColor"/>
  </svg>
  