<svg width="60" height="60" viewBox="0 0 60 60" fill="none" xmlns="http://www.w3.org/2000/svg">
  <path fill-rule="evenodd" clip-rule="evenodd" d="M31.9985 0.000366211H27.9985C27.5896 0.000366211 27.2219 0.249317 27.07 0.628976C27.0023 0.798393 26.8639 1.1119 26.6612 1.52031C26.322 2.20387 25.9303 2.88703 25.4946 3.51948C24.5859 4.83862 23.618 5.73979 22.6823 6.05168C22.0617 6.25853 21.8036 6.99565 22.1595 7.54447C22.5341 8.12208 23.2198 8.94615 24.2059 9.76839C25.8712 11.1571 27.8115 12.0004 29.9985 12.0004C32.1856 12.0004 34.1258 11.1571 35.7912 9.76839C36.7773 8.94615 37.463 8.12208 37.8375 7.54447C38.1935 6.99565 37.9353 6.25853 37.3148 6.05168C36.3791 5.73979 35.4112 4.83862 34.5024 3.51948C34.0667 2.88703 33.6751 2.20387 33.3358 1.52031C33.1331 1.1119 32.9948 0.798393 32.927 0.628976C32.7751 0.249317 32.4074 0.000366211 31.9985 0.000366211ZM31.5443 2.40943C31.9231 3.17263 32.3609 3.93623 32.8554 4.65409C33.6501 5.80773 34.5076 6.72943 35.4442 7.34184C35.1645 7.64629 34.8526 7.94699 34.5104 8.23234C33.1776 9.34367 31.6667 10.0004 29.9985 10.0004C28.3303 10.0004 26.8195 9.34367 25.4867 8.23234C25.1445 7.94699 24.8325 7.64629 24.5528 7.34184C25.4895 6.72943 26.3469 5.80773 27.1416 4.65409C27.6362 3.93623 28.074 3.17263 28.4527 2.40943C28.5256 2.26256 28.5915 2.12569 28.6503 2.00037H31.3468C31.4055 2.12569 31.4714 2.26256 31.5443 2.40943Z" fill="currentColor" />
  <path fill-rule="evenodd" clip-rule="evenodd" d="M29 29.0004V25.0004H31V29.0004H29ZM31 31.0004C32.1043 31.0004 33 30.1047 33 29.0004V25.0004C33 23.8961 32.1043 23.0004 31 23.0004H29C27.8957 23.0004 27 23.8961 27 25.0004V29.0004C27 30.1047 27.8957 31.0004 29 31.0004H31Z" fill="currentColor" />
  <path fill-rule="evenodd" clip-rule="evenodd" d="M21.9029 30.0004H27.9989C28.5512 30.0004 28.9989 29.5527 28.9989 29.0004V25.0004C28.9989 24.4481 28.5512 24.0004 27.9989 24.0004H21.8089C21.1822 24.0004 20.71 24.5701 20.8263 25.1859C21.0554 26.3994 21.084 27.632 20.9125 28.8623C20.8286 29.4637 21.2957 30.0004 21.9029 30.0004ZM22.9607 26.0004H26.9989V28.0004H23.0033C23.0394 27.3324 23.0252 26.6647 22.9607 26.0004Z" fill="currentColor" />
  <path fill-rule="evenodd" clip-rule="evenodd" d="M38.191 24.0004H32C31.4477 24.0004 31 24.4481 31 25.0004V29.0004C31 29.5527 31.4477 30.0004 32 30.0004H38.097C38.7042 30.0004 39.1713 29.4637 39.0874 28.8623C38.9156 27.6298 38.9439 26.3975 39.1735 25.1866C39.2903 24.5706 38.818 24.0004 38.191 24.0004ZM36.9964 28.0004H33V26.0004H37.0387C36.9743 26.6643 36.9602 27.3319 36.9964 28.0004Z" fill="currentColor" />
  <path fill-rule="evenodd" clip-rule="evenodd" d="M40.8305 21.0009C41.5164 19.8283 43.6669 16.9324 43.8287 16.678C44.5922 15.4768 44.9716 14.3753 44.9992 13.0202C45.0877 8.69407 41.4355 6.58869 37.133 6.00883C36.7496 5.95717 36.3709 6.13123 36.1604 6.45577C36.0999 6.54904 35.9639 6.73608 35.7566 6.98526C35.4034 7.40968 34.9865 7.83556 34.5112 8.23185C33.1785 9.34318 31.6676 9.99987 29.9994 9.99987C28.3312 9.99987 26.8203 9.34318 25.4876 8.23185C25.0123 7.83556 24.5954 7.40968 24.2423 6.98526C24.0349 6.73608 23.8989 6.54904 23.8384 6.45577C23.628 6.13123 23.2492 5.95717 22.8659 6.00883C18.5633 6.58869 14.9111 8.69407 14.9996 13.0203C15.0272 14.3753 15.4066 15.4768 16.1702 16.678C16.3319 16.9324 18.4825 19.8283 19.1683 21.0009C19.4402 21.4656 19.6959 21.9459 19.9387 22.4523C21.4511 25.6071 21.378 29.1588 19.8138 32.5834C18.6545 35.1245 17.9994 39.1751 17.9994 43.9999C18.0083 44.1698 18.0211 44.3671 18.0393 44.6434C18.0695 45.1037 18.1036 45.6166 18.1408 46.1689C18.247 47.747 18.3568 49.3252 18.4644 50.7986C18.5033 51.3326 18.5414 51.8439 18.5784 52.3298C18.7581 54.6926 18.9041 56.3528 19.0082 57.1323C19.0533 57.4701 19.2674 57.7616 19.5761 57.9059C19.7311 57.9783 20.0096 58.097 20.4007 58.2465C21.0419 58.4915 21.7736 58.7355 22.5851 58.9628C24.8994 59.611 27.3995 59.9999 29.9994 59.9999C32.5993 59.9999 35.0994 59.611 37.4138 58.9628C38.2252 58.7355 38.9569 58.4915 39.5981 58.2465C39.9892 58.097 40.2677 57.9783 40.4227 57.9059C40.7316 57.7616 40.9457 57.4698 40.9907 57.1319C41.0947 56.3509 41.2409 54.685 41.4212 52.3142C41.4578 51.833 41.4955 51.3269 41.534 50.7987C41.6416 49.3253 41.7516 47.7471 41.8579 46.169C41.8951 45.6167 41.9292 45.1038 41.9595 44.6435C41.9777 44.3672 41.9905 44.1699 41.9973 44.0643C41.9994 39.1751 41.3444 35.1245 40.1852 32.5838C38.6209 29.1588 38.5477 25.6071 40.0602 22.4522C40.3029 21.9459 40.5587 21.4656 40.8305 21.0009ZM38.8842 56.3782C38.2986 56.602 37.6248 56.8267 36.8743 57.0369C34.7258 57.6387 32.4037 57.9999 29.9994 57.9999C27.5952 57.9999 25.273 57.6387 23.1245 57.0369C22.374 56.8267 21.7002 56.602 21.1146 56.3782C21.0471 56.3524 20.9838 56.3279 20.9248 56.3046C20.8327 55.4361 20.7128 54.021 20.5726 52.1781C20.5358 51.6943 20.4979 51.185 20.4591 50.653C20.3518 49.1838 20.2422 47.6092 20.1362 46.0346C20.0991 45.4834 20.0651 44.9716 20.035 44.5123C20.0169 44.2369 20.0041 44.0401 19.9973 43.9355C19.9994 39.4369 20.6111 35.6541 21.6332 33.414C23.4352 29.4687 23.5211 25.2983 21.7422 21.5876C21.4753 21.0311 21.1938 20.5025 20.8947 19.9912C20.1402 18.7012 17.9596 15.7648 17.858 15.605C17.2789 14.6941 17.0187 13.9386 16.9992 12.9795C16.943 10.2308 19.4224 8.64008 22.5484 8.08226C22.9429 8.58338 23.497 9.17611 24.2067 9.7679C25.8721 11.1566 27.8123 11.9999 29.9994 11.9999C32.1865 11.9999 34.1267 11.1566 35.7921 9.7679C36.5018 9.17611 37.0559 8.58338 37.4504 8.08226C40.5764 8.64008 43.0559 10.2308 42.9996 12.9794C42.9801 13.9386 42.7199 14.6941 42.1408 15.605C42.0392 15.7648 39.8586 18.7012 39.1041 19.9912C38.805 20.5025 38.5236 21.0311 38.2567 21.5875C36.4778 25.2983 36.5637 29.4687 38.3658 33.4143C39.3877 35.6541 39.9994 39.4369 39.9994 43.9999C39.9947 44.04 39.9819 44.2368 39.9638 44.5123C39.9336 44.9715 39.8996 45.4833 39.8624 46.0345C39.7563 47.6092 39.6467 49.1838 39.5394 50.653C39.5009 51.1793 39.4634 51.6834 39.427 52.1626C39.2863 54.013 39.166 55.4336 39.0738 56.3047C39.0149 56.3279 38.9517 56.3525 38.8842 56.3782Z" fill="currentColor" />
</svg>
  