<svg width="60" height="60" viewBox="0 0 60 60" fill="none" xmlns="http://www.w3.org/2000/svg">
  <path fill-rule="evenodd" clip-rule="evenodd" d="M7.91696 1.9966C8.20729 2.02081 8.74707 2.22666 9.31855 2.78518C11.1704 4.59504 11.7533 8.63834 10.0281 15.7648C9.89819 16.3015 10.228 16.842 10.7648 16.972C11.3016 17.1019 11.842 16.7721 11.972 16.2353C13.8464 8.4922 13.1621 3.74501 10.7165 1.35484C9.77485 0.434598 8.80155 0.0634172 8.08315 0.0035141C7.53278 -0.0423787 7.04941 0.366585 7.00351 0.916959C6.95762 1.46733 7.36658 1.9507 7.91696 1.9966Z" fill="currentColor" />
  <path fill-rule="evenodd" clip-rule="evenodd" d="M12.2929 29.7072C12.6471 30.0614 13.3659 30.5153 14.5333 30.9399C16.367 31.6067 18.8257 32.0001 22 32.0001C22.5523 32.0001 23 31.5523 23 31.0001C23 30.4478 22.5523 30.0001 22 30.0001C19.0493 30.0001 16.8205 29.6435 15.2167 29.0603C14.3216 28.7348 13.8529 28.4387 13.7071 28.293C13.3166 27.9024 12.6834 27.9024 12.2929 28.293C11.9024 28.6835 11.9024 29.3166 12.2929 29.7072Z" fill="currentColor" />
  <path fill-rule="evenodd" clip-rule="evenodd" d="M29.7068 19.3161C28.8854 18.5757 27.9355 17.837 26.8664 17.1475C22.0332 14.0303 16.5249 12.9266 10.6569 15.0605C10.4164 15.1479 10.2186 15.3242 10.1042 15.553C9.93767 15.886 9.70293 16.4599 9.47199 17.2297C8.55166 20.2976 8.55204 23.5842 10.1059 26.6899C10.5832 27.644 11.2002 28.5524 11.9638 29.4074C12.7554 30.2936 13.272 31.4333 13.4619 32.6853C14.9241 42.3235 14.3335 52.4922 10.1794 58.4268C9.71542 59.0896 10.1896 60.0003 10.9986 60.0003H48.9986C49.8076 60.0003 50.2817 59.0897 49.8179 58.4269C45.6645 52.4922 45.0742 42.3233 46.5363 32.6852C46.7262 31.4333 47.2428 30.2936 48.0344 29.4075C48.798 28.5524 49.4149 27.644 49.8923 26.6899C51.4459 23.5842 51.4461 20.2978 50.5255 17.23C50.2944 16.46 50.0596 15.886 49.893 15.5529C49.7785 15.3241 49.5808 15.1479 49.3403 15.0605C43.4723 12.9266 37.964 14.0303 33.1308 17.1475C32.0616 17.837 31.1118 18.5757 30.2904 19.3161C30.1867 19.4096 30.0894 19.4991 29.9986 19.584C29.9078 19.4991 29.8105 19.4096 29.7068 19.3161ZM47.1973 58.0003H12.8001C16.4414 51.4546 16.8556 41.7211 15.4393 32.3853C15.1925 30.7586 14.5126 29.2586 13.4554 28.0751C12.8097 27.3521 12.2926 26.5908 11.8945 25.795C10.6013 23.2102 10.6009 20.4268 11.3876 17.8044C11.5001 17.4297 11.6198 17.0931 11.7388 16.8005C16.8007 15.0961 21.5437 16.0945 25.7824 18.8282C26.7567 19.4566 27.6225 20.13 28.3677 20.8017C28.6266 21.035 28.8512 21.2506 29.0399 21.4425C29.1494 21.5539 29.2203 21.6298 29.2512 21.6646C29.649 22.1121 30.3482 22.1121 30.746 21.6646C30.7769 21.6298 30.8478 21.5539 30.9573 21.4425C31.146 21.2506 31.3706 21.035 31.6295 20.8017C32.3747 20.13 33.2405 19.4566 34.2148 18.8282C38.4535 16.0945 43.1966 15.0961 48.2585 16.8006C48.3775 17.0932 48.4974 17.4299 48.6099 17.8048C49.3968 20.4272 49.3967 23.2104 48.1036 25.7951C47.7055 26.5908 47.1885 27.3521 46.5428 28.0751C45.4856 29.2586 44.8057 30.7586 44.5589 32.3853C43.1427 41.7209 43.5566 51.4546 47.1973 58.0003Z" fill="currentColor" />
  <path fill-rule="evenodd" clip-rule="evenodd" d="M51.9168 0.0035141C51.1984 0.0634172 50.2251 0.434598 49.2835 1.35484C46.8378 3.74501 46.1535 8.4922 48.0279 16.2353C48.1579 16.7721 48.6984 17.1019 49.2351 16.972C49.7719 16.842 50.1017 16.3015 49.9718 15.7648C48.2466 8.63834 48.8295 4.59504 50.6814 2.78518C51.2528 2.22666 51.7926 2.02081 52.0829 1.9966C52.6333 1.9507 53.0423 1.46733 52.9964 0.916959C52.9505 0.366585 52.4671 -0.0423787 51.9168 0.0035141Z" fill="currentColor" />
  <path fill-rule="evenodd" clip-rule="evenodd" d="M46.2929 28.293C46.1471 28.4387 45.6784 28.7348 44.7833 29.0603C43.1795 29.6435 40.9507 30.0001 38 30.0001C37.4477 30.0001 37 30.4478 37 31.0001C37 31.5523 37.4477 32.0001 38 32.0001C41.1743 32.0001 43.633 31.6067 45.4667 30.9399C46.6341 30.5153 47.3529 30.0614 47.7071 29.7072C48.0976 29.3166 48.0976 28.6835 47.7071 28.293C47.3166 27.9024 46.6834 27.9024 46.2929 28.293Z" fill="currentColor" />
  <path fill-rule="evenodd" clip-rule="evenodd" d="M29 21.0001C29 22.1058 28.1057 23.0001 27 23.0001C26.4477 23.0001 26 23.4478 26 24.0001C26 24.5523 26.4477 25.0001 27 25.0001C29.2103 25.0001 31 23.2103 31 21.0001C31 20.4478 30.5523 20.0001 30 20.0001C29.4477 20.0001 29 20.4478 29 21.0001Z" fill="currentColor" />
  <path fill-rule="evenodd" clip-rule="evenodd" d="M29 21.0001C29 23.2103 30.7897 25.0001 33 25.0001C33.5523 25.0001 34 24.5523 34 24.0001C34 23.4478 33.5523 23.0001 33 23.0001C31.8943 23.0001 31 22.1058 31 21.0001C31 20.4478 30.5523 20.0001 30 20.0001C29.4477 20.0001 29 20.4478 29 21.0001Z" fill="currentColor" />
</svg>
  