<svg width="60" height="60" viewBox="0 0 60 60" fill="none" xmlns="http://www.w3.org/2000/svg">
  <path fill-rule="evenodd" clip-rule="evenodd" d="M12.5548 44.3322C16.3267 41.8176 20.0001 36.4744 20.0001 32.5001C20.0001 31.9479 19.5524 31.5001 19.0001 31.5001C18.4478 31.5001 18.0001 31.9479 18.0001 32.5001C18.0001 35.7077 14.712 40.4904 11.4454 42.6681C10.9859 42.9744 10.8617 43.5953 11.1681 44.0548C11.4744 44.5144 12.0953 44.6385 12.5548 44.3322Z" fill="currentColor" />
  <path fill-rule="evenodd" clip-rule="evenodd" d="M48.5547 42.6681C45.2881 40.4904 42 35.7077 42 32.5001C42 31.9479 41.5523 31.5001 41 31.5001C40.4477 31.5001 40 31.9479 40 32.5001C40 36.4744 43.6734 41.8176 47.4453 44.3322C47.9048 44.6385 48.5257 44.5144 48.8321 44.0548C49.1384 43.5953 49.0142 42.9744 48.5547 42.6681Z" fill="currentColor" />
  <path fill-rule="evenodd" clip-rule="evenodd" d="M26.9704 46.7424C27.0294 46.5062 27.0932 46.2684 27.1692 45.9982C27.1818 45.9537 27.4758 44.9351 27.5555 44.6385C27.8584 43.5117 28.0002 42.6037 28.0002 41.5001C28.0002 40.9479 27.5525 40.5001 27.0002 40.5001C26.448 40.5001 26.0002 40.9479 26.0002 41.5001C26.0002 42.4101 25.8846 43.1499 25.6241 44.1194C25.5501 44.3948 25.261 45.3961 25.244 45.4564C25.163 45.7443 25.0943 46.0006 25.03 46.2579C24.8962 46.7937 25.2221 47.3365 25.758 47.4703C26.2938 47.6042 26.8366 47.2782 26.9704 46.7424Z" fill="currentColor" />
  <path fill-rule="evenodd" clip-rule="evenodd" d="M34.9702 46.2579C34.906 46.0006 34.8372 45.7443 34.7562 45.4564C34.7392 45.3961 34.4502 44.3948 34.3762 44.1194C34.1156 43.1499 34 42.4101 34 41.5001C34 40.9479 33.5523 40.5001 33 40.5001C32.4477 40.5001 32 40.9479 32 41.5001C32 42.6037 32.1419 43.5117 32.4447 44.6385C32.5244 44.9351 32.8185 45.9537 32.831 45.9982C32.907 46.2684 32.9708 46.5062 33.0298 46.7424C33.1636 47.2782 33.7065 47.6042 34.2423 47.4703C34.7781 47.3365 35.104 46.7937 34.9702 46.2579Z" fill="currentColor" />
  <path fill-rule="evenodd" clip-rule="evenodd" d="M31 16.5001H29C27.8953 16.5001 27 15.6049 27 14.5001C27 13.3954 27.8953 12.5001 29 12.5001H31C32.1047 12.5001 33 13.3954 33 14.5001C33 15.6049 32.1047 16.5001 31 16.5001ZM31 18.5001C33.2093 18.5001 35 16.7094 35 14.5001C35 12.2909 33.2093 10.5001 31 10.5001H29C26.7907 10.5001 25 12.2909 25 14.5001C25 16.7094 26.7907 18.5001 29 18.5001H31Z" fill="currentColor" />
  <path fill-rule="evenodd" clip-rule="evenodd" d="M27 14.5001C27 14.0073 27.186 13.5427 27.5222 13.1693C28.1015 12.5258 27.6449 11.5001 26.779 11.5001H17C16.4477 11.5001 16 11.9479 16 12.5001V16.5001C16 17.0524 16.4477 17.5001 17 17.5001H26.779C27.6449 17.5001 28.1015 16.4745 27.5222 15.831C27.186 15.4576 27 14.993 27 14.5001ZM18 15.5001V13.5001H25.129C25.0442 13.8226 25 14.1578 25 14.5001C25 14.8424 25.0442 15.1777 25.129 15.5001H18Z" fill="currentColor" />
  <path fill-rule="evenodd" clip-rule="evenodd" d="M32.4776 13.1693C32.8138 13.5427 32.9997 14.0073 32.9997 14.5001C32.9997 14.993 32.8138 15.4576 32.4776 15.831C31.8982 16.4745 32.3548 17.5001 33.2207 17.5001H42.9997C43.552 17.5001 43.9997 17.0524 43.9997 16.5001V12.5001C43.9997 11.9479 43.552 11.5001 42.9997 11.5001H33.2207C32.3548 11.5001 31.8982 12.5258 32.4776 13.1693ZM41.9997 13.5001V15.5001H34.8708C34.9555 15.1777 34.9997 14.8424 34.9997 14.5001C34.9997 14.1578 34.9555 13.8226 34.8708 13.5001H41.9997Z" fill="currentColor" />
  <path fill-rule="evenodd" clip-rule="evenodd" d="M11.8745 44.8331C12.3658 45.3632 12.8909 45.8467 13.5181 46.3089C16.536 48.5329 20.5172 49.2542 25.6133 47.6784C25.787 47.8751 25.9982 48.0794 26.2502 48.281C27.2058 49.0454 28.4562 49.5001 29.9999 49.5001C31.5436 49.5001 32.7941 49.0454 33.7496 48.281C34.0016 48.0794 34.2128 47.8751 34.3865 47.6784C39.4826 49.2542 43.4638 48.5329 46.4818 46.3089C47.1089 45.8467 47.6341 45.3632 48.1253 44.8331C48.1605 44.7951 48.1944 44.7581 48.2282 44.7209C51.422 46.1409 54.3318 45.691 56.7567 43.873C58.4839 42.578 60.023 40.3662 59.9996 39.4739C59.9916 39.1685 59.8444 38.8835 59.5999 38.7001C56.5418 36.4065 53.5556 32.8819 50.6553 28.402C49.1991 26.1528 47.8289 23.7651 46.4776 21.1902C45.9722 20.2272 45.4943 19.2862 44.9711 18.2324C44.7742 17.8358 44.047 16.3583 43.8943 16.0529C43.725 15.7141 43.3787 15.5001 42.9999 15.5001H33.2209C32.9377 15.5001 32.6678 15.6202 32.4782 15.8306C32.0945 16.2562 31.567 16.5001 30.9999 16.5001H28.9999C28.4328 16.5001 27.9054 16.2562 27.5217 15.8306C27.332 15.6202 27.0621 15.5001 26.7789 15.5001H16.9999C16.6211 15.5001 16.2749 15.7141 16.1055 16.0529C15.9528 16.3583 15.2256 17.8358 15.0287 18.2324C14.5055 19.2862 14.0276 20.2272 13.5222 21.1902C12.1709 23.7651 10.8007 26.1528 9.34457 28.402C6.44423 32.8819 3.45805 36.4065 0.39992 38.7001C0.15548 38.8835 0.0082687 39.1685 0.00026308 39.4739C-0.0231217 40.3662 1.51592 42.578 3.24317 43.873C5.66803 45.691 8.57787 46.1409 11.7717 44.7209C11.8054 44.7581 11.8393 44.7951 11.8745 44.8331ZM43.1797 19.1218C43.7091 20.188 44.1936 21.1419 44.7067 22.1196C46.0843 24.7447 47.4839 27.1835 48.9764 29.4889C51.7988 33.8484 54.718 37.3604 57.7666 39.8084C57.6783 39.9575 57.5752 40.1182 57.4603 40.2833C56.9499 41.0169 56.2994 41.7161 55.5569 42.2728C53.5524 43.7756 51.2181 44.0545 48.4633 42.614C48.2149 42.4841 47.9235 42.4644 47.6599 42.5597C47.4456 42.6372 46.0519 44.1413 45.2953 44.6989C42.6621 46.6394 39.1366 47.2104 34.3253 45.5546C33.8513 45.3914 33.3297 45.6045 33.1055 46.0529C33.0408 46.1824 32.8449 46.4435 32.5002 46.7193C31.8933 47.2048 31.0812 47.5001 29.9999 47.5001C28.9186 47.5001 28.1066 47.2048 27.4996 46.7193C27.1549 46.4435 26.9591 46.1824 26.8943 46.0529C26.6701 45.6045 26.1485 45.3914 25.6745 45.5546C20.8633 47.2104 17.3378 46.6394 14.7046 44.6989C13.9479 44.1413 12.5542 42.6372 12.3399 42.5597C12.0763 42.4644 11.7849 42.4841 11.5365 42.614C8.78172 44.0545 6.4474 43.7756 4.44292 42.2728C3.7004 41.7161 3.04999 41.0169 2.53952 40.2833C2.42468 40.1182 2.3215 39.9575 2.23327 39.8084C5.28183 37.3604 8.20101 33.8484 11.0234 29.4889C12.516 27.1835 13.9155 24.7447 15.2932 22.1196C15.8063 21.1419 16.2907 20.188 16.8201 19.1218C16.9575 18.845 17.3444 18.0597 17.6207 17.5001H26.37C27.0906 18.1361 28.0152 18.5001 28.9999 18.5001H30.9999C31.9846 18.5001 32.9093 18.1361 33.6298 17.5001H42.3792C42.6555 18.0597 43.0423 18.845 43.1797 19.1218Z" fill="currentColor" />
</svg>
  