<svg width="64" height="34" viewBox="0 0 64 34" fill="none" xmlns="http://www.w3.org/2000/svg">
<path d="M54.0654 34C53.0051 34.0008 51.9683 33.6871 51.0863 33.0985C50.2043 32.51 49.5166 31.6731 49.1103 30.6937C48.704 29.7143 48.5973 28.6364 48.8037 27.5963C49.0101 26.5562 49.5203 25.6007 50.2698 24.8507C51.0193 24.1006 51.9744 23.5897 53.0143 23.3826C54.0543 23.1754 55.1322 23.2814 56.1119 23.687C57.0917 24.0926 57.9291 24.7796 58.5182 25.6612C59.1074 26.5428 59.4219 27.5793 59.4219 28.6397C59.4212 30.0604 58.8568 31.4229 57.8525 32.4279C56.8482 33.4329 55.4862 33.9983 54.0654 34ZM54.0654 25.2347C53.3918 25.2339 52.7331 25.4329 52.1727 25.8066C51.6122 26.1803 51.1752 26.7118 50.9169 27.3339C50.6586 27.956 50.5906 28.6408 50.7215 29.3015C50.8524 29.9623 51.1764 30.5694 51.6525 31.046C52.1285 31.5225 52.7352 31.8472 53.3958 31.9789C54.0564 32.1106 54.7413 32.0434 55.3637 31.7858C55.9861 31.5282 56.5181 31.0918 56.8924 30.5318C57.2667 29.9717 57.4665 29.3133 57.4665 28.6397C57.4662 27.7374 57.1079 26.8721 56.4702 26.2337C55.8326 25.5954 54.9677 25.2361 54.0654 25.2347Z" fill="black"/>
<path d="M25.7337 34C24.643 34.001 23.5765 33.6875 22.6691 33.0992C21.7617 32.5108 21.0542 31.674 20.6361 30.6946C20.218 29.7152 20.108 28.6373 20.3201 27.5971C20.5323 26.557 21.057 25.6013 21.8278 24.8512C22.5987 24.101 23.5811 23.5899 24.6508 23.3827C25.7204 23.1754 26.8293 23.2813 27.837 23.6868C28.8448 24.0924 29.7062 24.7794 30.3123 25.6611C30.9184 26.5427 31.2419 27.5793 31.2419 28.6397C31.2408 30.0601 30.6603 31.4221 29.6277 32.427C28.5951 33.4319 27.1947 33.9976 25.7337 34ZM25.7337 25.2347C25.0408 25.2336 24.3632 25.4325 23.7865 25.806C23.2099 26.1795 22.7601 26.7109 22.4942 27.333C22.2283 27.9551 22.1582 28.6399 22.2927 29.3007C22.4273 29.9616 22.7604 30.5688 23.25 31.0455C23.7396 31.5222 24.3636 31.847 25.0431 31.9788C25.7226 32.1106 26.4271 32.0435 27.0674 31.7859C27.7076 31.5284 28.2549 31.092 28.64 30.5319C29.0251 29.9718 29.2306 29.3133 29.2306 28.6397C29.2299 27.7377 28.8614 26.8728 28.2059 26.2346C27.5505 25.5963 26.6614 25.2367 25.7337 25.2347Z" fill="black"/>
<path d="M61.3859 29.7073H58.6546C58.3898 29.7073 58.1357 29.603 57.9484 29.4172C57.7611 29.2314 57.6559 28.9794 57.6559 28.7166C57.6559 28.4539 57.7611 28.2019 57.9484 28.0161C58.1357 27.8303 58.3898 27.7259 58.6546 27.7259H61.1036V22.4725C61.1029 21.7623 60.9196 21.0639 60.5709 20.4435L55.1643 10.8284C55.1182 10.7463 55.0507 10.678 54.969 10.6304C54.8874 10.5828 54.7943 10.5576 54.6996 10.5576H47.3315V27.7299H49.7098C49.9747 27.7299 50.2288 27.8343 50.4161 28.0201C50.6034 28.2059 50.7086 28.4578 50.7086 28.7206C50.7086 28.9834 50.6034 29.2353 50.4161 29.4211C50.2288 29.6069 49.9747 29.7113 49.7098 29.7113H46.3327C46.0678 29.7113 45.8138 29.6069 45.6265 29.4211C45.4392 29.2353 45.334 28.9834 45.334 28.7206V9.56688C45.334 9.30413 45.4392 9.05214 45.6265 8.86634C45.8138 8.68055 46.0678 8.57617 46.3327 8.57617H54.6996C55.1502 8.57595 55.5926 8.69509 55.9813 8.92128C56.3699 9.14747 56.6906 9.4725 56.9102 9.86277L62.3154 19.4793C62.8293 20.3946 63.0992 21.4248 63.0998 22.4725V28.0073C63.099 28.458 62.9183 28.89 62.597 29.2086C62.2757 29.5273 61.8402 29.7066 61.3859 29.7073Z" fill="black"/>
<path d="M21.3828 29.7113H12.0055C11.7461 29.7113 11.4973 29.6081 11.3139 29.4243C11.1305 29.2406 11.0275 28.9913 11.0275 28.7315V21.1957C11.0275 20.9358 11.1305 20.6866 11.3139 20.5028C11.4973 20.3191 11.7461 20.2158 12.0055 20.2158C12.2649 20.2158 12.5136 20.3191 12.6971 20.5028C12.8805 20.6866 12.9835 20.9358 12.9835 21.1957V27.7516H21.3828C21.6422 27.7516 21.8909 27.8548 22.0743 28.0386C22.2578 28.2223 22.3608 28.4716 22.3608 28.7315C22.3608 28.9913 22.2578 29.2406 22.0743 29.4243C21.8909 29.6081 21.6422 29.7113 21.3828 29.7113Z" fill="black"/>
<path d="M11.9464 17.4594C11.7027 17.4594 11.4689 17.3557 11.2966 17.1711C11.1243 16.9866 11.0275 16.7362 11.0275 16.4752V9.86697C11.0275 9.60595 11.1243 9.35563 11.2966 9.17106C11.4689 8.9865 11.7027 8.88281 11.9464 8.88281C12.1901 8.88281 12.4238 8.9865 12.5962 9.17106C12.7685 9.35563 12.8653 9.60595 12.8653 9.86697V16.4792C12.8643 16.7395 12.7671 16.9888 12.5949 17.1725C12.4226 17.3562 12.1895 17.4594 11.9464 17.4594Z" fill="black"/>
<path d="M46.4954 29.7117H30.2293C29.9687 29.7117 29.7188 29.6079 29.5346 29.4232C29.3503 29.2384 29.2468 28.9879 29.2468 28.7266C29.2468 28.4654 29.3503 28.2148 29.5346 28.0301C29.7188 27.8453 29.9687 27.7415 30.2293 27.7415H45.5129V1.97019H12.9924V6.02745C12.9924 6.28872 12.8889 6.53928 12.7047 6.72402C12.5204 6.90876 12.2705 7.01255 12.01 7.01255C11.7494 7.01255 11.4995 6.90876 11.3152 6.72402C11.131 6.53928 11.0275 6.28872 11.0275 6.02745V1.78893C11.0282 1.31446 11.2165 0.859645 11.5513 0.524269C11.886 0.188892 12.3398 0.00034734 12.813 0H45.6937C46.1667 0.000694858 46.6201 0.189394 46.9546 0.524732C47.289 0.860071 47.4772 1.31469 47.4779 1.78893V28.7266C47.4779 28.9879 47.3744 29.2384 47.1901 29.4232C47.0059 29.6079 46.756 29.7117 46.4954 29.7117Z" fill="black"/>
<path d="M15.8465 22.0546H3.14526C2.87985 22.0546 2.62531 21.9578 2.43764 21.7855C2.24996 21.6132 2.14453 21.3794 2.14453 21.1357C2.14453 20.892 2.24996 20.6583 2.43764 20.4859C2.62531 20.3136 2.87985 20.2168 3.14526 20.2168H15.8465C16.1119 20.2168 16.3665 20.3136 16.5541 20.4859C16.7418 20.6583 16.8472 20.892 16.8472 21.1357C16.8472 21.3794 16.7418 21.6132 16.5541 21.7855C16.3665 21.9578 16.1119 22.0546 15.8465 22.0546Z" fill="black"/>
<path d="M25.6698 17.4589H8.33059C8.07094 17.4589 7.82192 17.3621 7.63831 17.1898C7.45471 17.0175 7.35156 16.7837 7.35156 16.54C7.35156 16.2963 7.45471 16.0626 7.63831 15.8902C7.82192 15.7179 8.07094 15.6211 8.33059 15.6211H25.6698C25.9295 15.6211 26.1785 15.7179 26.3621 15.8902C26.5457 16.0626 26.6489 16.2963 26.6489 16.54C26.6489 16.7837 26.5457 17.0175 26.3621 17.1898C26.1785 17.3621 25.9295 17.4589 25.6698 17.4589Z" fill="black"/>
<path d="M7.61465 12.2519H0.961931C0.706811 12.2519 0.46214 12.1551 0.281743 11.9828C0.101346 11.8104 0 11.5767 0 11.333C0 11.0893 0.101346 10.8555 0.281743 10.6832C0.46214 10.5109 0.706811 10.4141 0.961931 10.4141H7.61465C7.86977 10.4141 8.11444 10.5109 8.29483 10.6832C8.47523 10.8555 8.57658 11.0893 8.57658 11.333C8.57658 11.5767 8.47523 11.8104 8.29483 11.9828C8.11444 12.1551 7.86977 12.2519 7.61465 12.2519Z" fill="black"/>
<path d="M18.6121 7.04453H6.50543C6.24242 7.04453 5.99018 6.93159 5.8042 6.73053C5.61822 6.52948 5.51373 6.25679 5.51373 5.97246C5.51373 5.68813 5.61822 5.41545 5.8042 5.21439C5.99018 5.01334 6.24242 4.90039 6.50543 4.90039H18.6121C18.8751 4.90039 19.1274 5.01334 19.3134 5.21439C19.4993 5.41545 19.6038 5.68813 19.6038 5.97246C19.6038 6.25679 19.4993 6.52948 19.3134 6.73053C19.1274 6.93159 18.8751 7.04453 18.6121 7.04453Z" fill="black"/>
</svg>
