<svg width="300" height="300" viewBox="0 0 18 17" fill="none" xmlns="http://www.w3.org/2000/svg">
  <path d="M13.9325 3.06802C13.7885 2.02402 13.2485 1.21402 12.4385 0.76402C11.5745 0.31402 10.5305 0.36802 9.70247 0.90802C9.37847 1.12402 9.10847 1.39402 8.89247 1.71802C8.28047 0.87202 7.38047 0.44002 6.51647 0.47602C5.41847 0.51202 4.28447 1.34002 4.06847 3.06802C2.89847 3.12202 1.98047 4.07602 1.98047 5.24602V13.598C1.98047 14.804 2.95247 15.776 4.15847 15.776H13.8245C15.0305 15.776 16.0025 14.804 16.0025 13.598V5.24602C16.0205 4.07602 15.0845 3.10402 13.9325 3.06802ZM6.57047 2.09602C7.00247 2.07802 7.48847 2.42002 7.75847 3.06802H5.70647C5.83247 2.47402 6.15647 2.11402 6.57047 2.09602ZM8.19047 14.156H4.15847C3.85247 14.156 3.60047 13.904 3.60047 13.598V10.232H8.19047V14.156ZM8.19047 8.61202H3.60047V5.24602C3.60047 4.94002 3.85247 4.68802 4.15847 4.68802H8.19047V8.61202ZM10.5845 2.27602C10.9085 2.06002 11.3405 2.02402 11.6645 2.20402C11.9705 2.36602 12.1685 2.65402 12.2765 3.06802H10.0625C10.1525 2.72602 10.3325 2.45602 10.5845 2.27602ZM14.4005 13.598C14.4005 13.904 14.1485 14.156 13.8425 14.156H9.81047V10.232H14.4005V13.598ZM14.4005 8.61202H9.81047V4.68802H13.8425C14.1485 4.68802 14.4005 4.94002 14.4005 5.24602V8.61202Z" fill="currentColor" />
</svg>
  