<svg width="300" height="300" viewBox="0 0 17 15" fill="none" xmlns="http://www.w3.org/2000/svg">
  <path d="M12.005 0C10.2505 0 9.14293 0.861994 8.5 1.64137C7.85728 0.861964 6.74985 0 4.99466 0C2.00697 0 0 2.79391 0 5.40321C0 9.20188 7.22804 14.2928 8.05223 14.8607C8.18718 14.9536 8.34359 15 8.5 15C8.65641 15 8.81283 14.9534 8.94777 14.8607C9.7719 14.2928 17 9.20188 17 5.40321C17 2.79391 14.9928 0 12.005 0V0ZM8.4997 13.2209C5.65335 11.1774 1.58859 7.51981 1.58859 5.40321C1.58859 3.81019 2.77227 1.60331 4.99466 1.60331C7.01626 1.60331 7.72999 3.36573 7.75752 3.43563C7.87362 3.7452 8.16759 3.94773 8.49548 3.95048H8.50105C8.8269 3.95048 9.12088 3.74675 9.24088 3.44102C9.27017 3.36585 9.98415 1.60343 12.0051 1.60343C14.2277 1.60343 15.4117 3.80995 15.4117 5.40333C15.4115 7.51742 11.3463 11.1761 8.49971 13.221L8.4997 13.2209Z" fill="currentColor" />
</svg>