<svg width="300" height="300" viewBox="0 0 14 13" fill="none" xmlns="http://www.w3.org/2000/svg">
  <path d="M9.60403 0.630249C8.20039 0.630249 7.31435 1.31984 6.8 1.94335C6.28582 1.31982 5.39988 0.630249 3.99573 0.630249C1.60558 0.630249 0 2.86537 0 4.95282C0 7.99175 5.78243 12.0645 6.44179 12.5188C6.54974 12.5931 6.67487 12.6302 6.8 12.6302C6.92513 12.6302 7.05026 12.593 7.15821 12.5188C7.81752 12.0645 13.6 7.99175 13.6 4.95282C13.6 2.86537 11.9942 0.630249 9.60403 0.630249Z" fill="currentColor" />
  <path d="M9.60403 0.630249C8.20039 0.630249 7.31435 1.31984 6.8 1.94335C6.28582 1.31982 5.39988 0.630249 3.99573 0.630249C1.60558 0.630249 0 2.86537 0 4.95282C0 7.99175 5.78243 12.0645 6.44179 12.5188C6.54974 12.5931 6.67487 12.6302 6.8 12.6302C6.92513 12.6302 7.05026 12.593 7.15821 12.5188C7.81752 12.0645 13.6 7.99175 13.6 4.95282C13.6 2.86537 11.9942 0.630249 9.60403 0.630249V0.630249ZM6.79976 11.207C4.52268 9.57217 1.27087 6.6461 1.27087 4.95282C1.27087 3.6784 2.21782 1.9129 3.99573 1.9129C5.61301 1.9129 6.18399 3.32283 6.20602 3.37875C6.29889 3.62641 6.53407 3.78843 6.79638 3.79064H6.80084C7.06152 3.79064 7.29671 3.62765 7.39271 3.38307C7.41614 3.32293 7.98732 1.913 9.60404 1.913C11.3821 1.913 12.3294 3.67821 12.3294 4.95291C12.3292 6.64419 9.07704 9.57114 6.79977 11.2071L6.79976 11.207Z" fill="currentColor" />
</svg>
  