<svg width="300" height="300" viewBox="0 0 31 30" fill="none" xmlns="http://www.w3.org/2000/svg">
  <path fill-rule="evenodd" clip-rule="evenodd" d="M4.5221 11.141C4.25816 11.369 4.10645 11.7005 4.10645 12.0492V26.8C4.10645 27.4627 4.6437 28 5.30645 28H24.9064C25.5692 28 26.1064 27.4627 26.1064 26.8V12.0492C26.1064 11.7005 25.9547 11.369 25.6908 11.141L15.8908 2.67739C15.4403 2.2883 14.7726 2.2883 14.3221 2.67739L4.5221 11.141ZM6.00645 26.1H24.2064V12.3696L15.1064 4.51049L6.00645 12.3696V26.1Z" fill="currentColor" />
  <path fill-rule="evenodd" clip-rule="evenodd" d="M13.0064 18.9V26.1H17.2064V18.9H13.0064ZM12.3064 17C11.6437 17 11.1064 17.5373 11.1064 18.2V26.8C11.1064 27.4627 11.6437 28 12.3064 28H17.9064C18.5692 28 19.1064 27.4627 19.1064 26.8V18.2C19.1064 17.5373 18.5692 17 17.9064 17H12.3064Z" fill="currentColor" />
</svg>
  