<svg width="500" height="500" viewBox="0 0 200 35" fill="none" xmlns="http://www.w3.org/2000/svg">
  <path d="M0.140666 1.84734H4.80338C11.4687 6.03995 18.2605 10.3122 25.2293 14.694V1.94693H30.0387V20.2311C28.7541 20.3157 27.4544 20.251 26.0991 20.2659C19.1202 15.8592 12.1059 11.4326 4.91463 6.8964C4.87923 11.4077 4.90452 15.7547 4.87923 20.1663C4.07009 20.3506 3.27105 20.2361 2.47708 20.256C1.70333 20.2759 0.934642 20.256 0.176067 20.256C-0.0363346 19.4991 -0.0666776 2.9677 0.140666 1.84734Z" fill="currentColor" />
  <path d="M136.947 20.241H132.962C125.999 15.8443 118.984 11.4176 111.833 6.90635V20.251C110.943 20.251 110.149 20.2609 109.36 20.2609C108.592 20.2609 107.823 20.2609 106.979 20.2609V1.90709C107.737 1.68799 108.506 1.82742 109.264 1.80252C110.003 1.77762 110.746 1.79754 111.621 1.79754C118.347 6.025 125.164 10.3122 132.128 14.6891V1.96684H136.947V20.241Z" fill="currentColor" />
  <path d="M175.68 20.2958H170.249C168.549 18.5281 166.82 16.7256 165.08 14.9181H149.969C148.386 16.6659 146.778 18.4435 145.135 20.251H139.587C145.676 13.494 151.694 6.81672 157.712 0.144398C158.41 0.567642 174.001 18.0551 175.68 20.2958ZM162.471 11.4774C160.903 9.65494 159.391 7.90221 157.813 6.0748C156.19 7.88728 154.622 9.63005 152.963 11.4774H162.466H162.471Z" fill="currentColor" />
  <path d="M50.93 0C56.9227 6.78187 62.8143 13.4442 68.8425 20.2659C67.7805 20.3655 66.8955 20.3107 66.0155 20.3207C65.1406 20.3307 64.2708 20.3207 63.3706 20.3207C61.6259 18.5032 59.8964 16.7007 58.1719 14.9082H43.0762C41.463 16.6808 39.8497 18.4584 38.2213 20.251H32.6938C38.7776 13.4592 44.826 6.7968 50.93 0ZM55.5775 11.4923C53.9896 9.64499 52.4826 7.89724 50.9047 6.06484C49.2814 7.8823 47.7136 9.63503 46.0498 11.4923H55.5775Z" fill="currentColor" />
  <path d="M199.995 9.48067V12.9065H182.957V20.3008H178.532V2.01165H199.975V5.34283H183.114V9.48067H200H199.995Z" fill="currentColor" />
  <path d="M93.1621 2.00169V5.35777C87.5284 5.36773 81.8947 5.35279 76.2155 5.35777V9.50059H93.0812V12.9065C90.2795 12.9463 87.4728 12.9164 84.661 12.9214C81.8341 12.9264 79.0121 12.9214 76.0537 12.9214V20.3257H71.7298C71.5073 19.5887 71.4618 3.39093 71.6793 2.00667H93.1621V2.00169Z" fill="currentColor" />
  <path d="M105.891 31.6387C106.898 32.3607 106.351 33.6504 106.802 34.7359H105.755C105.664 34.1334 105.603 33.5508 105.487 32.9732C105.34 32.2363 105.087 32.0221 104.329 32.0022C103.469 31.9773 102.604 31.9973 101.674 31.9973V34.7259L100.703 34.8106V28.198C102.286 28.198 103.823 28.1084 105.35 28.2279C106.574 28.3225 107.125 29.891 106.407 30.9416C106.245 31.1806 106.063 31.4097 105.891 31.6387ZM101.689 31.0811C102.781 31.1458 103.843 31.2255 104.895 31.0362C105.477 30.9317 105.724 30.5184 105.674 29.9507C105.628 29.4429 105.33 29.0644 104.794 29.0445C103.772 28.9997 102.746 29.0296 101.689 29.0296V31.0811Z" fill="currentColor" />
  <path d="M121.422 30.0055H120.476C120.082 29.0047 119.212 28.7657 118.205 28.8453C117.912 28.8702 117.563 28.925 117.361 29.1043C117.113 29.3184 116.86 29.6769 116.855 29.9756C116.855 30.2047 117.194 30.5483 117.457 30.6479C117.947 30.8371 118.494 30.8869 119.02 30.9964C119.51 31.101 120.021 31.1607 120.481 31.34C121.836 31.8628 122.059 33.4711 120.921 34.3774C119.854 35.2239 117.416 35.204 116.36 34.3376C115.869 33.9342 115.626 33.4114 115.591 32.6944L116.435 32.5898C116.511 32.7043 116.572 32.779 116.607 32.8637C117.143 34.1035 119.09 34.5965 120.183 33.7699C120.83 33.2819 120.764 32.4902 120.001 32.2114C119.409 31.9973 118.762 31.9475 118.14 31.808C117.684 31.7035 117.209 31.6338 116.789 31.4446C115.692 30.9516 115.439 29.6868 116.258 28.8055C116.496 28.5466 116.83 28.3275 117.164 28.208C118.145 27.8594 119.146 27.8893 120.117 28.2528C120.865 28.5316 121.285 29.1043 121.432 30.0005L121.422 30.0055Z" fill="currentColor" />
  <path d="M81.293 28.1482C82.6281 28.1482 83.9025 28.0835 85.1617 28.1681C86.3754 28.2478 86.9823 28.92 87.0076 29.9906C87.0329 31.1309 86.3653 31.9525 85.1668 32.067C84.2413 32.1566 83.3007 32.0869 82.2791 32.0869V34.721L81.293 34.8106V28.1532V28.1482ZM82.2741 31.2354C83.1237 31.2354 83.8873 31.2504 84.6459 31.2354C85.4702 31.2155 85.7584 31.0064 85.9203 30.3889C86.0821 29.7815 85.9557 29.5225 85.2982 29.0644H82.269V31.2404L82.2741 31.2354Z" fill="currentColor" />
  <path d="M97.0461 34.7658H95.9234L95.0384 32.8935H91.7513C91.4731 33.4662 91.1798 34.0886 90.8663 34.7359H89.8093C90.841 32.4902 91.8322 30.3341 92.8335 28.1582H94.0169C95.0132 30.3242 95.9993 32.4802 97.0512 34.7658H97.0461ZM94.6339 31.9574C94.2242 30.9516 93.8804 30.0802 93.3544 29.1092C92.8993 30.1648 92.525 31.0263 92.1255 31.9574H94.6339Z" fill="currentColor" />
  <path d="M111.661 34.7757H110.792V28.213L111.661 28.1532V34.7757Z" fill="currentColor" />
</svg>