<svg width="16" height="19" viewBox="0 0 16 19" fill="none" xmlns="http://www.w3.org/2000/svg">
<path fill-rule="evenodd" clip-rule="evenodd" d="M8 2.38021C4.93942 2.38021 2.45833 4.8613 2.45833 7.92187C2.45833 9.74206 3.45277 11.1303 4.81065 12.5446C5.13547 12.883 5.47249 13.2144 5.81673 13.553L5.85542 13.591C6.20995 13.9397 6.57194 14.2965 6.91672 14.6598C7.29698 15.0606 7.66826 15.4814 8 15.9295C8.33174 15.4814 8.70302 15.0606 9.08328 14.6598C9.42806 14.2965 9.79005 13.9397 10.1446 13.591L10.1833 13.5529C10.5275 13.2144 10.8645 12.8829 11.1893 12.5446C12.5472 11.1303 13.5417 9.74206 13.5417 7.92187C13.5417 4.8613 11.0606 2.38021 8 2.38021ZM0.875 7.92187C0.875 3.98685 4.06497 0.796875 8 0.796875C11.935 0.796875 15.125 3.98685 15.125 7.92187C15.125 10.3912 13.7444 12.1695 12.3315 13.6412C11.9905 13.9963 11.6389 14.3421 11.299 14.6764L11.2548 14.7198C10.8981 15.0707 10.555 15.4091 10.2318 15.7497C9.58214 16.4344 9.05166 17.0888 8.70809 17.7759C8.57399 18.0441 8.29986 18.2135 8 18.2135C7.70014 18.2135 7.42601 18.0441 7.29191 17.7759C6.94834 17.0888 6.41786 16.4344 5.76817 15.7497C5.44498 15.4091 5.1019 15.0707 4.74516 14.7198L4.70101 14.6764C4.36107 14.3421 4.00946 13.9963 3.66852 13.6412C2.25556 12.1695 0.875 10.3912 0.875 7.92187ZM8 5.94271C7.12555 5.94271 6.41667 6.65159 6.41667 7.52604C6.41667 8.40049 7.12555 9.10938 8 9.10938C8.87445 9.10938 9.58333 8.40049 9.58333 7.52604C9.58333 6.65159 8.87445 5.94271 8 5.94271ZM4.83333 7.52604C4.83333 5.77714 6.2511 4.35937 8 4.35937C9.7489 4.35937 11.1667 5.77714 11.1667 7.52604C11.1667 9.27494 9.7489 10.6927 8 10.6927C6.2511 10.6927 4.83333 9.27494 4.83333 7.52604Z" fill="white"/>
</svg>
