<svg width="300" height="300" viewBox="0 0 23 23" fill="none" xmlns="http://www.w3.org/2000/svg">
  <path d="M11.5 23C17.8513 23 23 17.8513 23 11.5C23 5.14873 17.8513 0 11.5 0C5.14873 0 0 5.14873 0 11.5C0 17.8513 5.14873 23 11.5 23Z" fill="#EDEDED" />
  <path d="M11.2948 18.8803C10.3195 18.8854 9.35311 18.6941 8.45329 18.3178C7.55346 17.9415 6.73863 17.3878 6.05736 16.6898C5.54063 16.1646 4.88349 14.9458 5.0885 14.6987C5.67262 13.991 6.62464 13.2777 7.50364 13.1766C9.43575 12.9519 11.41 13.1036 13.3674 13.1036C14.1593 13.1036 15.0327 12.9042 15.7235 13.171C16.593 13.5112 17.3526 14.0833 17.9196 14.8251C18.1022 15.0722 17.4647 16.1197 16.9985 16.6027C15.5045 18.1417 13.6285 18.8747 11.2948 18.8803Z" fill="currentColor" />
  <path d="M11.4483 11.0001C10.7694 10.9951 10.1071 10.7893 9.54489 10.4086C8.98267 10.028 8.54567 9.48946 8.28891 8.86091C8.03216 8.23237 7.96713 7.5419 8.10203 6.87648C8.23693 6.21105 8.56572 5.60042 9.04699 5.1215C9.52825 4.64257 10.1405 4.31676 10.8066 4.18511C11.4726 4.05345 12.1628 4.12184 12.7901 4.38166C13.4173 4.64147 13.9537 5.0811 14.3316 5.64516C14.7095 6.20923 14.9121 6.87251 14.9138 7.55147C14.9191 8.00724 14.833 8.45946 14.6605 8.88137C14.488 9.30328 14.2327 9.68632 13.9096 10.0078C13.5865 10.3294 13.2022 10.5828 12.7795 10.7533C12.3567 10.9237 11.9041 11.0076 11.4483 11.0001Z" fill="currentColor" />
</svg>