<svg width="300" height="300" viewBox="0 0 23 23" fill="none" xmlns="http://www.w3.org/2000/svg">
  <path d="M11.5 23C17.8513 23 23 17.8513 23 11.5C23 5.14873 17.8513 0 11.5 0C5.14873 0 0 5.14873 0 11.5C0 17.8513 5.14873 23 11.5 23Z" fill="#EDEDED" />
  <path d="M11.544 5.11633C15.0443 4.95698 16.0741 8.46803 14.8238 10.2448C14.5671 10.6113 14.2198 10.9221 13.9178 11.2726C13.4829 11.7879 13.0329 12.3004 12.6403 12.8422C12.148 13.5248 11.4776 13.7957 10.786 13.5275C10.6128 13.4645 10.456 13.3712 10.3251 13.2533C10.1943 13.1353 10.0921 12.9951 10.0249 12.8413C9.9576 12.6875 9.92667 12.5232 9.93396 12.3586C9.94124 12.1939 9.98658 12.0322 10.0672 11.8835C10.4132 11.2679 10.8173 10.6788 11.2752 10.1226C11.6039 9.74921 11.8978 9.35309 12.1541 8.93812C12.2463 8.71134 12.2437 8.46311 12.1469 8.23783C12.0501 8.01254 11.8653 7.8249 11.6256 7.70845C11.1242 7.50661 10.786 7.77219 10.4628 8.03778C10.277 8.23787 10.0752 8.42603 9.85883 8.60082C9.62793 8.7722 9.33239 8.86127 9.03049 8.85045C8.7286 8.83963 8.44228 8.72972 8.228 8.5424C7.74177 8.17589 7.51828 7.74564 7.77499 7.15869C8.32766 5.87591 9.69574 5.11633 11.544 5.11633Z" fill="currentColor" />
  <path d="M12.7761 16.2136C12.7877 16.4301 12.7527 16.6466 12.6735 16.8499C12.5942 17.0531 12.4722 17.2388 12.3151 17.3956C12.1579 17.5524 11.9688 17.677 11.7594 17.7618C11.5499 17.8466 11.3245 17.8898 11.0969 17.8887C10.8705 17.8913 10.6458 17.8509 10.4359 17.7699C10.226 17.6889 10.0352 17.5689 9.87451 17.4168C9.71384 17.2648 9.58655 17.0838 9.50008 16.8844C9.41361 16.685 9.36969 16.4712 9.37087 16.2555C9.37087 15.2671 10.1709 14.4463 11.1292 14.4826C11.5825 14.5193 12.0045 14.7182 12.3101 15.0394C12.6157 15.3606 12.7822 15.7801 12.7761 16.2136Z" fill="currentColor" />
</svg>