<svg width="300" height="300" viewBox="0 0 54 55" fill="none" xmlns="http://www.w3.org/2000/svg">
  <rect y="0.499878" width="53.8333" height="53.8333" fill="white" />
  <path fill-rule="evenodd" clip-rule="evenodd" d="M44.7458 51.2307H10.0941C8.8333 51.2307 8.0683 49.8282 8.76246 48.7799L17.2908 35.789L23.1841 26.8074L18.3958 19.1574L9.88163 5.55738C9.6408 5.17488 10.0658 4.74988 10.675 4.74988H44.1508C44.7741 4.74988 45.1991 5.17488 44.9583 5.55738L36.4441 19.1574L31.6558 26.7932L37.5491 35.789L46.0633 48.7799C46.7575 49.8282 46.0066 51.2307 44.7458 51.2307Z" fill="#FFD4E0" />
  <path d="M27.8023 50.1257C25.5498 43.2974 19.7698 38.6507 13.7915 38.9766C11.8081 42.6316 13.0406 46.3574 13.8906 50.0691L13.154 50.3382C12.7856 49.7574 12.304 49.2049 12.0773 48.5674C10.4765 44.0766 11.7231 39.7982 13.239 35.5907C14.3156 32.5874 15.364 29.5416 16.8231 26.7224C18.4806 23.5207 18.4381 20.4324 17.064 17.2874C15.6331 14.0149 14.0465 10.8132 12.5165 7.56906C12.1906 6.88906 11.8506 6.23739 11.8931 5.27406C12.1906 5.59989 12.5448 5.88322 12.7573 6.26572C13.664 7.80989 14.5423 9.36822 15.3781 10.9549C18.0131 15.9132 21.2431 16.7774 26.0031 13.6041C27.1931 12.8107 27.9298 12.9099 29.0631 13.6607C33.7381 16.7632 36.529 15.9699 39.2065 11.0116C40.3115 8.97156 41.544 7.00239 42.7198 4.99072L43.4281 5.40156C43.074 6.10989 42.6915 6.81822 42.3515 7.54072C40.5381 11.4082 38.654 15.2474 36.9823 19.1716C36.0615 21.3249 36.4156 23.4924 37.3365 25.7307C39.4756 30.9724 41.6573 36.2424 43.2015 41.6824C43.8531 43.9632 43.0031 46.6974 42.7198 49.2191C42.6773 49.6299 42.0823 49.9841 41.4448 50.2391C41.8981 46.3999 43.159 42.6599 40.949 38.8349C37.8181 39.0332 34.9281 40.2232 32.3781 42.2066C29.8281 44.1757 27.7031 46.4707 27.7598 50.1116L27.8023 50.1257ZM17.4748 15.8282C20.4073 21.1266 19.189 25.5466 16.9506 29.8249C16.0723 31.4966 16.3556 32.6724 18.0981 33.3382C24.2181 35.6757 30.3948 35.7041 36.529 33.4941C38.0873 32.9274 38.7531 31.7091 37.8181 29.9524C35.5798 25.7307 34.0356 21.3957 36.8973 16.2816C33.4548 17.3299 30.8906 16.4941 28.3973 15.0066C27.9156 14.7232 26.924 14.8224 26.3998 15.1341C23.8073 16.6641 21.1723 17.4574 17.4748 15.8282ZM14.1456 37.2624C19.699 38.3674 23.5098 41.9941 27.5898 45.3941C31.2023 41.4699 35.2256 38.2682 40.7506 37.2624L39.079 33.0832C31.2731 37.8291 23.609 37.4324 15.6473 33.5082L14.1456 37.2624Z" fill="black" />
</svg>