<svg width="300" height="300" viewBox="0 0 39 38" fill="none" xmlns="http://www.w3.org/2000/svg">
  <rect x="0.25" width="38" height="38" fill="white" />
  <path d="M20.15 32.3C26.1699 32.3 31.05 26.1887 31.05 18.65C31.05 11.1113 26.1699 5 20.15 5C14.1301 5 9.25 11.1113 9.25 18.65C9.25 26.1887 14.1301 32.3 20.15 32.3Z" fill="#FFD4E0" />
  <path d="M20.0898 32.87C19.0698 27.36 15.1998 26.4 10.8698 25.45L11.8098 32.43C11.4298 32.12 11.1798 32.03 11.1698 31.9C10.7798 28.26 10.3998 24.62 10.0498 20.97C10.0098 20.55 10.1098 20.07 10.2898 19.69C12.2598 15.56 11.9698 11.25 11.4298 6.91002C11.3998 6.70002 11.4298 6.48002 11.6798 6.19002C11.7998 6.65002 11.9298 7.11002 12.0298 7.58002C12.1298 8.06002 12.2698 8.56002 12.2498 9.04002C12.1998 10.74 13.3598 11.48 14.6898 11.61C15.9898 11.74 17.4398 11.56 18.6398 11.07C19.6898 10.64 20.3998 10.51 21.4698 11.05C22.4398 11.55 23.6698 11.77 24.7598 11.73C26.8198 11.66 27.6498 10.8 28.1198 8.82002C28.3398 7.88002 28.5898 6.95002 28.8298 6.02002L29.2298 6.11002C28.9498 7.77002 28.6898 9.43002 28.3998 11.09C27.9598 13.64 28.0498 16.09 29.2598 18.47C30.4798 20.88 30.3398 23.5 30.0298 26.07C29.7798 28.15 29.3298 30.2 28.9698 32.27L28.3698 32.17L29.2698 25.47C24.9598 26.37 21.1098 27.33 20.0798 32.85L20.0898 32.87ZM27.6898 11.58C25.0198 12.68 22.7698 12.53 20.5898 11.27C20.3298 11.12 19.8198 11.13 19.5498 11.28C17.3698 12.55 15.1398 12.8 13.1398 11.87C12.4398 14.6 11.7898 17.28 11.0598 19.93C10.7798 20.94 11.2998 21.34 12.0498 21.68C17.1598 23.99 22.2998 24.04 27.4698 21.87C27.7698 21.74 28.1498 21.6 28.2898 21.35C28.5698 20.85 28.9998 20.15 28.8398 19.75C27.8098 17.2 26.7898 14.67 27.6898 11.57V11.58ZM10.7798 21.76C10.9198 22.92 10.0098 24.45 11.5798 24.76C14.9498 25.44 17.9298 26.66 20.0798 29.46C22.4898 26.77 24.3898 25.64 27.5398 24.98C29.5798 24.55 29.7098 24.3 29.1098 22.08C23.0198 24.82 16.9498 24.81 10.7798 21.76Z" fill="black" />
</svg>
  