<svg width="300" height="300" viewBox="0 0 54 55" fill="none" xmlns="http://www.w3.org/2000/svg">
  <rect y="0.499878" width="53.8333" height="53.8333" fill="white" />
  <path fill-rule="evenodd" clip-rule="evenodd" d="M39.5532 6.1665V50.0265H33.589V30.264H20.1307V50.0265H14.1665V6.1665H20.1307V22.3023H33.589V6.1665H39.5532Z" fill="#FFD5E0" />
  <path d="M22.0996 41.3423L16.3763 38.7498V49.3748L15.6538 49.5731C15.4129 48.7656 14.9171 47.944 14.9596 47.1648C15.2288 42.674 14.9596 38.0131 16.1354 33.7631C18.3171 25.8015 18.0621 18.1089 15.8096 10.3173C15.7104 9.96312 15.6963 9.59478 16.1496 9.09895C16.5604 10.6006 17.0138 12.1023 17.3821 13.6181C18.4871 18.109 21.1504 19.2423 25.0888 16.8623C25.6838 16.5081 26.2646 16.1256 26.7463 15.8281C28.2479 16.5648 29.5654 17.4289 31.0246 17.8539C33.3338 18.5339 34.6938 17.4998 35.1754 15.1339C35.6004 13.0656 36.1104 11.0114 36.5779 8.94312L37.3146 9.08478C37.0029 10.9831 36.7763 12.8956 36.3654 14.7656C35.1754 20.2056 35.7563 25.5323 36.7479 30.9581C37.7113 36.214 38.1504 41.5831 38.7313 46.9098C38.8304 47.7598 38.4479 48.6665 38.2921 49.5448L37.3854 49.4598V39.5148C32.5546 39.5715 28.8713 43.1556 26.8313 49.3323C26.6896 45.7198 24.1538 43.609 22.0004 41.2715C23.6438 42.4898 25.2871 43.7223 26.6329 44.714L36.8613 36.979L36.3796 34.9248C29.8488 38.5231 23.6013 36.3556 17.0704 34.6131L16.8154 37.1206L22.0713 41.3565L22.0996 41.3423ZM19.1388 18.6473C18.6996 22.7981 18.2463 27.0056 17.8638 31.2131C17.8071 31.8648 17.9346 32.9556 18.3454 33.1681C23.5163 36.0156 28.9138 36.6673 34.4954 34.4715C35.8413 33.9473 36.2238 32.9556 35.9688 31.4681C35.2604 27.289 34.6938 23.0815 34.1129 19.2281C32.3279 18.8598 30.2313 18.6898 28.3754 17.939C27.1146 17.429 26.3071 17.4431 25.2304 18.1515C23.1196 19.5398 20.8954 19.8231 19.1388 18.6473Z" fill="black" />
</svg>
  