<svg width="300" height="300" viewBox="0 0 38 38" fill="none" xmlns="http://www.w3.org/2000/svg">
  <rect width="38" height="38" fill="white" />
  <path fill-rule="evenodd" clip-rule="evenodd" d="M19.4094 31.63C19.2094 32.11 18.5294 32.11 18.3294 31.63L12.7894 18.45L7.04944 4.81C6.87944 4.43 7.16944 4 7.58944 4H30.1494C30.5694 4 30.8494 4.43 30.6894 4.81L24.9494 18.45L19.4094 31.62V31.63Z" fill="#FFD4E0" />
  <path d="M7.78859 4.59998C8.52859 5.79998 9.28859 6.97998 9.98859 8.18998C11.5886 10.93 14.2786 11.84 17.0486 10.27C18.3586 9.52998 19.2686 9.44998 20.5286 10.29C22.5286 11.63 26.0786 11.12 27.2586 8.37998C27.8686 6.95998 28.9486 5.73998 30.1586 4.60998C30.0586 4.91998 29.9986 5.26998 29.8386 5.53998C29.2586 6.53998 28.6886 7.53998 28.0286 8.48998C25.2086 12.55 24.7686 16.79 26.0986 21.61C27.0186 24.93 26.8686 28.55 27.1486 32.04C27.1786 32.4 26.8586 32.78 26.6986 33.15L26.2186 33.04V25.77C22.1886 26.9 19.5986 28.96 18.8886 33.08C18.0086 29.04 15.3886 26.87 11.3786 25.73V32.99L10.8786 33.13C10.7286 32.64 10.5086 32.15 10.4586 31.65C9.99859 27.16 10.7286 22.77 11.9086 18.48C12.4486 16.49 12.3786 14.67 11.5386 12.88C10.2686 10.18 8.89859 7.51998 7.55859 4.82998L7.78859 4.60998V4.59998ZM11.8286 11.49C13.3886 14.4 13.3786 17.27 12.4386 20.23C12.2986 20.67 12.4686 21.56 12.7686 21.72C16.3786 23.61 20.1486 24.07 24.0386 22.67C25.0186 22.32 25.4986 21.63 25.2286 20.48C24.5386 17.51 23.7386 14.51 25.5586 11.5C22.0786 12.13 21.8186 12.09 18.7286 10.41C16.6786 11.86 14.4286 12.4 11.8386 11.49H11.8286ZM11.8986 22.59L11.6786 24.39L18.6786 29.75L25.8686 24.32C25.8686 24.38 25.8486 24.06 25.7786 23.74C25.7086 23.43 25.5986 23.13 25.5186 22.88C20.9386 25.35 16.4886 24.01 11.8886 22.59H11.8986Z" fill="black" />
</svg>
  