<svg width="300" height="300" viewBox="0 0 39 38" fill="none" xmlns="http://www.w3.org/2000/svg">
  <rect x="0.25" width="38" height="38" fill="white" />
  <path d="M19.1398 17.6C23.4477 17.6 26.9398 14.1078 26.9398 9.8C26.9398 5.49218 23.4477 2 19.1398 2C14.832 2 11.3398 5.49218 11.3398 9.8C11.3398 14.1078 14.832 17.6 19.1398 17.6Z" fill="#FFD4E0" />
  <path d="M19.14 34.86C25.1544 34.86 30.03 31.2783 30.03 26.86C30.03 22.4417 25.1544 18.86 19.14 18.86C13.1256 18.86 8.25 22.4417 8.25 26.86C8.25 31.2783 13.1256 34.86 19.14 34.86Z" fill="#FFD4E0" />
  <path d="M29.129 25.53C27.899 22.93 26.759 20.28 25.379 17.75C24.249 15.66 24.129 13.63 25.169 11.56C26.219 9.48 27.359 7.45 28.459 5.4C28.699 4.95 28.949 4.51 29.199 4.07C29.059 3.98 28.909 3.89 28.769 3.81C27.899 5.18 26.969 6.52 26.169 7.92C24.669 10.55 23.079 11.04 20.529 9.34C19.519 8.66 18.889 8.77 17.929 9.38C15.329 11.04 13.229 10.48 11.579 7.9C10.709 6.55 9.78904 5.23 8.89904 3.9C9.77904 6.14 10.949 8.18 12.179 10.19C13.909 13.03 14.019 15.72 12.279 18.76C10.739 21.47 9.66904 24.5 8.70904 27.49C8.17904 29.11 8.65904 30.84 9.91904 32.24C9.69904 29.79 8.70904 27.33 10.569 24.89C11.769 25.25 14.309 26.41 16.139 27.15C17.519 28.53 19.219 30.13 19.139 32.22C19.709 31.07 19.979 29.92 20.609 29.02C21.999 27.03 24.069 25.98 26.369 25.31C27.629 24.93 28.509 25.25 28.579 26.62C28.679 28.45 28.609 30.28 28.609 32.31C28.859 32 29.229 31.73 29.329 31.38C29.899 29.42 30.039 27.45 29.129 25.53ZM12.689 19.68C14.449 16.84 15.209 13.9 13.389 11.16C15.369 10.66 17.289 10.18 19.449 9.63C20.749 10.15 22.429 10.83 24.379 11.61C22.699 14.27 23.839 16.95 25.439 19.54C26.169 20.73 25.799 21.44 24.629 21.81C20.919 23 17.209 23 13.529 21.68C12.619 21.36 11.979 20.82 12.689 19.68ZM18.959 28.81C18.559 28.55 17.829 28.04 17.069 27.51C16.779 27.31 16.479 27.1 16.199 26.9C15.989 26.78 15.779 26.66 15.549 26.53C13.909 25.58 11.889 24.41 10.789 23.79C11.069 23.18 11.429 22.4 11.739 21.73C16.729 24.17 21.529 24.42 26.419 21.54C26.619 21.95 26.879 22.43 27.109 22.93C27.249 23.25 27.349 23.6 27.349 23.6C24.529 25.36 21.839 27.02 18.959 28.81Z" fill="black" />
</svg>