<svg width="300" height="300" viewBox="0 0 54 55" fill="none" xmlns="http://www.w3.org/2000/svg">
  <rect y="0.499878" width="53.8333" height="53.8333" fill="white" />
  <path fill-rule="evenodd" clip-rule="evenodd" d="M27.3781 7.05896C27.6615 6.36479 28.6248 6.36479 28.9081 7.05896L36.7565 26.2831L44.8881 46.2015C45.1148 46.7681 44.7181 47.3915 44.1231 47.3915H12.1631C11.5681 47.3915 11.1715 46.7681 11.3981 46.2015L19.5298 26.2973L27.3781 7.05896Z" fill="#FFD4E0" />
  <path d="M24.7147 40.464C22.4056 39.4157 20.1106 38.2965 17.7731 37.319C16.0164 36.5823 14.6564 37.0498 14.4722 39.1323C14.3164 40.9457 14.4014 42.8015 14.4722 44.629C14.5147 45.5215 14.8264 46.3998 15.1239 47.8307C14.3022 47.2782 13.7639 47.1082 13.6931 46.8248C13.0131 44.289 12.0781 41.7248 13.1972 39.0757C14.9681 34.9248 16.5831 30.7032 18.6372 26.694C20.4364 23.209 20.8047 19.7807 19.6856 16.0973C18.6939 12.8532 17.7306 9.59484 17.2064 6.1665C17.9431 8.05067 18.7081 9.92067 19.4022 11.819C20.8047 15.7007 22.7739 16.494 26.2731 14.199C27.7889 13.2073 28.8797 12.8107 30.2964 14.199C30.8206 14.709 31.6564 14.9498 32.3789 15.219C34.0789 15.8423 35.2264 15.389 35.7081 13.5048C36.2039 11.6207 36.7847 9.76484 37.3939 7.92317C37.6064 7.2715 38.0172 6.69067 38.7964 6.27984C38.0456 9.014 37.3797 11.7765 36.5439 14.4823C34.9856 19.4832 35.6939 24.0307 38.4139 28.5498C40.2839 31.6523 41.5164 35.1515 43.0039 38.4948C44.1372 41.0732 43.7972 43.694 42.9897 46.2582C42.8339 46.754 42.3239 47.1507 41.9839 47.5898L41.3889 47.2782C41.6156 46.244 42.0406 45.224 42.0406 44.1898C42.0406 42.2207 41.8847 40.2232 41.5306 38.2823C41.4456 37.8148 40.2697 37.149 39.7172 37.2482C35.8214 37.914 32.4781 39.6848 30.1547 42.9432C29.3047 44.1473 28.9789 45.7198 28.5539 46.754C27.3922 44.8557 26.0039 42.6173 24.6297 40.3648C25.8764 41.1723 27.1372 41.994 27.8739 42.4757L40.1989 34.8257L38.8106 31.8365C31.5856 36.0298 24.5731 35.6898 17.3481 32.0915L16.1156 34.8965L24.7006 40.464H24.7147ZM20.6631 16.1398C22.0372 20.6448 21.3997 24.6398 19.1331 28.4648C17.7589 30.7882 17.9856 31.5107 20.6064 32.3323C25.6072 33.9048 30.6931 33.8198 35.7506 32.4457C36.2606 32.304 36.8981 32.0773 37.1531 31.6807C37.5072 31.1423 37.8897 30.2215 37.6631 29.7965C35.3681 25.5748 33.2714 21.339 35.0847 16.4657C31.0189 15.559 27.3922 13.1648 23.5531 16.0832C23.0147 16.494 21.9097 16.1398 20.6489 16.1398H20.6631Z" fill="black" />
</svg>
  