<svg width="18" height="19" viewBox="0 0 18 19" fill="none" xmlns="http://www.w3.org/2000/svg">
<path fill-rule="evenodd" clip-rule="evenodd" d="M3.45766 7.92188C3.45766 3.98196 6.67119 0.796875 10.6243 0.796875C14.5775 0.796875 17.791 3.98196 17.791 7.92188C17.791 8.81001 17.6272 9.66189 17.3273 10.448C17.2983 10.5239 17.2815 10.5683 17.2698 10.601C17.2683 10.6052 17.2671 10.6089 17.266 10.6119C17.2661 10.613 17.2662 10.6142 17.2663 10.6154C17.2688 10.6415 17.2732 10.6772 17.2815 10.7451L17.6029 13.356C17.6178 13.4764 17.6347 13.6131 17.6387 13.732C17.6431 13.8636 17.6376 14.068 17.5395 14.2824C17.417 14.5502 17.1993 14.7628 16.9288 14.8792C16.7122 14.9723 16.5078 14.9731 16.3763 14.9657C16.2574 14.9589 16.1212 14.9389 16.0011 14.9212C15.9938 14.9202 15.9865 14.9191 15.9792 14.918L13.4576 14.5484C13.3875 14.5381 13.3507 14.5328 13.3237 14.5296C13.3224 14.5295 13.3212 14.5293 13.3201 14.5292C13.317 14.5302 13.3133 14.5315 13.3089 14.533C13.2751 14.5448 13.2292 14.5619 13.1507 14.5913C12.3639 14.886 11.512 15.0469 10.6243 15.0469C10.4822 15.0469 10.3409 15.0428 10.2007 15.0346C9.44617 16.894 7.6536 18.2135 5.54103 18.2135C4.96497 18.2135 4.41004 18.1146 3.89268 17.932C3.80717 17.9018 3.75413 17.8832 3.71523 17.8703C3.70818 17.868 3.70239 17.8661 3.69777 17.8646C3.69644 17.8648 3.69501 17.8649 3.69347 17.8651C3.66632 17.8681 3.62931 17.8731 3.5607 17.8825L1.18982 18.2063C0.933274 18.2413 0.675811 18.1487 0.500393 17.9582C0.324976 17.7678 0.253777 17.5036 0.309739 17.2508L0.79372 15.0644C0.810536 14.9885 0.819536 14.9475 0.825317 14.9173C0.825644 14.9156 0.825945 14.914 0.826217 14.9126C0.824779 14.9075 0.822957 14.9013 0.820681 14.8938C0.807645 14.8506 0.788472 14.7918 0.757306 14.6964C0.589722 14.1834 0.49936 13.6354 0.49936 13.0677C0.49936 10.9887 1.71315 9.18171 3.47183 8.3731C3.46243 8.22381 3.45766 8.07335 3.45766 7.92188ZM5.04105 7.94676C5.20542 7.9303 5.3722 7.92188 5.54103 7.92188C8.34342 7.92188 10.5827 10.2439 10.5827 13.0677C10.5827 13.2007 10.5777 13.3327 10.568 13.4633C10.5867 13.4634 10.6055 13.4635 10.6243 13.4635C11.3197 13.4635 11.9835 13.3378 12.5953 13.1086C12.6064 13.1045 12.6177 13.1002 12.6292 13.0958C12.7411 13.0537 12.8731 13.004 12.9936 12.9787C13.1038 12.9555 13.1979 12.9455 13.3105 12.9448C13.4333 12.9441 13.5582 12.9627 13.659 12.9776C13.6687 12.9791 13.6781 12.9805 13.6872 12.9818L16.0034 13.3213L15.71 10.9385C15.709 10.9296 15.7078 10.9205 15.7066 10.9112C15.6944 10.8134 15.6793 10.6924 15.6821 10.5739C15.6847 10.465 15.6957 10.3744 15.7193 10.2682C15.7451 10.152 15.7939 10.0246 15.8354 9.91653C15.8396 9.90537 15.8438 9.89441 15.8479 9.88369C16.0802 9.27483 16.2077 8.61402 16.2077 7.92188C16.2077 4.86618 13.7128 2.38021 10.6243 2.38021C7.53584 2.38021 5.041 4.86618 5.041 7.92188C5.041 7.93017 5.04102 7.93847 5.04105 7.94676ZM8.88918 13.9649C8.96105 13.6788 8.99936 13.3783 8.99936 13.0677C8.99936 11.082 7.43305 9.50521 5.54103 9.50521C3.649 9.50521 2.08269 11.082 2.08269 13.0677C2.08269 13.4667 2.1461 13.8488 2.26237 14.2047C2.26698 14.2188 2.27171 14.2332 2.2765 14.2478C2.32103 14.3833 2.3715 14.5369 2.39177 14.666C2.41078 14.7872 2.41535 14.8804 2.40827 15.0029C2.40075 15.1329 2.37089 15.2666 2.34655 15.3756C2.34418 15.3862 2.34187 15.3965 2.33963 15.4066L2.10119 16.4838L3.34645 16.3137C3.35558 16.3125 3.36494 16.3112 3.37451 16.3098C3.47298 16.2962 3.59373 16.2795 3.70956 16.2803C3.81922 16.281 3.90083 16.2894 4.00839 16.3108C4.12248 16.3336 4.25933 16.3821 4.38078 16.4252C4.39393 16.4299 4.4069 16.4345 4.41964 16.4389C4.77045 16.5628 5.14734 16.6302 5.54103 16.6302C7.12403 16.6302 8.47903 15.5264 8.87942 14.0029C8.88237 13.9901 8.88563 13.9774 8.88918 13.9649Z" fill="white"/>
</svg>
