<svg width="52" height="24" viewBox="0 0 52 24" fill="none" xmlns="http://www.w3.org/2000/svg">
<ellipse cx="26" cy="12" rx="26" ry="12" fill="#265EAC"/>
<path d="M17.8179 7.95999V8.37999L17.2299 8.39199L16.9179 15.988L15.4659 16L11.1339 9.18399L11.5899 15.568L12.2979 15.58V16H9.84985V15.58L10.4379 15.568L10.6419 8.39199L10.0539 8.37999V7.95999H13.0179L16.5099 13.372L16.1979 8.39199L15.4899 8.37999V7.95999H17.8179Z" fill="white"/>
<path d="M24.7698 13.612V16H18.6858V15.58L19.2738 15.568V8.39199L18.6858 8.37999V7.95999H24.5298V10.288L24.0618 10.276L24.0378 9.67599C23.1498 9.12399 22.2258 8.66 21.2658 8.284L21.2898 11.62H23.5338V12.064H21.2898L21.3138 15.664C22.3378 15.272 23.3258 14.792 24.2778 14.224L24.3018 13.624L24.7698 13.612Z" fill="white"/>
<path d="M37.5061 7.95999V8.37999L37.0021 8.39199L34.5061 15.904L32.9461 16.108L31.3261 10.456L29.5621 15.904L28.0021 16.108L25.6021 8.39199L25.0981 8.37999V7.95999H28.6261V8.37999L28.0381 8.39199L29.4301 14.488L30.6061 8.39199L30.0181 8.37999V7.95999H33.5101V8.37999L32.9221 8.39199L34.3621 14.488L35.4901 8.39199L34.8781 8.37999V7.95999H37.5061Z" fill="white"/>
<path d="M40.0262 8.47599L42.1382 7.81599L41.7182 12.904L40.3622 13.168L40.0262 8.47599ZM40.2062 14.56L41.9582 14.164V15.868L40.2062 16.132V14.56Z" fill="white"/>
</svg>
