<svg width="300" height="300" viewBox="0 0 342 265" fill="none" xmlns="http://www.w3.org/2000/svg">
  <path d="M326.983 43.1521V60.3441V101.536V151.623V195.568V217.858V218.379V219.197C326.983 219.979 326.946 220.759 326.87 221.541C326.833 221.878 326.795 222.211 326.757 222.547C326.61 223.961 326.98 221.394 326.795 222.324C326.274 225.153 325.496 227.793 324.567 230.512C324.231 231.442 325.235 229.21 324.752 230.103C324.567 230.474 324.416 230.848 324.231 231.219C323.933 231.813 323.638 232.372 323.339 232.966C322.633 234.233 321.852 235.496 320.998 236.687C320.885 236.835 320.515 237.47 320.439 237.47C320.477 237.47 321.591 236.056 320.7 237.099C320.292 237.583 319.884 238.105 319.435 238.589C318.468 239.667 317.429 240.711 316.312 241.641C316.089 241.826 315.123 242.907 314.824 242.907C314.862 242.907 316.312 241.829 315.16 242.647C314.9 242.832 314.639 243.018 314.379 243.206C313.189 244.023 311.927 244.806 310.625 245.513C310.032 245.812 309.473 246.107 308.88 246.406C308.732 246.481 308.064 246.852 307.988 246.814C308.211 246.89 309.439 246.255 308.397 246.629C306.984 247.151 305.609 247.635 304.159 248.005C303.566 248.153 300.666 249.197 300.221 248.823C300.406 248.97 301.818 248.637 300.666 248.747C300.331 248.785 299.998 248.823 299.662 248.86C298.808 248.936 297.951 248.973 297.06 248.973C292.785 249.049 288.551 248.973 284.277 248.973H251.984H206.873H156.635H108.514H69.7559H48.0179H46.0846H45.7142H44.6377C43.9315 248.973 43.263 248.898 42.5569 248.86C42.221 248.823 41.8884 248.785 41.5525 248.747C39.7698 248.599 43.263 249.083 41.5149 248.747C40.1778 248.486 38.8753 248.225 37.576 247.892C36.9451 247.707 36.3112 247.521 35.6803 247.298C35.2723 247.151 33.5618 246.814 33.3766 246.443C33.3766 246.481 35.0871 247.226 33.7846 246.591C33.4864 246.443 33.1914 246.33 32.8932 246.182C32.3 245.884 31.7413 245.588 31.1481 245.29C29.8833 244.583 28.6216 243.8 27.4321 242.945C27.2846 242.832 26.6882 242.461 26.6506 242.386C26.7259 242.684 27.8024 243.316 27.0209 242.647C26.5376 242.238 26.0166 241.829 25.5332 241.38C24.4567 240.412 23.4147 239.372 22.4856 238.253C22.2628 237.992 21.2208 237.061 21.2208 236.763C21.2208 237.061 22.1122 237.954 21.4813 237.099C21.2961 236.838 21.111 236.577 20.9226 236.317C20.1066 235.125 19.3251 233.862 18.6189 232.558C18.3208 231.964 18.0257 231.404 17.7276 230.81C17.7276 230.81 17.2819 229.993 17.3195 229.917C17.2442 230.141 17.8782 231.332 17.5047 230.326C16.9837 228.912 16.5004 227.535 16.1301 226.083C15.9449 225.451 15.7942 224.782 15.6844 224.112C15.6091 223.776 15.5369 223.443 15.4992 223.107C15.4615 222.959 15.1634 221.284 15.3862 222.585C15.6091 223.776 15.3109 221.579 15.2732 221.284C15.1979 220.501 15.1979 219.722 15.1603 218.939V217.449V210.044V177.967V131.602V81.367V37.7172V11.0365V7.4283C12.6713 9.92072 10.217 12.3785 7.72812 14.8709H32.9966H93.3069H166.621H229.643C239.863 14.8709 250.154 15.2072 260.373 14.8709H260.781L253.349 7.4283V16.0617V39.0211V71.507V109.015V147.121V180.835V205.765C253.349 209.634 253.387 213.506 253.349 217.376C253.274 222.81 253.795 228.241 255.094 233.489C258.289 246.699 266.835 258.011 280.102 262.216C284.116 263.483 288.463 264.001 292.663 264.039C296.564 264.077 300.28 260.579 300.095 256.596C299.91 252.504 296.825 249.229 292.663 249.154C291.696 249.154 290.767 249.116 289.801 249.041C289.355 249.003 288.909 248.965 288.426 248.928C287.161 248.814 288.984 249.003 289.094 249.041C288.834 248.965 288.501 248.965 288.241 248.893C286.568 248.594 284.933 248.186 283.297 247.626C282.927 247.513 282.591 247.328 282.221 247.218C281.477 246.995 283.188 247.664 283.112 247.626C282.927 247.513 282.629 247.441 282.444 247.328C281.738 246.992 281.031 246.621 280.363 246.25C279.77 245.914 279.173 245.543 278.58 245.134C278.282 244.949 278.022 244.725 277.727 244.54C277.096 244.131 278.656 245.285 278.543 245.172C278.357 244.986 278.097 244.801 277.912 244.65C276.87 243.757 275.906 242.789 275.015 241.749C274.792 241.488 274.607 241.265 274.384 241.004C273.602 240.112 275.426 242.456 274.754 241.488C274.346 240.894 273.901 240.297 273.489 239.665C272.783 238.549 272.19 237.434 271.594 236.243C271.446 235.906 271.296 235.611 271.148 235.275C270.627 234.159 271.261 235.422 271.409 235.944C271.223 235.35 270.925 234.715 270.702 234.121C269.921 231.852 269.29 229.545 268.844 227.2C268.731 226.641 268.659 226.122 268.546 225.563C268.509 225.302 268.471 225.079 268.433 224.818C268.21 223.517 268.656 226.716 268.546 225.748C268.433 224.818 268.323 223.887 268.248 222.957C268.1 221.21 268.1 219.459 268.135 217.711C268.173 214.735 268.135 211.759 268.135 208.782V186.008V153.82V116.721V79.1367V45.5348V20.3434C268.135 16.2513 268.21 12.1557 268.135 8.06351V7.54177C268.135 3.52189 264.717 0.0991774 260.703 0.0991774H235.434H175.124H101.81H38.7876C28.5682 0.0991774 18.2773 -0.123972 8.05792 0.0991774H7.6499C3.63567 0.0991774 0.217773 3.52189 0.217773 7.54177V22.3892V59.7502V108.608V158.581V198.582V218.119C0.217773 226.79 2.4838 235.459 7.16653 242.791C14.0023 253.509 25.3009 261.398 37.9339 263.331C43.9537 264.261 50.0865 264 56.1406 264H87.6521H132.355H183.04H231.941H271.44H293.884C296.226 264 298.529 264 300.833 263.739C314.247 262.177 325.879 255.404 333.757 244.388C339.146 236.835 341.782 227.456 341.782 218.19V210.971V175.992V126.689V78.8331V47.686V43.3329C341.782 39.4262 338.365 35.7049 334.35 35.8904C330.402 35.8904 326.984 38.9799 326.984 43.1475L326.983 43.1521Z" fill="currentColor" />
  <path d="M289.196 43.6348V61.7199V104.961V157.207V202.532C289.196 209.827 289.01 217.157 289.196 224.448V224.747C289.196 228.653 292.613 232.375 296.628 232.189C300.642 232.004 304.06 228.914 304.06 224.747V206.662V163.42V111.174V65.8492C304.06 58.5543 304.245 51.2247 304.06 43.9334V43.6348C304.06 39.728 300.642 36.0067 296.628 36.1922C292.579 36.3776 289.196 39.4672 289.196 43.6348Z" fill="currentColor" />
  <path d="M42.345 69.5672H60.5895H104.363H157.313H203.055C210.449 69.5672 217.844 69.7527 225.238 69.5672H225.574C229.475 69.5672 233.191 66.1445 233.006 62.1246C232.821 58.1047 229.736 54.682 225.574 54.682H207.329H163.556H110.606H64.864C57.4695 54.682 50.0752 54.4966 42.6809 54.682H42.345C38.4438 54.682 34.7277 58.1047 34.9129 62.1246C35.1012 66.1791 38.1833 69.5672 42.345 69.5672Z" fill="currentColor" />
  <path d="M225.537 100.079H207.292H163.519H110.569H64.8268C57.4324 100.079 50.0381 99.8931 42.6437 100.079H42.3079C38.4066 100.079 34.6906 103.501 34.8758 107.521C35.061 111.541 38.1462 114.964 42.3079 114.964H60.5524H104.326H157.276H203.018C210.412 114.964 217.807 115.149 225.201 114.964H225.537C229.438 114.964 233.154 111.541 232.969 107.521C232.784 103.501 229.699 100.079 225.537 100.079Z" fill="currentColor" />
  <path d="M42.345 160.368H80.9527H142.004H156.049C159.95 160.368 163.666 156.945 163.481 152.925C163.296 148.905 160.21 145.482 156.049 145.482H117.441H56.3897H42.345C38.4438 145.482 34.7277 148.905 34.9129 152.925C35.1012 156.983 38.1833 160.368 42.345 160.368Z" fill="currentColor" />
  <path d="M156.052 190.91H117.445H56.3936H42.3489C38.4477 190.91 34.7316 194.333 34.9168 198.353C35.102 202.373 38.1872 205.795 42.3489 205.795H80.9566H142.008H156.052C159.954 205.795 163.67 202.373 163.485 198.353C163.299 194.298 160.214 190.91 156.052 190.91Z" fill="currentColor" />
</svg>