<svg width="300" height="300" viewBox="0 0 30 30" fill="none" xmlns="http://www.w3.org/2000/svg">
  <path d="M27.0102 4H2.98976C2.19738 4.00185 1.43791 4.31696 0.877639 4.87718C0.317407 5.43741 0.00185056 6.19689 0 6.9893V23.4237C0.00185352 24.2161 0.317419 24.9755 0.877639 25.5358C1.43787 26.096 2.19735 26.4116 2.98976 26.413H27.0102C27.8026 26.4116 28.5621 26.096 29.1224 25.5358C29.6826 24.9756 29.9981 24.2161 30 23.4237V6.9893C29.9981 6.19692 29.6826 5.43744 29.1224 4.87718C28.5621 4.31694 27.8027 4.00185 27.0102 4ZM2.98858 5.99303H27.0102C27.5607 5.99303 28.007 6.4388 28.007 6.98929V8.65657H1.9924V6.98929C1.9924 6.4388 2.43863 5.99303 2.98912 5.99303H2.98858ZM28.0067 13.2537H1.99213V10.6496H28.0067V13.2537ZM27.0104 24.4138H2.98877C2.43828 24.4138 1.99204 23.968 1.99204 23.4175V15.2467H28.0066V23.4175C28.0085 23.683 27.9042 23.9379 27.717 24.1265C27.5298 24.3146 27.2754 24.4207 27.0099 24.4207L27.0104 24.4138Z" fill="currentColor" />
  <path d="M9.87116 18.9136H5.75212C5.20209 18.9136 4.75586 19.3598 4.75586 19.9099C4.75586 20.4604 5.20209 20.9066 5.75212 20.9066H9.87116C10.4212 20.9066 10.8674 20.4604 10.8674 19.9099C10.8674 19.3598 10.4212 18.9136 9.87116 18.9136Z" fill="currentColor" />
  <path d="M14.7207 18.9136H13.5446C12.9946 18.9136 12.5483 19.3598 12.5483 19.9099C12.5483 20.4604 12.9946 20.9066 13.5446 20.9066H14.7207C15.2712 20.9066 15.7169 20.4604 15.7169 19.9099C15.7169 19.3598 15.2712 18.9136 14.7207 18.9136Z" fill="currentColor" />
</svg>