<svg width="34" height="25" viewBox="0 0 34 25" fill="none" xmlns="http://www.w3.org/2000/svg">
<path d="M30.7 0H3.3C1.48 0 0 1.49088 0 3.32426V20.8522C0 22.6856 1.48 24.1764 3.3 24.1764H30.7C32.52 24.1764 34 22.6856 34 20.8522V3.32426C34 1.49088 32.52 0 30.7 0ZM32 20.8522C32 21.5724 31.415 22.1617 30.7 22.1617H3.3C2.585 22.1617 2 21.5724 2 20.8522V9.06617H32V20.8522ZM32 7.05146H2V3.32426C2 2.604 2.585 2.0147 3.3 2.0147H30.7C31.415 2.0147 32 2.604 32 3.32426V7.05146Z" fill="black"/>
<path d="M6.49609 14.1026H15.9961C16.5461 14.1026 16.9961 13.6493 16.9961 13.0952C16.9961 12.5412 16.5461 12.0879 15.9961 12.0879H6.49609C5.94609 12.0879 5.49609 12.5412 5.49609 13.0952C5.49609 13.6493 5.94609 14.1026 6.49609 14.1026Z" fill="black"/>
<path d="M6.49609 19.1397H10.9961C11.5461 19.1397 11.9961 18.6864 11.9961 18.1324C11.9961 17.5783 11.5461 17.125 10.9961 17.125H6.49609C5.94609 17.125 5.49609 17.5783 5.49609 18.1324C5.49609 18.6864 5.94609 19.1397 6.49609 19.1397Z" fill="black"/>
<path d="M23.5 19.6433H28.5C29.05 19.6433 29.5 19.19 29.5 18.6359V13.5991C29.5 13.0451 29.05 12.5918 28.5 12.5918H23.5C22.95 12.5918 22.5 13.0451 22.5 13.5991V18.6359C22.5 19.19 22.95 19.6433 23.5 19.6433ZM24.5 14.6065H27.5V17.6286H24.5V14.6065Z" fill="black"/>
</svg>
