<svg width="17" height="17" viewBox="0 0 17 17" fill="none" xmlns="http://www.w3.org/2000/svg">
<path fill-rule="evenodd" clip-rule="evenodd" d="M4.02279 2.24668C3.79813 2.13305 3.53281 2.13305 3.30815 2.24668C3.22367 2.28942 3.11834 2.38067 2.65362 2.84539L2.52882 2.97019C2.08532 3.41369 1.96577 3.54196 1.87021 3.71208C1.75944 3.90925 1.66665 4.26609 1.66732 4.49225C1.66792 4.6935 1.69763 4.81469 1.82846 5.27564C2.47415 7.55055 3.69221 9.69737 5.4848 11.49C7.27739 13.2826 9.42422 14.5006 11.6991 15.1463C12.1601 15.2771 12.2813 15.3068 12.4825 15.3074C12.7087 15.3081 13.0655 15.2153 13.2627 15.1046C13.4328 15.009 13.5611 14.8894 14.0046 14.4459L14.1294 14.3211C14.5941 13.8564 14.6853 13.7511 14.7281 13.6666C14.8417 13.4419 14.8417 13.1766 14.7281 12.952C14.6853 12.8675 14.5941 12.7622 14.1294 12.2974L14.6892 11.7376L14.1294 12.2974L13.9751 12.1432C13.6697 11.8378 13.6011 11.7753 13.549 11.7415C13.2867 11.5709 12.9484 11.5709 12.686 11.7415C12.6339 11.7753 12.5653 11.8378 12.2599 12.1432C12.2539 12.1492 12.2477 12.1554 12.2414 12.1618C12.1704 12.2331 12.0804 12.3233 11.9724 12.4007L11.5115 11.757L11.9724 12.4007C11.5869 12.6767 11.0627 12.7661 10.6075 12.6334C10.4805 12.5964 10.376 12.546 10.2947 12.5068C10.2883 12.5037 10.282 12.5007 10.2759 12.4977C9.04883 11.9086 7.89957 11.1058 6.88428 10.0905C5.86899 9.07519 5.06617 7.92594 4.47703 6.69888C4.47408 6.69275 4.47105 6.68646 4.46795 6.68003C4.42876 6.59873 4.37838 6.49423 4.34137 6.36726L5.1014 6.14571L4.34137 6.36726C4.20867 5.91202 4.29804 5.38789 4.5741 5.00236L4.5741 5.00236C4.65145 4.89435 4.74171 4.8044 4.81302 4.73336C4.81937 4.72703 4.82557 4.72086 4.8316 4.71483C5.13695 4.40947 5.19947 4.34082 5.23331 4.28878L5.23331 4.28878C5.40391 4.02638 5.40391 3.68811 5.23331 3.42572C5.19947 3.37368 5.13695 3.30502 4.8316 2.99966L4.67732 2.84539C4.2126 2.38067 4.10728 2.28942 4.02279 2.24668ZM2.59352 0.833797C3.2675 0.492901 4.06344 0.492901 4.73742 0.833797C5.07989 1.00702 5.3772 1.30509 5.72114 1.6499C5.74614 1.67497 5.77138 1.70028 5.79691 1.72581L5.95118 1.88008C5.968 1.8969 5.98467 1.91354 6.00116 1.93001C6.2281 2.15656 6.42359 2.35172 6.56074 2.56265L5.89702 2.99419L6.56074 2.56266C7.07254 3.34984 7.07254 4.36465 6.56074 5.15184C6.42359 5.36278 6.2281 5.55793 6.00117 5.78448C5.98467 5.80096 5.968 5.81759 5.95118 5.83441C5.90558 5.88002 5.88231 5.90341 5.8661 5.92055C5.86581 5.92184 5.86552 5.92327 5.86526 5.92481C5.86496 5.92653 5.86475 5.92812 5.8646 5.92955C5.86721 5.93534 5.87074 5.94299 5.8756 5.95334C5.88321 5.96951 5.89215 5.98814 5.90437 6.01358C6.41723 7.08176 7.11666 8.08369 8.00387 8.9709C8.89107 9.8581 9.893 10.5575 10.9612 11.0704L10.6185 11.7841L10.9612 11.0704C10.9866 11.0826 11.0053 11.0915 11.0214 11.0992C11.0318 11.104 11.0394 11.1076 11.0452 11.1102C11.0466 11.11 11.0482 11.1098 11.05 11.1095C11.0515 11.1092 11.0529 11.109 11.0542 11.1087C11.0714 11.0925 11.0947 11.0692 11.1403 11.0236C11.1572 11.0068 11.1738 10.9901 11.1903 10.9736C11.4168 10.7467 11.612 10.5512 11.8229 10.414C12.6101 9.90222 13.6249 9.90222 14.4121 10.414C14.623 10.5512 14.8182 10.7467 15.0447 10.9736C15.0612 10.9901 15.0779 11.0068 15.0947 11.0236L14.5349 11.5834L15.0947 11.0236L15.249 11.1779C15.2745 11.2034 15.2998 11.2286 15.3249 11.2536C15.6697 11.5976 15.9677 11.8949 16.141 12.2373C16.4819 12.9113 16.4819 13.7073 16.141 14.3812C15.9677 14.7237 15.6697 15.021 15.3249 15.365C15.2998 15.39 15.2745 15.4152 15.249 15.4407L15.1242 15.5655C15.1061 15.5836 15.0882 15.6015 15.0706 15.6192C14.7022 15.9879 14.4198 16.2706 14.0381 16.485C13.6028 16.7296 12.9772 16.8923 12.4778 16.8908C12.0409 16.8895 11.7223 16.7989 11.3114 16.6821C11.2967 16.6779 11.2818 16.6737 11.2668 16.6695C8.73883 15.952 6.35359 14.5979 4.36521 12.6096C2.37683 10.6212 1.02281 8.23593 0.305292 5.70796C0.301038 5.69297 0.296815 5.67811 0.292626 5.66337C0.17585 5.25249 0.0852939 4.93387 0.0839945 4.49696C0.0825084 3.9976 0.2452 3.37199 0.489769 2.93662L0.489771 2.93662C0.704153 2.55498 0.9869 2.27252 1.3556 1.9042C1.37328 1.88654 1.39116 1.86868 1.40924 1.8506L1.53403 1.72581C1.55956 1.70028 1.58481 1.67497 1.60981 1.6499C1.95374 1.30509 2.25105 1.00702 2.59352 0.833797L2.94679 1.53224L2.59352 0.833797Z" fill="white"/>
</svg>
