<svg width="300" height="300" viewBox="0 0 30 30" fill="none" xmlns="http://www.w3.org/2000/svg">
  <path d="M15 3C8.373 3 3 8.373 3 15C3 20.084 6.163 24.426 10.627 26.174C10.522 25.225 10.427 23.768 10.669 22.732C10.887 21.796 12.076 16.767 12.076 16.767C12.076 16.767 11.717 16.048 11.717 14.986C11.717 13.317 12.684 12.072 13.888 12.072C14.912 12.072 15.406 12.841 15.406 13.762C15.406 14.792 14.751 16.331 14.412 17.757C14.129 18.952 15.011 19.926 16.189 19.926C18.322 19.926 19.961 17.677 19.961 14.431C19.961 11.558 17.897 9.549 14.949 9.549C11.535 9.549 9.531 12.11 9.531 14.757C9.531 15.788 9.928 16.894 10.424 17.496C10.522 17.615 10.536 17.719 10.507 17.84C10.416 18.219 10.214 19.034 10.174 19.201C10.122 19.421 10 19.467 9.773 19.361C8.274 18.663 7.337 16.472 7.337 14.712C7.337 10.927 10.087 7.45 15.266 7.45C19.429 7.45 22.664 10.416 22.664 14.381C22.664 18.517 20.056 21.845 16.437 21.845C15.221 21.845 14.078 21.213 13.687 20.467C13.687 20.467 13.085 22.758 12.939 23.32C12.668 24.362 11.937 25.669 11.447 26.466C12.57 26.812 13.763 27 15 27C21.627 27 27 21.627 27 15C27 8.373 21.627 3 15 3Z" fill="currentColor" />
</svg>