<svg width="300" height="300" viewBox="0 0 22 22" fill="none" xmlns="http://www.w3.org/2000/svg">
<path fill-rule="evenodd" clip-rule="evenodd" d="M0 11C0 10.4477 0.447715 10 1 10H21C21.5523 10 22 10.4477 22 11C22 11.5523 21.5523 12 21 12H1C0.447715 12 0 11.5523 0 11Z" fill="currentColor"/>
<path fill-rule="evenodd" clip-rule="evenodd" d="M11 22C10.4477 22 10 21.5523 10 21L10 1C10 0.447716 10.4477 -1.95703e-08 11 -4.37114e-08C11.5523 -6.78525e-08 12 0.447716 12 1L12 21C12 21.5523 11.5523 22 11 22Z" fill="currentColor"/>
</svg>
