<svg width="41" height="41" viewBox="0 0 41 41" fill="none" xmlns="http://www.w3.org/2000/svg">
<path d="M10.386 36.9869C10.386 36.7128 10.386 36.4388 10.386 36.1647C10.3922 35.9518 10.3459 35.7407 10.2511 35.5499C10.1562 35.3592 10.0158 35.1946 9.84222 35.0708C9.66861 34.9471 9.46715 34.8678 9.25561 34.8402C9.04407 34.8125 8.82896 34.8372 8.62926 34.9122C8.15522 35.0706 7.69406 35.2612 7.22646 35.4389C6.9906 35.5468 6.72757 35.581 6.47187 35.5371C6.21618 35.4931 5.97976 35.3731 5.79362 35.1926C5.35176 34.7837 5.36463 34.2827 5.52336 33.7667C5.66493 33.3235 5.83652 32.8888 6.00383 32.4542C6.38563 31.4628 5.74858 30.54 4.67181 30.5507C4.18919 30.5507 3.70872 30.615 3.22611 30.6278C2.66842 30.6428 2.19653 30.4372 1.95844 29.9148C1.84643 29.6823 1.80463 29.4222 1.83815 29.1663C1.87167 28.9105 1.97905 28.6698 2.14719 28.4739C2.42818 28.1206 2.70274 27.763 3.00518 27.4268C3.83528 26.4869 3.16605 25.3842 2.27374 25.1594C1.84475 25.0545 1.43078 24.9453 1.01465 24.8297C0.555632 24.6948 0.0944654 24.5235 0.0301166 23.9732C-0.040667 23.3695 -0.0363771 22.7806 0.613546 22.4188C1.01736 22.1843 1.4083 21.9285 1.78469 21.6523C2.65984 21.0378 2.64268 19.9715 1.75681 19.372C1.35785 19.1001 0.963174 18.8196 0.544907 18.5819C-0.0513918 18.2308 -0.0149275 17.6784 0.0279717 17.126C0.0436834 16.9218 0.125037 16.7281 0.259923 16.5738C0.394809 16.4195 0.576014 16.3128 0.776563 16.2695C1.26561 16.1175 1.75895 15.9612 2.25873 15.8413C3.18321 15.6272 3.84171 14.5117 2.99874 13.5953C2.68343 13.2549 2.42389 12.863 2.14076 12.499C1.96584 12.2938 1.85894 12.0395 1.83474 11.7711C1.81054 11.5027 1.87024 11.2334 2.00562 11.0003C2.25015 10.4993 2.70059 10.3708 3.21967 10.3943C3.73875 10.4179 4.21922 10.4265 4.72114 10.4629C4.93441 10.472 5.1468 10.4304 5.34086 10.3416C5.53491 10.2529 5.70509 10.1194 5.83742 9.95218C5.96974 9.78498 6.06044 9.58882 6.10204 9.37983C6.14365 9.17084 6.13499 8.95497 6.07676 8.74997C5.9309 8.27464 5.73571 7.81431 5.56197 7.3454C5.34747 6.79514 5.34747 6.262 5.79362 5.82093C6.23978 5.37987 6.73526 5.39271 7.27365 5.58327C7.72409 5.77811 8.15308 5.96011 8.62068 6.10784C8.82529 6.18588 9.04622 6.21148 9.26329 6.18231C9.48037 6.15314 9.68666 6.07013 9.8633 5.94086C10.04 5.8116 10.1813 5.6402 10.2745 5.44233C10.3677 5.24447 10.4097 5.02644 10.3967 4.80819C10.3967 4.27505 10.3838 3.73764 10.371 3.21307C10.3581 2.68849 10.5125 2.29025 10.9909 2.05044C11.2117 1.92908 11.4634 1.87514 11.7147 1.89531C11.966 1.91549 12.2058 2.00889 12.4044 2.16392C12.7712 2.42514 13.1165 2.71633 13.4597 3.00538C14.4207 3.81472 15.4502 3.51496 15.8192 2.30952C15.9586 1.84918 16.068 1.38028 16.2031 0.917798C16.2592 0.70707 16.3704 0.515002 16.5253 0.361238C16.6802 0.207474 16.8732 0.0975294 17.0846 0.0426482C17.296 -0.0122329 17.5183 -0.0100818 17.7286 0.0488818C17.9389 0.107845 18.1297 0.221506 18.2816 0.378239C18.652 0.822899 18.9876 1.29534 19.2854 1.79137C19.9439 2.75273 21.0014 2.74845 21.6449 1.77638C21.8894 1.41882 22.1404 1.06339 22.3699 0.695123C22.6702 0.215515 23.0927 -0.0628288 23.6568 0.01211C24.2553 0.0913309 24.6242 0.474589 24.7787 1.06553C24.9031 1.54728 25.0296 2.03117 25.1884 2.50222C25.5058 3.42504 26.4539 3.73335 27.2518 3.16596C27.6572 2.87905 28.0304 2.54718 28.4208 2.23886C28.6307 2.04631 28.8979 1.92746 29.1817 1.90041C29.4655 1.87336 29.7504 1.93957 29.9931 2.08898C30.4435 2.34592 30.6601 2.91545 30.5958 3.50854C30.5372 4.01947 30.5193 4.53423 30.5422 5.04799C30.5851 5.84877 31.4731 6.3712 32.3075 6.10356C32.7987 5.94512 33.2727 5.73957 33.7596 5.57471C34.6176 5.28138 35.3233 5.66892 35.5078 6.55319C35.5398 6.75682 35.5199 6.96523 35.4498 7.15913C35.2933 7.63231 35.0959 8.09051 34.92 8.55727C34.5254 9.60855 35.2718 10.5528 36.3958 10.4522C36.8591 10.4115 37.331 10.4222 37.7986 10.4222C38.8861 10.4222 39.4716 11.4456 38.8925 12.3727C38.6137 12.8202 38.234 13.2035 37.923 13.6317C37.2516 14.5524 37.5819 15.5202 38.6737 15.8542C39.1199 15.9912 39.5725 16.1068 40.0229 16.2289C40.2648 16.2904 40.4835 16.4208 40.6524 16.6043C40.8213 16.7877 40.9332 17.0162 40.9743 17.2619C41.0154 17.5077 40.9841 17.7601 40.8841 17.9883C40.7841 18.2166 40.6198 18.411 40.4111 18.5477C40.0229 18.8046 39.6304 19.0573 39.2443 19.3206C38.2426 19.9993 38.2447 21.0335 39.2443 21.7015C39.6175 21.9542 39.9972 22.194 40.3682 22.4509C40.5939 22.5816 40.7738 22.7785 40.8832 23.015C40.9926 23.2514 41.0262 23.5157 40.9795 23.772C40.942 24.0291 40.8241 24.2679 40.6427 24.4544C40.4613 24.6408 40.2257 24.7654 39.9693 24.8104C39.5038 24.9325 39.0362 25.0545 38.5772 25.2044C37.5626 25.5341 37.243 26.5661 37.8951 27.3926C38.1825 27.7587 38.4721 28.1249 38.7767 28.4781C38.9433 28.664 39.0521 28.8943 39.0898 29.1409C39.1275 29.3875 39.0924 29.6397 38.9889 29.8667C38.8854 30.0938 38.718 30.2858 38.507 30.4194C38.296 30.5531 38.0506 30.6225 37.8007 30.6192C37.2881 30.6192 36.7733 30.5486 36.2585 30.5443C35.1753 30.5315 34.5575 31.4179 34.9222 32.4435C35.1045 32.9573 35.3018 33.4669 35.4756 33.9851C35.6407 34.469 35.4627 34.8715 35.1066 35.1969C34.9567 35.3564 34.7632 35.4686 34.5502 35.5196C34.3371 35.5705 34.1137 35.5581 33.9076 35.4838C33.3778 35.2911 32.8501 35.0899 32.3161 34.9122C32.1122 34.8329 31.8918 34.8058 31.6748 34.8334C31.4578 34.861 31.2512 34.9424 31.0738 35.0701C30.8964 35.1978 30.7538 35.3678 30.6591 35.5646C30.5643 35.7614 30.5205 35.9788 30.5314 36.1968C30.5314 36.822 30.6258 37.4579 30.5314 38.066C30.3813 39.0531 29.3732 39.4299 28.5452 38.8561C28.1162 38.5649 27.7323 38.2287 27.3204 37.9183C26.4625 37.2759 25.4179 37.6292 25.1133 38.6677C25.0017 39.0531 24.8988 39.4406 24.8087 39.8324C24.68 40.4105 24.4054 40.8644 23.7791 40.9672C23.4929 41.0326 23.1931 40.9996 22.928 40.8737C22.6629 40.7478 22.4481 40.5364 22.3184 40.2735C22.0889 39.8688 21.8143 39.4877 21.5484 39.1066C21.4443 38.9429 21.3038 38.8055 21.1378 38.7049C20.9718 38.6043 20.7848 38.5434 20.5913 38.5268C20.3978 38.5102 20.2031 38.5384 20.0224 38.6093C19.8416 38.6802 19.6797 38.7917 19.5493 38.9353C19.1725 39.3751 18.8365 39.8481 18.5454 40.3484C18.4089 40.5835 18.202 40.7698 17.9538 40.8812C17.7056 40.9926 17.4286 41.0235 17.1619 40.9694C16.6214 40.8944 16.3297 40.5411 16.1945 40.0187C16.0594 39.4963 15.9307 39.0252 15.7655 38.5392C15.4374 37.5821 14.4249 37.2888 13.6206 37.9097C13.213 38.2223 12.8141 38.552 12.4087 38.8646C12.2151 39.0265 11.9754 39.1233 11.7236 39.1413C11.4718 39.1594 11.2206 39.0978 11.0059 38.9653C10.7936 38.8618 10.6189 38.6948 10.5063 38.4876C10.3936 38.2803 10.3486 38.0431 10.3774 37.8091C10.3967 37.535 10.3774 37.261 10.3774 36.9869H10.386Z" fill="#F9ED3D"/>
<path d="M7.40688 21.652L11.1629 21.556L11.0429 22.108H7.34688L7.40688 21.652ZM14.9789 20.308C15.4189 20.308 15.8109 20.396 16.1549 20.572C16.4989 20.74 16.7669 20.98 16.9589 21.292C17.1509 21.596 17.2469 21.94 17.2469 22.324C17.2469 22.812 17.0989 23.276 16.8029 23.716C16.5069 24.156 16.0869 24.512 15.5429 24.784C15.0069 25.048 14.3909 25.18 13.6949 25.18C13.3669 25.18 13.0429 25.144 12.7229 25.072C12.4029 25.008 12.1189 24.916 11.8709 24.796L12.4109 23.308C13.4429 23.82 14.4589 24.16 15.4589 24.328C15.5389 24.072 15.5789 23.804 15.5789 23.524C15.5789 22.876 15.3269 22.392 14.8229 22.072C14.3269 21.752 13.5269 21.604 12.4229 21.628V21.256L15.2069 18.58L12.4229 19.072L12.3869 19.54H12.0029V16.96H16.9109V18.244L13.9349 20.452C14.2709 20.356 14.6189 20.308 14.9789 20.308ZM21.5178 16.78C22.0778 16.78 22.5898 16.932 23.0538 17.236C23.5178 17.54 23.8818 17.976 24.1458 18.544C24.4178 19.112 24.5538 19.776 24.5538 20.536C24.5538 21.184 24.4738 21.8 24.3138 22.384C24.1618 22.96 23.9258 23.46 23.6058 23.884C23.3018 24.292 22.9218 24.612 22.4658 24.844C22.0098 25.068 21.4858 25.18 20.8938 25.18C20.3338 25.18 19.8218 25.028 19.3577 24.724C18.8938 24.42 18.5258 23.984 18.2538 23.416C17.9898 22.848 17.8578 22.184 17.8578 21.424C17.8578 20.776 17.9338 20.164 18.0858 19.588C18.2458 19.004 18.4858 18.5 18.8058 18.076C19.1098 17.668 19.4898 17.352 19.9458 17.128C20.4018 16.896 20.9258 16.78 21.5178 16.78ZM19.3818 19.972C19.3818 21.236 19.6898 22.168 20.3058 22.768C20.9218 23.36 21.7658 23.684 22.8378 23.74C22.9658 23.012 23.0298 22.428 23.0298 21.988C23.0298 20.724 22.7218 19.796 22.1058 19.204C21.4898 18.604 20.6458 18.276 19.5738 18.22C19.4458 18.948 19.3818 19.532 19.3818 19.972ZM32.5645 16.528L26.9965 25.24L26.6005 25L32.1685 16.312L32.5645 16.528ZM29.3605 18.832C29.3605 19.296 29.2525 19.724 29.0365 20.116C28.8205 20.508 28.5245 20.816 28.1485 21.04C27.7805 21.264 27.3805 21.376 26.9485 21.376C26.3885 21.376 25.9245 21.2 25.5565 20.848C25.1885 20.496 25.0045 20.012 25.0045 19.396C25.0045 18.924 25.1125 18.492 25.3285 18.1C25.5445 17.708 25.8365 17.4 26.2045 17.176C26.5805 16.952 26.9845 16.84 27.4165 16.84C27.9765 16.84 28.4405 17.016 28.8085 17.368C29.1765 17.72 29.3605 18.208 29.3605 18.832ZM26.1925 18.34C26.1925 18.988 26.3525 19.488 26.6725 19.84C26.9925 20.184 27.4725 20.392 28.1125 20.464C28.1525 20.248 28.1725 20.052 28.1725 19.876C28.1725 19.228 28.0125 18.732 27.6925 18.388C27.3725 18.044 26.8925 17.832 26.2525 17.752C26.2125 17.968 26.1925 18.164 26.1925 18.34ZM31.8565 20.644C32.4165 20.644 32.8805 20.82 33.2485 21.172C33.6165 21.524 33.8005 22.012 33.8005 22.636C33.8005 23.1 33.6925 23.528 33.4765 23.92C33.2605 24.312 32.9645 24.62 32.5885 24.844C32.2205 25.068 31.8205 25.18 31.3885 25.18C30.8285 25.18 30.3645 25.004 29.9965 24.652C29.6285 24.3 29.4445 23.816 29.4445 23.2C29.4445 22.728 29.5525 22.296 29.7685 21.904C29.9845 21.512 30.2765 21.204 30.6445 20.98C31.0205 20.756 31.4245 20.644 31.8565 20.644ZM30.6325 22.144C30.6325 22.792 30.7925 23.292 31.1125 23.644C31.4325 23.988 31.9125 24.196 32.5525 24.268C32.5925 24.052 32.6125 23.856 32.6125 23.68C32.6125 23.032 32.4525 22.536 32.1325 22.192C31.8125 21.848 31.3325 21.636 30.6925 21.556C30.6525 21.772 30.6325 21.968 30.6325 22.144Z" fill="black"/>
</svg>
