<svg width="300" height="300" viewBox="0 0 30 30" fill="none" xmlns="http://www.w3.org/2000/svg">
  <path d="M8.40261 25.0529C10.961 26.7356 14.0649 27.3782 17.0815 26.8503C20.0976 26.3224 22.7986 24.6632 24.6335 22.212L24.8741 23.8382C24.946 24.3034 25.346 24.6473 25.8169 24.6482H25.9564C26.2049 24.6124 26.4292 24.4782 26.5792 24.2765C26.7289 24.0743 26.7916 23.821 26.7536 23.5725L25.9816 18.3581L21.0458 19.5733C20.5355 19.6991 20.2239 20.2147 20.3497 20.7249C20.4755 21.2351 20.991 21.5468 21.5013 21.421L23.1719 21.0096C21.5075 23.2758 18.9755 24.7478 16.1824 25.0727C13.3896 25.398 10.5871 24.547 8.4463 22.7236C6.30597 20.9005 5.02015 18.2689 4.89653 15.4598C4.87401 14.9354 4.4304 14.5289 3.90646 14.5519C3.38207 14.5744 2.97553 15.018 2.99848 15.5419C3.17769 19.3936 5.18559 22.9275 8.40258 25.0529L8.40261 25.0529Z" fill="currentColor" />
  <path d="M4.15592 11.1755L9.32611 10.049C9.57727 10.0004 9.79797 9.853 9.93878 9.63936C10.0796 9.42573 10.1281 9.16442 10.0738 8.91413C10.0191 8.6643 9.86595 8.44713 9.64878 8.31162C9.43204 8.17611 9.16941 8.13418 8.9209 8.19464L7.2502 8.56145V8.56189C8.9487 6.51117 11.3866 5.21247 14.0355 4.94636C16.6848 4.67974 19.3323 5.4681 21.4048 7.13968C23.4767 8.81128 24.8075 11.232 25.1081 13.8773C25.1624 14.3566 25.568 14.719 26.0509 14.719H26.1586H26.1582C26.6791 14.6594 27.0529 14.1894 26.9938 13.6685C26.6345 10.5015 25.0327 7.60663 22.54 5.62032C20.047 3.63401 16.868 2.71894 13.7004 3.07557C10.5334 3.43267 7.63728 5.03272 5.64917 7.52402L5.45318 5.91028C5.39006 5.38589 4.91423 5.01202 4.39029 5.07514C3.8659 5.13782 3.49203 5.61409 3.55471 6.13804L4.15592 11.1755Z" fill="currentColor" />
</svg>