<svg width="30" height="35" viewBox="0 0 30 35" fill="none" xmlns="http://www.w3.org/2000/svg">
<path d="M29.9897 12.3155C29.9845 12.2638 29.9793 12.2172 29.969 12.1707C29.969 12.1603 29.969 12.15 29.9638 12.1448L26.8603 0.765517C26.7362 0.310345 26.3276 0 25.8621 0H4.13793C3.67241 0 3.26379 0.310344 3.13965 0.760344L0.0362067 12.1397C0.0362067 12.15 0.0362066 12.1603 0.0310342 12.1655C0.0206894 12.2121 0.0155175 12.2638 0.0103451 12.3103C0.0103451 12.3362 0.00517241 12.3621 0 12.3879V12.4086V33.6155C0 34.1845 0.465517 34.65 1.03448 34.65H28.9655C29.5345 34.65 30 34.1845 30 33.6155V12.4138C30 12.4086 30 12.4034 30 12.3931C30 12.3672 29.9948 12.3414 29.9897 12.3155V12.3155ZM16.0345 2.06897H25.0707L27.6103 11.3793H16.0345V2.06897ZM4.92931 2.06897H13.9655V11.3793H2.38966L4.92931 2.06897ZM27.931 32.5862H2.06897V13.4483H27.931V32.5862Z" fill="black"/>
<path d="M10.8625 19.1383H19.1384C19.7074 19.1383 20.1729 18.6728 20.1729 18.1038C20.1729 17.5349 19.7074 17.0693 19.1384 17.0693H10.8625C10.2936 17.0693 9.82806 17.5349 9.82806 18.1038C9.82806 18.6728 10.2936 19.1383 10.8625 19.1383Z" fill="black"/>
</svg>
