<svg width="51" height="51" viewBox="0 0 51 51" fill="none" xmlns="http://www.w3.org/2000/svg">
  <path d="M12.9191 46.0081C12.9191 45.6672 12.9191 45.3263 12.9191 44.9854C12.9269 44.7206 12.8693 44.4579 12.7513 44.2206C12.6334 43.9833 12.4587 43.7787 12.2428 43.6247C12.0268 43.4707 11.7762 43.3722 11.5131 43.3378C11.2499 43.3033 10.9824 43.3341 10.734 43.4273C10.1443 43.6244 9.57066 43.8614 8.98901 44.0825C8.69562 44.2167 8.36844 44.2593 8.05038 44.2047C7.73232 44.15 7.43823 44.0007 7.2067 43.7762C6.65707 43.2675 6.67308 42.6443 6.87052 42.0024C7.04662 41.4511 7.26007 40.9105 7.46818 40.3698C7.9431 39.1367 7.15067 37.9888 5.81128 38.0021C5.21095 38.0021 4.61329 38.082 4.01296 38.098C3.31925 38.1166 2.73226 37.861 2.4361 37.2111C2.29678 36.9218 2.24479 36.5983 2.28648 36.2801C2.32817 35.9618 2.46174 35.6625 2.6709 35.4187C3.02042 34.9792 3.36194 34.5345 3.73815 34.1163C4.77071 32.9471 3.93825 31.5755 2.82832 31.2959C2.29469 31.1654 1.77974 31.0295 1.26213 30.8857C0.691152 30.7179 0.117506 30.5049 0.0374621 29.8204C-0.0505858 29.0693 -0.0452496 28.3369 0.763191 27.8868C1.26549 27.5952 1.75179 27.2769 2.21999 26.9333C3.30858 26.169 3.28723 24.8426 2.1853 24.0969C1.68903 23.7586 1.19809 23.4097 0.677811 23.1141C-0.0639264 22.6773 -0.0185684 21.9902 0.034794 21.3031C0.0543378 21.049 0.155534 20.8081 0.323319 20.6162C0.491104 20.4242 0.716505 20.2915 0.965968 20.2377C1.5743 20.0486 2.18797 19.8542 2.80964 19.7051C3.9596 19.4387 4.77871 18.0511 3.73014 16.9112C3.33793 16.4878 3.01509 16.0004 2.66289 15.5476C2.44532 15.2923 2.31234 14.9759 2.28224 14.6421C2.25213 14.3082 2.32639 13.9733 2.4948 13.6833C2.79897 13.06 3.35927 12.9002 4.00496 12.9295C4.65064 12.9588 5.2483 12.9695 5.87264 13.0148C6.13793 13.0261 6.40212 12.9744 6.6435 12.864C6.88489 12.7535 7.09658 12.5875 7.26118 12.3795C7.42578 12.1716 7.53859 11.9276 7.59035 11.6676C7.6421 11.4076 7.63132 11.1391 7.55889 10.8841C7.37746 10.2929 7.13466 9.72023 6.91855 9.13697C6.65173 8.45249 6.65173 7.78932 7.2067 7.24067C7.76167 6.69203 8.37801 6.70801 9.04771 6.94505C9.60801 7.18741 10.1416 7.41379 10.7233 7.59756C10.9778 7.69463 11.2526 7.72648 11.5226 7.69019C11.7927 7.65391 12.0493 7.55065 12.269 7.38986C12.4887 7.22906 12.6646 7.01586 12.7805 6.76973C12.8964 6.5236 12.9487 6.25241 12.9325 5.98092C12.9325 5.31775 12.9165 4.64926 12.9005 3.99674C12.8845 3.34422 13.0766 2.84885 13.6716 2.55055C13.9463 2.39959 14.2594 2.33249 14.5719 2.35759C14.8845 2.38268 15.1828 2.49886 15.4299 2.69171C15.8861 3.01664 16.3157 3.37885 16.7426 3.7384C17.9379 4.74514 19.2186 4.37227 19.6775 2.87282C19.8509 2.3002 19.987 1.71693 20.1551 1.14165C20.2249 0.879526 20.3632 0.640613 20.5559 0.449345C20.7485 0.258077 20.9886 0.121317 21.2516 0.0530502C21.5146 -0.0152166 21.791 -0.0125407 22.0526 0.0608042C22.3142 0.134149 22.5516 0.275531 22.7405 0.470493C23.2013 1.02361 23.6187 1.61127 23.9892 2.22829C24.8083 3.42412 26.1237 3.4188 26.9241 2.20965C27.2283 1.76487 27.5405 1.32276 27.8259 0.864666C28.1995 0.26808 28.7251 -0.0781529 29.4268 0.0150636C30.1712 0.113607 30.6301 0.590343 30.8222 1.32542C30.977 1.92467 31.1344 2.52658 31.3319 3.11251C31.7267 4.26041 32.906 4.64393 33.8986 3.93815C34.4029 3.58126 34.8671 3.16845 35.3527 2.78493C35.6138 2.54541 35.9462 2.39758 36.2992 2.36392C36.6522 2.33027 37.0066 2.41264 37.3084 2.59849C37.8688 2.91809 38.1382 3.62654 38.0582 4.36428C37.9853 4.99983 37.963 5.64015 37.9915 6.27921C38.0448 7.2753 39.1494 7.92515 40.1873 7.59223C40.7983 7.39515 41.388 7.13947 41.9937 6.93439C43.0609 6.56952 43.9387 7.05158 44.1682 8.15153C44.2081 8.40482 44.1833 8.66407 44.0961 8.90526C43.9014 9.49385 43.6559 10.0638 43.4371 10.6444C42.9462 11.9521 43.8747 13.1266 45.2728 13.0015C45.8491 12.9509 46.4361 12.9642 47.0177 12.9642C48.3705 12.9642 49.0989 14.2372 48.3785 15.3905C48.0316 15.9471 47.5594 16.4238 47.1725 16.9565C46.3374 18.1017 46.7483 19.3056 48.1063 19.721C48.6613 19.8915 49.2243 20.0353 49.7846 20.1871C50.0854 20.2637 50.3575 20.4259 50.5676 20.6541C50.7777 20.8822 50.9169 21.1665 50.968 21.4722C51.0192 21.7778 50.9802 22.0918 50.8559 22.3757C50.7315 22.6597 50.5271 22.9014 50.2675 23.0715C49.7846 23.3911 49.2963 23.7054 48.816 24.033C47.57 24.8772 47.5727 26.1636 48.816 26.9946C49.2803 27.3089 49.7526 27.6072 50.2141 27.9268C50.4949 28.0893 50.7186 28.3343 50.8547 28.6284C50.9908 28.9225 51.0326 29.2513 50.9746 29.57C50.9278 29.8899 50.7812 30.1869 50.5556 30.4188C50.33 30.6508 50.0368 30.8057 49.7179 30.8617C49.1389 31.0135 48.5572 31.1654 47.9863 31.3518C46.7242 31.7619 46.3267 33.0457 47.1378 34.0737C47.4953 34.5291 47.8555 34.9846 48.2344 35.424C48.4416 35.6553 48.577 35.9417 48.6239 36.2484C48.6707 36.5552 48.6272 36.8689 48.4984 37.1513C48.3697 37.4337 48.1614 37.6726 47.8989 37.8388C47.6365 38.005 47.3312 38.0914 47.0204 38.0874C46.3827 38.0874 45.7424 37.9995 45.102 37.9941C43.7546 37.9782 42.9862 39.0808 43.4398 40.3565C43.6666 40.9957 43.912 41.6296 44.1282 42.2741C44.3336 42.876 44.1122 43.3767 43.6692 43.7815C43.4827 43.9799 43.2421 44.1195 42.977 44.1829C42.712 44.2463 42.4341 44.2308 42.1778 44.1384C41.5187 43.8987 40.8624 43.6484 40.198 43.4273C39.9445 43.3287 39.6703 43.2951 39.4004 43.3294C39.1305 43.3637 38.8734 43.4649 38.6528 43.6238C38.4321 43.7826 38.2547 43.9941 38.1369 44.2389C38.0191 44.4837 37.9645 44.7541 37.9781 45.0253C37.9781 45.803 38.0955 46.594 37.9781 47.3504C37.7914 48.5782 36.5374 49.047 35.5075 48.3332C34.9738 47.971 34.4962 47.5528 33.984 47.1666C32.9167 46.3676 31.6173 46.8071 31.2385 48.0988C31.0997 48.5782 30.9717 49.0603 30.8596 49.5477C30.6995 50.2668 30.358 50.8314 29.5789 50.9592C29.2229 51.0405 28.8499 50.9995 28.5202 50.8429C28.1904 50.6863 27.9233 50.4233 27.7619 50.0963C27.4764 49.5929 27.1349 49.1189 26.8041 48.6448C26.6746 48.4412 26.4999 48.2702 26.2934 48.1451C26.0869 48.02 25.8542 47.9442 25.6136 47.9236C25.3729 47.9029 25.1307 47.9381 24.9059 48.0262C24.6811 48.1144 24.4796 48.2531 24.3174 48.4317C23.8487 48.9788 23.4308 49.5671 23.0687 50.1895C22.8989 50.4819 22.6415 50.7137 22.3328 50.8523C22.024 50.9908 21.6795 51.0292 21.3477 50.9619C20.6754 50.8687 20.3125 50.4292 20.1444 49.7794C19.9763 49.1295 19.8162 48.5436 19.6108 47.939C19.2026 46.7485 17.9432 46.3836 16.9427 47.156C16.4357 47.5448 15.9395 47.955 15.4352 48.3438C15.1944 48.5451 14.8962 48.6655 14.583 48.688C14.2697 48.7105 13.9574 48.6338 13.6902 48.469C13.4262 48.3403 13.2089 48.1326 13.0688 47.8748C12.9286 47.617 12.8726 47.3219 12.9085 47.0308C12.9325 46.6899 12.9085 46.349 12.9085 46.0081H12.9191Z" fill="currentColor" />
</svg>
  