<svg width="300" height="300" viewBox="0 0 26 25" fill="none" xmlns="http://www.w3.org/2000/svg">
  <path d="M16.3213 13.9205L16.2417 14.0257L16.3359 14.1181L20.584 18.2847C21.0865 18.8003 21.0865 19.6201 20.5839 20.1356C20.3325 20.3828 19.983 20.5167 19.6549 20.5167C19.3263 20.5167 18.9763 20.3825 18.7248 20.1346L14.4323 15.903L14.3456 15.8176L14.2442 15.8848C12.8875 16.7833 11.2553 17.3058 9.51682 17.3058C4.83058 17.3058 1.03867 13.5646 1.03867 8.95012C1.03867 4.33584 4.85191 0.594458 9.51682 0.594458C14.2028 0.594458 17.995 4.35662 17.995 8.95012C17.995 10.8087 17.3809 12.5208 16.3213 13.9205ZM9.51682 3.16512C6.30793 3.16512 3.67224 5.76107 3.67224 8.95012C3.67224 12.1179 6.28636 14.7139 9.51682 14.7139C12.748 14.7139 15.3614 12.0959 15.3614 8.92886C15.3614 5.7607 12.7253 3.16512 9.51682 3.16512Z" fill="currentColor" stroke="white" stroke-width="0.3" />
</svg>
  
  