<svg width="300" height="300" viewBox="0 0 30 30" fill="none" xmlns="http://www.w3.org/2000/svg">
  <path d="M27.7446 8.14984C27.7888 7.74856 27.5801 7.36155 27.2203 7.17829L15.2615 1.10601C14.9864 0.964664 14.6605 0.964664 14.3858 1.10601L2.42023 7.29335H2.38189L2.24768 7.39545L2.20309 7.44004H2.20265C2.16029 7.4882 2.12194 7.53947 2.08761 7.59387C2.05328 7.65897 2.02564 7.72763 2.00468 7.79808V7.8556C1.99844 7.91312 1.99844 7.97108 2.00468 8.02815V8.0665V21.5023C2.00602 21.8514 2.19685 22.172 2.50317 22.3396L14.3603 28.9166C14.4054 28.9394 14.4526 28.9563 14.5012 28.9679H14.5779C14.7393 29.0107 14.9087 29.0107 15.0702 28.9679H15.1468C15.1954 28.9563 15.2427 28.9394 15.2873 28.9166L27.2529 22.3396C27.5579 22.1711 27.7465 21.85 27.7451 21.5023L27.7446 8.14984ZM14.8259 3.03613L24.8424 8.14984L20.8278 10.3167L11.2398 4.87086L14.8259 3.03613ZM14.8259 13.6278L4.89904 8.17518L9.25211 5.91858L18.9105 11.3965L14.8259 13.6278ZM3.81868 9.79236L13.8668 15.3149V26.4563L3.81868 20.9337V9.79236ZM25.8266 20.9337L15.7846 26.4563V15.2895L19.8434 13.0588L19.8439 16.3186C19.8439 16.8483 20.2728 17.2777 20.8025 17.2777C21.3322 17.2777 21.7611 16.8483 21.7611 16.3186V12.0039L25.8265 9.76645L25.8266 20.9337Z" fill="currentColor" />
</svg>