<svg width="1000" height="1000" viewBox="0 0 525 44" fill="none" xmlns="http://www.w3.org/2000/svg">
  <path d="M2.4149e-05 -4.34525e-07C14.6208 8.4366e-07 21.9386 9.85152 27.8225 17.7641C33.5504 25.4678 37.1388 29.8305 44.3303 29.8305C51.5218 29.8305 55.1101 25.4678 60.838 17.7641C66.722 9.85152 74.0398 6.03824e-06 88.6605 7.31642e-06C103.281 8.59461e-06 110.606 9.85152 116.483 17.7641C122.211 25.4678 125.799 29.8305 132.991 29.8305C140.182 29.8305 143.771 25.4678 149.499 17.7641C155.382 9.85153 162.7 1.37892e-05 177.321 1.50674e-05C191.942 1.63456e-05 199.267 9.85153 205.143 17.7641C210.871 25.4678 214.46 29.8305 221.651 29.8305C228.843 29.8305 232.431 25.4678 238.159 17.7641C244.043 9.85154 251.361 2.15401e-05 265.981 2.28183e-05C280.602 2.40965e-05 287.927 9.85154 293.804 17.7641C299.532 25.4678 303.12 29.8305 310.312 29.8305C317.503 29.8305 321.092 25.4678 326.819 17.7641C332.703 9.85154 340.021 2.92911e-05 354.642 3.05693e-05C369.263 3.18474e-05 376.588 9.85155 382.464 17.7641C388.192 25.4678 391.781 29.8305 398.972 29.8305C406.164 29.8305 409.759 25.4678 415.48 17.7641C421.364 9.85155 428.682 3.7042e-05 443.302 3.83202e-05C457.923 3.95984e-05 465.248 9.85156 471.125 17.7641C476.853 25.4678 480.441 29.8305 487.64 29.8305C494.839 29.8305 498.427 25.4678 504.155 17.7641C510.054 9.85156 517.372 4.47956e-05 532 4.60744e-05L532 14.1695C524.809 14.1695 521.213 18.5322 515.485 26.2359C509.608 34.1485 502.29 44 487.662 44C473.034 44 465.716 34.1485 459.84 26.2359C454.112 18.5322 450.524 14.1695 443.325 14.1695C436.126 14.1695 432.537 18.5322 426.817 26.2359C420.933 34.1485 413.615 44 398.987 44C384.359 44 377.041 34.1485 371.165 26.2359C365.437 18.5322 361.848 14.1695 354.657 14.1695C347.465 14.1695 343.877 18.5322 338.149 26.2359C332.265 34.1485 324.947 44 310.327 44C295.706 44 288.381 34.1485 282.504 26.2359C276.776 18.5322 273.188 14.1695 265.996 14.1695C258.805 14.1695 255.216 18.5322 249.489 26.2359C243.605 34.1485 236.287 44 221.666 44C207.045 44 199.72 34.1485 193.844 26.2359C188.116 18.5322 184.527 14.1695 177.336 14.1695C170.144 14.1695 166.556 18.5322 160.828 26.2359C154.944 34.1485 147.626 44 133.006 44C118.385 44 111.06 34.1484 105.183 26.2359C99.4552 18.5322 95.8669 14.1695 88.6754 14.1695C81.4839 14.1695 77.8955 18.5322 72.1676 26.2359C66.2837 34.1484 58.9658 44 44.3451 44C29.7244 44 22.4066 34.1484 16.5227 26.2359C10.7947 18.5322 7.20639 14.1695 0.0148959 14.1695L0.0148971 -4.33225e-07L2.4149e-05 -4.34525e-07Z" fill="currentColor"/>
  </svg>
  