<svg width="849" height="854" viewBox="0 0 849 854" fill="none" xmlns="http://www.w3.org/2000/svg">
<path fill-rule="evenodd" clip-rule="evenodd" d="M725.221 124.862C645.465 45.0129 539.397 1.01949 426.398 0.972656C193.553 0.972656 4.0508 190.47 3.95714 423.377C3.92592 497.831 23.3757 570.51 60.3447 634.572L0.413727 853.473L224.356 794.728C286.062 828.388 355.53 846.126 426.227 846.146H426.404C659.223 846.146 848.746 656.634 848.834 423.716C848.881 310.836 804.981 204.706 725.221 124.862ZM426.398 774.805H426.253C363.252 774.779 301.463 757.847 247.547 725.863L234.732 718.251L101.841 753.112L137.311 623.546L128.96 610.262C93.812 554.359 75.252 489.745 75.2832 423.403C75.3561 229.817 232.869 72.3196 426.539 72.3196C520.322 72.3508 608.481 108.919 674.77 175.287C741.06 241.654 777.545 329.87 777.513 423.69C777.43 617.292 619.928 774.805 426.398 774.805ZM618.991 511.838C608.439 506.551 556.542 481.024 546.864 477.496C537.196 473.974 530.151 472.22 523.121 482.783C516.081 493.346 495.857 517.124 489.696 524.164C483.535 531.21 477.385 532.094 466.828 526.808C456.27 521.526 422.262 510.376 381.942 474.416C350.566 446.428 329.384 411.863 323.223 401.3C317.073 390.727 323.171 385.565 327.854 379.759C339.28 365.569 350.722 350.693 354.24 343.653C357.762 336.608 355.998 330.442 353.355 325.161C350.722 319.88 329.613 267.925 320.819 246.784C312.244 226.211 303.55 228.989 297.066 228.667C290.916 228.36 283.876 228.297 276.836 228.297C269.801 228.297 258.365 230.935 248.687 241.508C239.014 252.076 211.749 277.609 211.749 329.563C211.749 381.517 249.571 431.708 254.847 438.753C260.123 445.798 329.28 552.413 435.161 598.129C460.344 609.014 480.002 615.502 495.336 620.367C520.624 628.401 543.628 627.267 561.818 624.551C582.1 621.517 624.262 599.013 633.066 574.36C641.86 549.702 641.86 528.572 639.216 524.164C636.583 519.762 629.544 517.124 618.991 511.838Z" fill="currentColor"/>
</svg>
