<svg width="18" height="17" viewBox="0 0 18 17" fill="none" xmlns="http://www.w3.org/2000/svg">
<path d="M12.2989 1.9C10.6781 1.9 9.62873 2.65934 9.00001 3.37787C8.37146 2.6593 7.32216 1.9 5.70086 1.9C2.8202 1.9 0.9 4.56695 0.9 7.043C0.9 7.95917 1.33835 8.94126 1.99247 9.89977C2.64798 10.8603 3.5282 11.8088 4.42974 12.66C6.23305 14.3626 8.13268 15.6864 8.52216 15.9525L8.52219 15.9525C8.66622 16.0509 8.83317 16.1 9 16.1C9.16688 16.1 9.33381 16.0507 9.47776 15.9526L9.47785 15.9525C9.86729 15.6864 11.7669 14.3626 13.5702 12.66C14.4718 11.8088 15.352 10.8603 16.0075 9.89977C16.6616 8.94126 17.1 7.95917 17.1 7.043C17.1 4.56694 15.1795 1.9 12.2989 1.9ZM5.70086 3.59642C7.52858 3.59642 8.17916 5.17062 8.20798 5.24279C8.33235 5.57065 8.64617 5.78421 8.99491 5.78712H8.99574H9.00099C9.34918 5.78712 9.66242 5.57145 9.79028 5.24842L9.79038 5.24819C9.81637 5.18202 10.4653 3.59654 12.2989 3.59654C13.3081 3.59654 14.0823 4.0921 14.6073 4.77319C15.1339 5.45648 15.4052 6.32167 15.4052 7.04311C15.4051 7.50747 15.1784 8.071 14.7811 8.69341C14.3854 9.31318 13.8283 9.97932 13.1851 10.6462C11.9175 11.9603 10.3244 13.2682 8.99978 14.2167C7.67531 13.2688 6.08229 11.9615 4.81481 10.6474C4.17171 9.98065 3.61468 9.31446 3.21906 8.69449C2.82177 8.07189 2.59514 7.50798 2.59514 7.043C2.59514 6.32172 2.86632 5.45653 3.39284 4.77319C3.91767 4.09206 4.69176 3.59642 5.70086 3.59642Z" fill="currentColor" stroke="currentColor" stroke-width="0.2"/>
</svg>
